<svg
          
          width="253"
          height="31"
          viewBox="0 0 253 31"
          fill="none"
          xmlns="http://www.w3.org/2000/svg"
        >
          <g >
            <path
              d="M15.2158 1.416C15.1438 1.416 15.0118 1.392 14.8198 1.344C14.6278 1.272 14.4958 1.188 14.4238 1.092H14.8558C14.9038 1.14 14.9518 1.2 14.9998 1.272C15.0718 1.32 15.1438 1.368 15.2158 1.416ZM14.4958 1.416C14.4238 1.416 14.2918 1.392 14.0998 1.344C13.9078 1.272 13.7758 1.188 13.7038 1.092H14.0998C14.1958 1.092 14.2678 1.128 14.3158 1.2C14.3638 1.272 14.4238 1.344 14.4958 1.416ZM13.7758 1.416C13.7038 1.416 13.5718 1.392 13.3798 1.344C13.1878 1.272 13.0558 1.188 12.9838 1.092H13.4158C13.4638 1.14 13.5118 1.2 13.5598 1.272C13.6318 1.32 13.7038 1.368 13.7758 1.416ZM13.0558 1.416C12.9838 1.416 12.8518 1.392 12.6598 1.344C12.4678 1.272 12.3358 1.188 12.2638 1.092H12.6958C12.7438 1.14 12.7918 1.2 12.8398 1.272C12.9118 1.32 12.9838 1.368 13.0558 1.416ZM12.3358 1.416C12.1918 1.464 12.0478 1.452 11.9038 1.38C11.7838 1.284 11.6398 1.188 11.4718 1.092H11.9758C12.0238 1.14 12.0718 1.2 12.1198 1.272C12.1918 1.32 12.2638 1.368 12.3358 1.416ZM11.6158 1.416C11.5438 1.44 11.4238 1.416 11.2558 1.344C11.1118 1.248 10.9438 1.164 10.7518 1.092H11.2558C11.3038 1.14 11.3518 1.2 11.3998 1.272C11.4718 1.32 11.5438 1.368 11.6158 1.416ZM10.8958 1.416C10.8238 1.44 10.7038 1.416 10.5358 1.344C10.3918 1.248 10.2238 1.164 10.0318 1.092H10.5358C10.5838 1.14 10.6318 1.2 10.6798 1.272C10.7518 1.32 10.8238 1.368 10.8958 1.416ZM10.1758 1.416C10.1038 1.44 9.98384 1.416 9.81584 1.344C9.67184 1.248 9.50384 1.164 9.31184 1.092H9.81584C9.86384 1.14 9.91184 1.2 9.95984 1.272C10.0318 1.32 10.1038 1.368 10.1758 1.416ZM27.2398 8.976H24.2158C24.2638 9.12 24.3598 9.18 24.5038 9.156C24.6718 9.108 24.7918 9.084 24.8638 9.084C24.7198 9.204 24.4798 9.372 24.1438 9.588C23.8318 9.78 23.6278 9.876 23.5318 9.876C23.5078 9.876 23.4238 9.828 23.2798 9.732C23.1598 9.636 22.9438 9.648 22.6318 9.768L22.5238 9.84V7.248C22.2598 7.056 21.9598 6.852 21.6238 6.636C21.3118 6.396 21.1078 6.276 21.0118 6.276H12.4798C12.3838 6.324 12.3238 6.384 12.2998 6.456C12.2758 6.528 12.2398 6.612 12.1918 6.708H10.0318C9.93584 6.708 9.83984 6.66 9.74384 6.564C9.64784 6.444 9.56384 6.336 9.49184 6.24H0.707844V1.884H5.85584C5.83184 1.86 5.78384 1.824 5.71184 1.776C5.63984 1.728 5.56784 1.668 5.49584 1.596H20.9398C21.0358 1.596 21.1558 1.656 21.2998 1.776C21.4678 1.896 21.5998 1.956 21.6958 1.956H27.2398V7.212H24.3598L24.2878 7.68H27.2398V8.976ZM9.45584 1.416C9.38384 1.44 9.26384 1.416 9.09584 1.344C8.95184 1.248 8.78384 1.164 8.59184 1.092H9.09584C9.14384 1.14 9.19184 1.2 9.23984 1.272C9.31184 1.32 9.38384 1.368 9.45584 1.416ZM8.73584 1.416C8.66384 1.44 8.54384 1.428 8.37584 1.38C8.23184 1.332 8.06384 1.236 7.87184 1.092H8.37584C8.42384 1.14 8.47184 1.2 8.51984 1.272C8.59184 1.32 8.66384 1.368 8.73584 1.416ZM8.01584 1.416C7.94384 1.44 7.82384 1.428 7.65584 1.38C7.51184 1.332 7.34384 1.236 7.15184 1.092H7.54784C7.61984 1.092 7.69184 1.14 7.76384 1.236C7.85984 1.308 7.94384 1.368 8.01584 1.416ZM7.22384 1.416C7.10384 1.416 6.97184 1.38 6.82784 1.308C6.68384 1.236 6.55184 1.164 6.43184 1.092H6.82784C6.92384 1.092 6.99584 1.128 7.04384 1.2C7.09184 1.272 7.15184 1.344 7.22384 1.416ZM22.1278 9.696H18.4558C18.4078 9.768 18.3598 9.852 18.3118 9.948C18.2638 10.044 18.2158 10.14 18.1678 10.236H14.8558C14.7598 10.236 14.6398 10.284 14.4958 10.38C14.3518 10.452 14.2078 10.536 14.0638 10.632H17.8438V14.664H9.63584V11.532H4.41584C4.58384 11.388 4.77584 11.232 4.99184 11.064C5.23184 10.872 5.45984 10.704 5.67584 10.56C5.89184 10.392 6.08384 10.248 6.25184 10.128C6.41984 10.008 6.52784 9.948 6.57584 9.948H8.69984C8.77184 9.948 8.89184 9.924 9.05984 9.876C9.22784 9.828 9.38384 9.756 9.52784 9.66H4.01984C4.01984 9.492 4.00784 9.396 3.98384 9.372V9.444C3.98384 9.492 3.94784 9.516 3.87584 9.516C3.77984 9.516 3.75584 9.504 3.80384 9.48C3.85184 9.456 3.85184 9.42 3.80384 9.372L3.65984 9.48C3.65984 9.432 3.63584 9.36 3.58784 9.264C3.56384 9.144 3.55184 9.048 3.55184 8.976C3.52784 8.952 3.49184 8.94 3.44384 8.94C3.41984 8.916 3.33584 8.904 3.19184 8.904C3.07184 8.904 2.87984 8.904 2.61584 8.904C2.37584 8.904 2.03984 8.904 1.60784 8.904C1.70384 8.832 1.82384 8.736 1.96784 8.616C2.11184 8.472 2.25584 8.34 2.39984 8.22C2.54384 8.1 2.68784 7.992 2.83184 7.896C2.99984 7.8 3.15584 7.764 3.29984 7.788C3.34784 7.74 3.35984 7.728 3.33584 7.752C3.33584 7.776 3.33584 7.74 3.33584 7.644C3.33584 7.404 3.29984 7.284 3.22784 7.284C3.15584 7.284 3.04784 7.284 2.90384 7.284C2.75984 7.284 2.56784 7.356 2.32784 7.5C2.11184 7.62 1.89584 7.764 1.67984 7.932C1.46384 8.1 1.25984 8.268 1.06784 8.436C0.899844 8.604 0.779844 8.712 0.707844 8.76V6.492H8.62784C8.72384 6.492 8.86784 6.588 9.05984 6.78C9.27584 6.972 9.43184 7.068 9.52784 7.068H12.8038C12.8758 6.996 12.9478 6.912 13.0198 6.816C13.0918 6.72 13.1878 6.612 13.3078 6.492H17.8438C17.9398 6.492 18.0238 6.54 18.0958 6.636C18.1918 6.732 18.2878 6.78 18.3838 6.78H21.0118C21.1078 6.78 21.2638 6.876 21.4798 7.068C21.7198 7.236 21.9358 7.38 22.1278 7.5V9.696ZM18.3118 30.216H9.63584V26.724H10.6438C10.6198 26.652 10.5958 26.616 10.5718 26.616C10.5718 26.592 10.5718 26.496 10.5718 26.328C10.5718 26.16 10.5718 25.86 10.5718 25.428C10.5718 24.996 10.5838 24.324 10.6078 23.412C10.6558 23.364 10.7038 23.34 10.7518 23.34C10.7998 23.34 10.8478 23.316 10.8958 23.268C10.8958 23.148 10.8958 22.98 10.8958 22.764C10.9198 22.548 10.9438 22.344 10.9678 22.152C10.9918 21.936 11.0038 21.744 11.0038 21.576C11.0278 21.384 11.0398 21.264 11.0398 21.216C11.0398 21.168 11.0278 21.072 11.0038 20.928C11.0038 20.784 10.9918 20.628 10.9678 20.46C10.9438 20.268 10.9198 20.088 10.8958 19.92C10.8958 19.728 10.8958 19.56 10.8958 19.416C10.7038 19.296 10.5118 19.248 10.3198 19.272C10.1278 19.296 9.89984 19.296 9.63584 19.272V14.988H17.8078V21.936C17.8078 22.032 17.8558 22.14 17.9518 22.26C18.0718 22.38 18.1918 22.5 18.3118 22.62V30.216ZM22.4878 6.888V6.276H21.4798C21.6238 6.348 21.7918 6.456 21.9838 6.6C22.1998 6.744 22.3678 6.84 22.4878 6.888ZM20.7598 7.68V7.284H20.5078V7.68H20.7598ZM20.5438 9.084V8.976H20.2918V9.084H20.5438ZM18.1678 7.284H17.3758C17.4718 7.332 17.5558 7.392 17.6278 7.464C17.7238 7.536 17.8078 7.572 17.8798 7.572C17.9758 7.572 18.0358 7.536 18.0598 7.464C18.0838 7.392 18.1198 7.332 18.1678 7.284ZM15.7918 7.5V7.392H15.6118V7.5H15.7918ZM14.8558 7.68C14.7118 7.608 14.5558 7.524 14.3878 7.428C14.2438 7.332 14.1238 7.284 14.0278 7.284H13.7758C13.9678 7.38 14.1598 7.476 14.3518 7.572C14.5678 7.644 14.7358 7.68 14.8558 7.68ZM9.59984 9.228V9.12L9.27584 9.192V9.3L9.59984 9.228ZM9.09584 9.264V8.94H4.01984V9.084C4.01984 9.204 4.04384 9.264 4.09184 9.264H9.09584ZM5.99984 7.752C5.87984 7.68 5.77184 7.584 5.67584 7.464C5.57984 7.344 5.48384 7.284 5.38784 7.284H3.73184C3.73184 7.356 3.74384 7.44 3.76784 7.536C3.79184 7.632 3.80384 7.704 3.80384 7.752H5.99984ZM54.1105 29.928H52.9585C52.8625 29.952 52.8265 29.952 52.8505 29.928C52.8985 29.904 52.8985 29.868 52.8505 29.82C52.7305 29.772 52.5985 29.736 52.4545 29.712C52.3105 29.664 52.1545 29.628 51.9865 29.604C51.8185 29.58 51.6265 29.592 51.4105 29.64C51.1945 29.688 50.9785 29.7 50.7625 29.676C50.6425 29.652 50.4985 29.628 50.3305 29.604C50.1865 29.556 50.0665 29.532 49.9705 29.532H40.9345C40.9105 29.532 40.8505 29.544 40.7545 29.568C40.6825 29.568 40.5865 29.58 40.4665 29.604C40.3705 29.628 40.2745 29.676 40.1785 29.748C40.1065 29.796 40.0705 29.856 40.0705 29.928H30.3145V27.444C30.5065 27.444 30.6985 27.444 30.8905 27.444C31.1065 27.444 31.3225 27.432 31.5385 27.408C31.6105 27.312 31.6945 27.204 31.7905 27.084C31.9105 26.94 31.9705 26.82 31.9705 26.724V22.188H34.7065C34.8025 22.092 34.8505 22.032 34.8505 22.008C34.5625 21.96 34.2745 21.936 33.9865 21.936C33.6985 21.936 33.4105 21.936 33.1225 21.936C33.1225 21.888 33.1225 21.852 33.1225 21.828C33.1465 21.78 33.1345 21.732 33.0865 21.684C33.0385 21.732 33.0145 21.816 33.0145 21.936H31.9705V20.244C32.0905 20.292 32.2465 20.328 32.4385 20.352C32.6305 20.376 32.7865 20.328 32.9065 20.208C32.7865 20.088 32.6305 20.04 32.4385 20.064C32.2465 20.064 32.0905 20.088 31.9705 20.136V16.32C31.9705 16.248 31.9225 16.128 31.8265 15.96C31.7545 15.768 31.6825 15.612 31.6105 15.492C31.3945 15.468 31.1785 15.468 30.9625 15.492C30.9625 15.444 30.9865 15.408 31.0345 15.384C31.0825 15.36 31.1065 15.324 31.1065 15.276L31.1425 15.312C31.1425 15.336 31.1665 15.372 31.2145 15.42C31.2625 15.372 31.2865 15.312 31.2865 15.24C31.2865 15.312 31.3105 15.372 31.3585 15.42C31.4065 15.372 31.4305 15.312 31.4305 15.24C31.4305 15.312 31.4545 15.372 31.5025 15.42C31.5505 15.372 31.5745 15.288 31.5745 15.168C31.5745 15.216 31.5625 15.264 31.5385 15.312C31.5385 15.336 31.5625 15.372 31.6105 15.42C31.7065 15.3 31.7305 15.204 31.6825 15.132C31.6345 15.036 31.5865 14.94 31.5385 14.844C31.5145 14.868 31.5025 14.928 31.5025 15.024C31.5025 14.952 31.4785 14.892 31.4305 14.844C31.3825 14.892 31.3585 14.94 31.3585 14.988C31.3585 15.012 31.3465 15.048 31.3225 15.096V14.88C31.2745 14.832 31.2145 14.82 31.1425 14.844C31.0705 14.844 31.0345 14.82 31.0345 14.772C30.9865 14.844 30.9745 14.904 30.9985 14.952C31.0465 15 31.0705 15.06 31.0705 15.132C31.0945 15.06 31.0825 15 31.0345 14.952C31.0105 14.904 30.9745 14.844 30.9265 14.772C30.9265 14.796 30.9145 14.808 30.8905 14.808C30.8425 14.856 30.8185 14.88 30.8185 14.88V14.628H28.9465L27.8665 11.172H29.4505C29.4985 11.124 29.5225 11.004 29.5225 10.812C29.5705 10.86 29.6185 10.92 29.6665 10.992C29.7145 11.04 29.7745 11.1 29.8465 11.172L30.3145 11.1C30.2665 11.076 30.2185 11.028 30.1705 10.956C30.1465 10.884 30.0985 10.812 30.0265 10.74H30.2785V1.74H31.5025C31.4305 1.956 31.4305 2.124 31.5025 2.244C31.5985 2.34 31.7185 2.412 31.8625 2.46C32.0305 2.508 32.1985 2.532 32.3665 2.532C32.5585 2.532 32.6905 2.532 32.7625 2.532C32.8345 2.532 32.9785 2.52 33.1945 2.496C33.4105 2.472 33.5665 2.46 33.6625 2.46C33.7585 2.46 33.8065 2.484 33.8065 2.532C33.8065 2.58 33.8545 2.604 33.9505 2.604H39.9625C40.2505 2.604 40.4425 2.544 40.5385 2.424C40.6345 2.304 40.6585 2.076 40.6105 1.74H53.6785V7.716H39.0625V8.544H40.7905C40.7425 8.784 40.7065 9.024 40.6825 9.264C40.6585 9.48 40.6225 9.684 40.5745 9.876H34.1665C34.1425 10.02 34.1665 10.224 34.2385 10.488C34.3345 10.752 34.4785 11.004 34.6705 11.244C34.7425 11.148 34.7785 11.064 34.7785 10.992C34.7785 10.92 34.7545 10.848 34.7065 10.776C34.6825 10.704 34.6585 10.644 34.6345 10.596C34.6105 10.524 34.6345 10.452 34.7065 10.38H40.5025C40.5265 10.452 40.5265 10.548 40.5025 10.668C40.5025 10.764 40.4785 10.944 40.4305 11.208H44.9665C45.0385 11.376 45.0985 11.544 45.1465 11.712C45.1945 11.88 45.2785 12.06 45.3985 12.252H51.7345C51.7825 12.372 51.8185 12.504 51.8425 12.648C51.8665 12.768 51.8785 12.864 51.8785 12.936L45.5425 13.008C45.5905 13.08 45.6265 13.152 45.6505 13.224C45.6745 13.272 45.7105 13.332 45.7585 13.404L52.4185 13.332C52.3465 13.14 52.2865 12.96 52.2385 12.792C52.1905 12.624 52.1305 12.444 52.0585 12.252H52.5985V17.976H39.1345C39.0865 18.048 39.0625 18.12 39.0625 18.192H33.0145C33.0145 18.672 33.0385 19.14 33.0865 19.596C33.1345 20.028 33.1825 20.484 33.2305 20.964L34.9225 21.036C34.9225 20.676 34.9345 20.316 34.9585 19.956C34.9825 19.572 34.9705 19.164 34.9225 18.732H38.3425V20.712H40.8625C40.9105 21.024 40.9465 21.36 40.9705 21.72C41.0185 22.056 41.1265 22.368 41.2945 22.656C42.9265 22.68 44.5585 22.704 46.1905 22.728C47.8465 22.728 49.5025 22.728 51.1585 22.728H50.6545C50.6065 22.848 50.5825 22.968 50.5825 23.088C50.5825 23.184 50.5585 23.328 50.5105 23.52C50.5585 23.52 50.7025 23.532 50.9425 23.556C51.2065 23.556 51.5185 23.556 51.8785 23.556C52.2385 23.556 52.6105 23.556 52.9945 23.556C53.4025 23.532 53.7745 23.52 54.1105 23.52V24.24C53.7505 24.168 53.3425 24.168 52.8865 24.24C53.0065 24.432 53.1865 24.504 53.4265 24.456C53.6905 24.408 53.9185 24.396 54.1105 24.42V29.928ZM31.2505 15.096H31.1425V14.916H31.2505V15.096ZM30.9625 15.168H30.8545V14.988H30.9625V15.168ZM44.9665 12.216C44.9665 12.096 44.9545 12 44.9305 11.928C44.9065 11.856 44.8945 11.796 44.8945 11.748H40.5385V12.216H44.9665ZM52.9225 24.024V23.772H52.8145V24.024H52.9225ZM45.3985 13.368C45.3505 13.296 45.3265 13.224 45.3265 13.152C45.3265 13.08 45.3265 13.02 45.3265 12.972H35.3905L34.9585 11.676H34.7065C34.7785 11.94 34.8625 12.216 34.9585 12.504C35.0545 12.768 35.1385 13.032 35.2105 13.296C35.2825 13.344 35.3665 13.38 35.4625 13.404C35.5585 13.404 35.6305 13.44 35.6785 13.512C35.7985 13.776 35.8825 14.016 35.9305 14.232H39.6385C39.6865 14.16 39.7105 14.1 39.7105 14.052C39.7345 13.98 39.7825 13.896 39.8545 13.8H41.9425C41.9425 13.656 42.0145 13.512 42.1585 13.368H45.3985ZM40.4665 14.232C40.6345 14.16 40.6345 14.076 40.4665 13.98V14.232ZM40.2865 13.98C40.2385 13.98 40.2025 14.016 40.1785 14.088C40.1785 14.136 40.1785 14.184 40.1785 14.232C40.2505 14.184 40.2985 14.136 40.3225 14.088C40.3465 14.016 40.3345 13.98 40.2865 13.98ZM39.9985 13.98C39.9505 13.98 39.9025 14.016 39.8545 14.088C39.8305 14.16 39.8425 14.22 39.8905 14.268C39.9625 14.22 40.0105 14.16 40.0345 14.088C40.0585 14.016 40.0465 13.98 39.9985 13.98ZM51.8065 29.604V29.496H51.6265V29.604H51.8065ZM50.4385 29.604V29.496H50.2585V29.604H50.4385ZM38.2345 19.596H38.1265L38.0545 21H38.1625L38.2345 19.596ZM38.0185 19.596H37.9105L37.8385 21H37.9465L38.0185 19.596ZM37.8025 19.596H37.6945L37.6585 21H37.7665L37.8025 19.596ZM37.6585 19.596H37.5505L37.4065 21H37.5145L37.6585 19.596ZM37.4425 19.596H37.3345L37.2625 21H37.3705L37.4425 19.596ZM37.2265 19.596H37.1185L37.0465 21H37.1545L37.2265 19.596ZM37.0105 19.596H36.9025L36.8305 21H36.9385L37.0105 19.596ZM39.9985 23.52C39.9505 23.256 39.9265 23.076 39.9265 22.98C39.9265 22.884 39.9265 22.812 39.9265 22.764H39.0985V23.52H39.9985ZM36.7585 19.668C36.7585 20.148 36.7225 20.604 36.6505 21.036C36.6985 20.7 36.7225 20.436 36.7225 20.244C36.7465 20.052 36.7585 19.86 36.7585 19.668ZM30.2785 14.232V13.476C30.2785 13.452 30.2305 13.392 30.1345 13.296C30.0625 13.176 29.9665 13.044 29.8465 12.9C29.7505 12.756 29.6545 12.612 29.5585 12.468C29.4865 12.3 29.4505 12.168 29.4505 12.072C29.4505 11.976 29.4505 11.904 29.4505 11.856C29.4745 11.784 29.4865 11.724 29.4865 11.676H28.2985L29.0905 14.232H30.2785ZM36.6505 19.596H36.5425L36.3985 21H36.5065L36.6505 19.596ZM36.4345 19.596H36.3265L36.2545 21H36.3625L36.4345 19.596ZM36.2185 19.596H36.1105L36.0385 21H36.1465L36.2185 19.596ZM36.0025 19.596H35.8945L35.8225 21H35.9305L36.0025 19.596ZM35.7505 19.596C35.7505 19.74 35.7385 19.932 35.7145 20.172C35.7145 20.388 35.6905 20.676 35.6425 21.036C35.6905 20.844 35.7145 20.616 35.7145 20.352C35.7385 20.064 35.7505 19.812 35.7505 19.596ZM35.6425 19.596H35.5345L35.3905 21H35.4985L35.6425 19.596ZM35.4265 19.596H35.3185L35.2465 21H35.3545L35.4265 19.596ZM40.1425 24.384V24.168H33.3385V24.384H40.1425ZM32.9785 20.712V20.46H32.8705V20.712H32.9785ZM33.0505 21.36V21.036H32.9425V21.36H33.0505ZM33.1945 22.584V22.26H33.0865V22.584H33.1945ZM33.2665 23.16V22.908H33.1585V23.16H33.2665ZM33.3385 23.808V23.484H33.2305V23.808H33.3385ZM29.9905 13.8H29.3785V12.972C29.4505 13.092 29.5465 13.224 29.6665 13.368C29.7865 13.512 29.8945 13.656 29.9905 13.8ZM84.4711 20.424C84.3511 20.592 84.2911 20.796 84.2911 21.036H80.9071V21.468H84.1831C83.5591 23.316 82.7911 24.804 81.8791 25.932C80.9671 27.06 79.9471 27.936 78.8191 28.56C77.7151 29.16 76.5391 29.568 75.2911 29.784C74.0671 30 72.8431 30.108 71.6191 30.108C70.5151 30.108 69.6391 30.072 68.9911 30C68.3671 29.904 67.7791 29.82 67.2271 29.748C67.0831 29.724 66.9031 29.688 66.6871 29.64C66.4951 29.568 66.2911 29.496 66.0751 29.424C65.8591 29.352 65.6671 29.292 65.4991 29.244C65.3311 29.196 65.2231 29.172 65.1751 29.172H62.0071C62.0071 29.1 61.9951 29.016 61.9711 28.92C61.9471 28.824 61.9351 28.752 61.9351 28.704L63.8791 28.632C63.2551 28.344 62.6191 27.936 61.9711 27.408C61.3231 26.88 60.7231 26.268 60.1711 25.572C60.1231 25.692 60.0991 25.836 60.0991 26.004C60.1231 26.148 60.1351 26.268 60.1351 26.364C60.1351 26.46 60.1231 26.58 60.0991 26.724C60.0991 26.868 60.1111 27 60.1351 27.12C60.1831 27.384 60.2551 27.648 60.3511 27.912C60.4471 28.176 60.5551 28.428 60.6751 28.668C60.7711 28.716 60.8791 28.728 60.9991 28.704C61.1191 28.68 61.2271 28.668 61.3231 28.668C61.4431 28.668 61.5511 28.704 61.6471 28.776C61.7431 28.848 61.8031 29.004 61.8271 29.244H60.4951C60.4471 29.004 60.3751 28.74 60.2791 28.452C60.1831 28.164 60.0871 27.864 59.9911 27.552C59.9191 27.216 59.8471 26.892 59.7751 26.58C59.7031 26.244 59.6791 25.92 59.7031 25.608H56.1751C56.2951 25.464 56.4391 25.308 56.6071 25.14C56.7991 24.972 56.9911 24.792 57.1831 24.6C57.0631 24.336 56.9311 24.036 56.7871 23.7C56.6671 23.34 56.6071 23.112 56.6071 23.016V20.388C56.5351 20.316 56.4631 20.256 56.3911 20.208C56.3191 20.136 56.2471 20.064 56.1751 19.992H56.6071V11.964C56.2951 11.652 56.0311 11.352 55.8151 11.064C55.8631 11.016 55.9471 11.016 56.0671 11.064C56.2111 11.088 56.3311 11.1 56.4271 11.1H56.8231C56.8471 11.028 56.8591 10.92 56.8591 10.776C56.8831 10.632 56.9191 10.5 56.9671 10.38C57.0151 10.26 57.0871 10.164 57.1831 10.092C57.2791 10.02 57.4231 10.02 57.6151 10.092C58.1911 8.196 58.9711 6.648 59.9551 5.448C60.9631 4.248 62.0911 3.312 63.3391 2.64C64.5871 1.968 65.8951 1.512 67.2631 1.272C68.6311 1.008 69.9631 0.875999 71.2591 0.875999C72.5071 0.875999 73.7671 0.983999 75.0391 1.2C76.3351 1.416 77.5591 1.848 78.7111 2.496C79.8631 3.12 80.9071 4.008 81.8431 5.16C82.8031 6.288 83.5831 7.788 84.1831 9.66L76.4791 11.388C76.4071 10.932 76.2151 10.476 75.9031 10.02C75.6151 9.564 75.2671 9.144 74.8591 8.76C74.4511 8.376 74.0071 8.064 73.5271 7.824C73.0711 7.584 72.6511 7.452 72.2671 7.428L70.9351 7.5C70.9831 7.692 71.0791 7.764 71.2231 7.716C71.3671 7.644 71.4751 7.632 71.5471 7.68C71.5951 7.8 71.6551 7.932 71.7271 8.076C71.8231 8.196 71.8711 8.304 71.8711 8.4V21.108C71.8711 21.18 71.8471 21.24 71.7991 21.288C71.7511 21.312 71.7271 21.36 71.7271 21.432C71.9431 21.48 72.1711 21.48 72.4111 21.432C72.6511 21.384 72.8671 21.408 73.0591 21.504C73.2991 21.624 73.4551 21.72 73.5271 21.792C73.5991 21.864 73.6591 21.924 73.7071 21.972C73.7551 21.996 73.8271 22.02 73.9231 22.044C74.0191 22.044 74.1991 22.044 74.4631 22.044C74.5351 22.044 74.6191 22.056 74.7151 22.08C74.8351 22.104 74.9191 22.092 74.9671 22.044C75.5191 21.492 75.9151 20.88 76.1551 20.208C76.4191 19.512 76.6231 18.828 76.7671 18.156H77.1271C77.1751 18.156 77.3071 18.192 77.5231 18.264C77.7391 18.312 77.9791 18.384 78.2431 18.48C78.5311 18.552 78.8191 18.636 79.1071 18.732C79.3951 18.828 79.6351 18.912 79.8271 18.984C79.8991 19.032 79.9711 19.104 80.0431 19.2C80.1151 19.296 80.1871 19.38 80.2591 19.452C80.6191 19.428 80.9791 19.452 81.3391 19.524C81.7231 19.572 82.0951 19.656 82.4551 19.776C82.8151 19.872 83.1631 19.992 83.4991 20.136C83.8591 20.256 84.1831 20.352 84.4711 20.424ZM71.7271 17.796V9.48C71.4631 9.6 71.2591 9.6 71.1151 9.48C70.9951 9.36 70.9111 9.192 70.8631 8.976C70.8151 8.736 70.7671 8.496 70.7191 8.256C70.6951 7.992 70.6351 7.788 70.5391 7.644H69.7471C69.4831 7.644 69.1711 7.764 68.8111 8.004C68.4751 8.22 68.1391 8.484 67.8031 8.796C67.4671 9.108 67.1671 9.432 66.9031 9.768C66.6631 10.104 66.5191 10.38 66.4711 10.596H69.6391C69.7351 10.596 69.8191 10.644 69.8911 10.74C69.9631 10.812 70.0231 10.872 70.0711 10.92C69.9511 11.088 69.7831 11.196 69.5671 11.244C69.3751 11.292 69.2311 11.292 69.1351 11.244C69.0871 11.34 69.0391 11.448 68.9911 11.568C68.9431 11.688 68.8711 11.76 68.7751 11.784H65.9671V18.84C65.9671 18.936 66.0271 19.212 66.1471 19.668C66.2911 20.1 66.4231 20.46 66.5431 20.748C66.5911 20.748 66.6391 20.736 66.6871 20.712C66.7351 20.688 66.8071 20.676 66.9031 20.676C67.0471 20.676 67.2151 20.724 67.4071 20.82C67.3111 20.724 67.3591 20.676 67.5511 20.676C67.6471 20.676 67.8031 20.736 68.0191 20.856C68.2591 20.976 68.4631 21.096 68.6311 21.216C68.2231 21.264 67.8991 21.288 67.6591 21.288C67.4191 21.264 67.2511 21.252 67.1551 21.252C66.9391 21.252 66.8311 21.276 66.8311 21.324C67.1431 21.372 67.5031 21.408 67.9111 21.432C68.3191 21.456 68.5711 21.468 68.6671 21.468H71.5831V17.976C71.5831 17.88 71.6071 17.856 71.6551 17.904C71.7031 17.928 71.7271 17.892 71.7271 17.796ZM65.7871 13.224V13.116H63.5911V13.224H65.7871ZM65.7871 13.476V13.368H63.3031V13.476H65.7871ZM65.8591 12.108V11.784H60.1351V12.18H65.3551C65.3551 12.06 65.3671 11.988 65.3911 11.964C65.4151 11.916 65.4871 11.892 65.6071 11.892C65.7031 11.892 65.7511 11.904 65.7511 11.928C65.7751 11.928 65.8111 11.988 65.8591 12.108ZM59.6671 12.18V11.856H59.1991L58.9111 12.18H59.6671ZM60.6031 13.224V13.116H60.1351V13.224H60.6031ZM65.7871 18.156V17.04L65.7511 13.836V15.024H59.9191V15.42C59.9911 15.468 60.0511 15.504 60.0991 15.528C60.1711 15.528 60.2071 15.564 60.2071 15.636C60.2071 15.732 60.1591 15.9 60.0631 16.14C59.9671 16.38 59.9191 16.548 59.9191 16.644V18.156H65.7871ZM59.7031 13.152H57.0751V12.828C57.0271 12.948 56.9791 13.068 56.9311 13.188C56.9071 13.284 56.8951 13.368 56.8951 13.44L56.8231 19.02C56.9191 19.092 57.0031 19.152 57.0751 19.2C57.1471 19.224 57.2191 19.26 57.2911 19.308C57.2911 19.26 57.2671 19.224 57.2191 19.2C57.1951 19.152 57.1591 19.104 57.1111 19.056C57.1591 19.008 57.1951 18.984 57.2191 18.984C57.2431 18.984 57.2551 18.96 57.2551 18.912C57.2071 18.648 57.1591 18.396 57.1111 18.156C57.0871 17.892 57.0631 17.664 57.0391 17.472C57.0151 17.28 57.0031 17.1 57.0031 16.932C57.0271 16.74 57.0271 16.56 57.0031 16.392C56.9791 16.296 56.9551 16.14 56.9311 15.924C56.9071 15.708 56.9551 15.564 57.0751 15.492H59.6671V14.988H56.9671V14.52C56.9671 13.944 56.9911 13.572 57.0391 13.404C57.0871 13.212 57.2071 13.116 57.3991 13.116C57.5911 13.116 57.8671 13.152 58.2271 13.224C58.5871 13.272 59.0791 13.248 59.7031 13.152ZM59.6671 18.156V17.544C59.6671 17.616 59.6431 17.712 59.5951 17.832C59.5711 17.928 59.5591 18.012 59.5591 18.084L59.6671 18.156ZM57.3631 19.956V19.704C57.3151 19.656 57.2311 19.608 57.1111 19.56C56.9911 19.512 56.8951 19.464 56.8231 19.416V19.956H57.3631ZM58.9111 23.772C58.7671 23.484 58.6111 23.196 58.4431 22.908C58.2991 22.596 58.1671 22.296 58.0471 22.008C58.0231 21.96 57.9991 21.876 57.9751 21.756C57.9511 21.636 57.9151 21.552 57.8671 21.504C57.6991 21.336 57.5191 21.18 57.3271 21.036C57.1591 20.868 56.9911 20.736 56.8231 20.64V22.152C56.8231 22.512 56.8711 22.932 56.9671 23.412C57.0871 23.868 57.1831 24.204 57.2551 24.42C57.3991 24.348 57.5191 24.276 57.6151 24.204C57.7111 24.108 57.8071 24.024 57.9031 23.952C57.9991 23.856 58.1191 23.796 58.2631 23.772C58.4311 23.724 58.6471 23.724 58.9111 23.772ZM71.6191 11.028C71.5471 10.812 71.4511 10.584 71.3311 10.344C71.2351 10.08 71.1511 9.84 71.0791 9.624H71.6191V11.028ZM65.6071 16.5C65.6071 16.596 65.5711 16.752 65.4991 16.968C65.4511 17.184 65.4031 17.364 65.3551 17.508H64.8871C64.9591 17.364 65.0191 17.16 65.0671 16.896C65.1151 16.632 65.1871 16.5 65.2831 16.5C65.3791 16.5 65.4151 16.524 65.3911 16.572C65.3911 16.596 65.4151 16.608 65.4631 16.608C65.5111 16.536 65.5231 16.452 65.4991 16.356C65.4751 16.236 65.4751 16.14 65.4991 16.068C65.5711 16.212 65.6071 16.356 65.6071 16.5ZM64.8151 16.176C64.8631 16.368 64.8511 16.572 64.7791 16.788C64.7311 17.004 64.7071 17.244 64.7071 17.508H64.1671C64.1911 17.316 64.2391 17.076 64.3111 16.788C64.4071 16.5 64.5031 16.26 64.5991 16.068L64.8151 16.176ZM64.1671 16.428C64.1671 16.5 64.1191 16.656 64.0231 16.896C63.9271 17.112 63.8431 17.316 63.7711 17.508H63.3751C63.4471 17.292 63.5191 17.064 63.5911 16.824C63.6631 16.56 63.7351 16.32 63.8071 16.104H64.1671V16.428ZM63.4471 16.176C63.3751 16.392 63.3031 16.62 63.2311 16.86C63.1591 17.076 63.0991 17.292 63.0511 17.508H62.5831C62.6551 17.292 62.7271 17.064 62.7991 16.824C62.8711 16.56 62.9431 16.32 63.0151 16.104L63.4471 16.176ZM62.6551 16.104C62.5831 16.32 62.5111 16.56 62.4391 16.824C62.3671 17.064 62.3071 17.292 62.2591 17.508H61.7911C61.8631 17.292 61.9351 17.064 62.0071 16.824C62.0791 16.56 62.1511 16.32 62.2231 16.104H62.6551ZM61.8631 16.104C61.8151 16.32 61.7551 16.56 61.6831 16.824C61.6111 17.064 61.5391 17.292 61.4671 17.508H61.0711C61.1431 17.268 61.2031 17.028 61.2511 16.788C61.2991 16.548 61.3591 16.32 61.4311 16.104H61.8631ZM114.94 30.108H106.156V24.312H110.008C110.056 24.528 110.092 24.744 110.116 24.96C110.164 25.152 110.224 25.368 110.296 25.608H114.94V27.336H110.404V27.732H114.94V30.108ZM114.94 7.356H112.276V9.444H114.94V10.164H106.156V9.48H106.588V7.428C106.54 7.38 106.468 7.356 106.372 7.356C106.3 7.356 106.228 7.356 106.156 7.356V1.92H114.94V7.356ZM107.164 15.672L106.264 16.572H102.916C102.964 16.428 103.012 16.284 103.06 16.14C103.108 15.972 103.156 15.816 103.204 15.672H107.164ZM116.956 21.54C116.74 22.188 116.56 22.86 116.416 23.556H114.976C114.904 23.748 114.892 23.964 114.94 24.204H111.196C111.196 24.156 111.184 24.108 111.16 24.06C111.16 23.988 111.124 23.916 111.052 23.844H108.388V23.556H110.98H111.016V23.52C111.04 23.496 111.052 23.472 111.052 23.448C111.052 23.04 110.848 22.836 110.44 22.836H108.46C108.46 22.764 108.46 22.692 108.46 22.62C108.484 22.524 108.472 22.452 108.424 22.404C108.28 22.548 108.232 22.74 108.28 22.98C108.328 23.22 108.304 23.436 108.208 23.628V22.404C108.16 22.596 108.124 22.788 108.1 22.98C108.076 23.172 108.04 23.364 107.992 23.556C108.04 23.196 108.064 22.836 108.064 22.476C108.088 22.116 108.052 21.804 107.956 21.54H103.636C103.684 21.252 103.72 20.952 103.744 20.64C103.768 20.304 103.804 19.992 103.852 19.704H106.156V18.732H102.196L102.7 17.148H105.436C105.508 17.076 105.592 17.004 105.688 16.932C105.808 16.836 105.904 16.776 105.976 16.752C106.024 16.728 106.084 16.728 106.156 16.752C106.252 16.776 106.324 16.764 106.372 16.716C106.564 16.572 106.756 16.404 106.948 16.212C107.164 15.996 107.38 15.768 107.596 15.528H103.276C103.324 15.408 103.36 15.276 103.384 15.132C103.432 14.988 103.492 14.844 103.564 14.7H91.2878L91.2518 14.772V15.168C91.2998 15.216 91.3238 15.252 91.3238 15.276C91.3478 15.276 91.4078 15.276 91.5038 15.276L102.952 15.24C102.976 15.288 102.964 15.348 102.916 15.42C102.868 15.468 102.808 15.492 102.736 15.492L91.2158 15.564C91.2158 15.66 91.2878 15.708 91.4318 15.708L102.844 15.672C102.748 16.008 102.64 16.308 102.52 16.572L91.2518 16.716H98.3438C98.3918 16.716 98.4398 16.74 98.4878 16.788C98.5598 16.836 98.6318 16.86 98.7038 16.86H101.152C101.296 17.124 101.488 17.232 101.728 17.184C101.992 17.136 102.196 17.136 102.34 17.184C102.292 17.376 102.232 17.568 102.16 17.76C102.088 17.928 102.016 18.108 101.944 18.3H91.2878C91.2398 18.348 91.2278 18.396 91.2518 18.444C91.2998 18.468 91.3478 18.48 91.3958 18.48C91.3238 18.528 91.2398 18.576 91.1438 18.624C91.0478 18.648 90.9398 18.696 90.8198 18.768C90.8438 18.792 90.8798 18.804 90.9278 18.804C90.9758 18.804 91.0838 18.804 91.2518 18.804C91.4438 18.804 91.7198 18.804 92.0798 18.804C92.4398 18.804 92.9438 18.804 93.5918 18.804C93.6398 18.876 93.6758 18.96 93.6998 19.056C93.7238 19.152 93.7598 19.248 93.8078 19.344H96.5438V30.108H87.8678V27.444L86.5718 26.76C86.7158 26.688 86.8718 26.616 87.0398 26.544C87.2078 26.472 87.3878 26.376 87.5798 26.256C87.4358 26.136 87.2798 26.04 87.1118 25.968C86.9438 25.896 86.7638 25.8 86.5718 25.68L87.5798 25.176C87.4358 25.056 87.2798 24.96 87.1118 24.888C86.9438 24.816 86.7638 24.72 86.5718 24.6C86.7158 24.528 86.8598 24.456 87.0038 24.384C87.1478 24.312 87.3398 24.216 87.5798 24.096C87.3878 23.976 87.2078 23.868 87.0398 23.772C86.8718 23.676 86.7158 23.592 86.5718 23.52C86.7878 23.424 87.0038 23.328 87.2198 23.232C87.4598 23.112 87.6758 22.992 87.8678 22.872V18.804H90.2078C90.3038 18.804 90.4118 18.756 90.5318 18.66C90.6758 18.564 90.8198 18.48 90.9638 18.408C90.9158 18.36 90.8918 18.336 90.8918 18.336C90.9158 18.312 90.8798 18.3 90.7838 18.3H87.8678V16.608H90.8198C90.7958 16.584 90.7598 16.572 90.7118 16.572C90.6638 16.572 90.5438 16.572 90.3518 16.572C90.1598 16.572 89.8598 16.584 89.4518 16.608C89.0678 16.608 88.5398 16.62 87.8678 16.644V15.96L88.0838 15.672C88.7078 15.672 89.1998 15.684 89.5598 15.708C89.9198 15.708 90.1838 15.708 90.3518 15.708C90.5438 15.708 90.6638 15.708 90.7118 15.708C90.7598 15.684 90.7958 15.648 90.8198 15.6L90.7478 15.564C90.3398 15.516 89.8598 15.492 89.3078 15.492C88.7798 15.492 88.2998 15.516 87.8678 15.564V15.276H90.8198V14.736H87.8678V1.92H96.5798V11.748H106.12V10.632H114.94V21.54H116.956ZM106.192 21.108H106.048V20.424H106.192V21.108ZM107.992 22.152L107.884 23.628H107.776L107.848 22.152H107.992ZM107.848 22.152L107.668 23.628H107.56L107.704 22.152H107.848ZM107.632 22.152L107.452 23.628H107.344L107.488 22.152H107.632ZM107.416 22.152L107.308 23.628H107.2L107.272 22.152H107.416ZM107.2 22.116C107.152 22.308 107.116 22.56 107.092 22.872C107.092 23.16 107.08 23.412 107.056 23.628C107.056 23.364 107.068 23.1 107.092 22.836C107.116 22.572 107.152 22.332 107.2 22.116ZM107.056 22.152L106.876 23.628H106.768L106.912 22.152H107.056ZM106.768 22.116C106.768 22.332 106.756 22.572 106.732 22.836C106.708 23.076 106.696 23.328 106.696 23.592C106.696 23.376 106.696 23.148 106.696 22.908C106.696 22.644 106.72 22.38 106.768 22.116ZM106.264 22.692H106.12V22.152H106.264V22.692ZM106.624 22.152L106.516 23.628H106.408L106.48 22.152H106.624ZM106.48 22.152L106.3 23.628H106.192L106.336 22.152H106.48ZM109.468 9.444V7.392H108.748V9.444H109.468ZM108.316 9.444V7.392H107.236V9.444H108.316ZM106.048 20.1C106 20.22 105.976 20.34 105.976 20.46C105.976 20.58 105.952 20.7 105.904 20.82C105.856 20.7 105.832 20.592 105.832 20.496C105.832 20.376 105.832 20.256 105.832 20.136C105.832 20.28 105.82 20.448 105.796 20.64C105.772 20.808 105.76 20.952 105.76 21.072C105.76 21 105.784 20.94 105.832 20.892C105.88 20.94 105.904 21.012 105.904 21.108C105.928 20.988 105.94 20.82 105.94 20.604C105.964 20.388 106 20.22 106.048 20.1ZM105.76 20.136H105.616L105.544 21.108H105.652L105.76 20.136ZM105.544 20.1C105.496 20.22 105.472 20.34 105.472 20.46C105.472 20.58 105.448 20.7 105.4 20.82C105.352 20.7 105.328 20.58 105.328 20.46C105.328 20.34 105.328 20.22 105.328 20.1C105.328 20.268 105.316 20.448 105.292 20.64C105.268 20.808 105.256 20.952 105.256 21.072C105.256 21 105.28 20.94 105.328 20.892C105.376 20.94 105.4 21.012 105.4 21.108C105.424 20.988 105.436 20.82 105.436 20.604C105.46 20.388 105.496 20.22 105.544 20.1ZM105.256 20.136H105.112L105.04 21.108H105.148L105.256 20.136ZM105.04 20.1C104.992 20.172 104.968 20.268 104.968 20.388C104.968 20.508 104.944 20.628 104.896 20.748C104.848 20.628 104.824 20.532 104.824 20.46C104.824 20.388 104.824 20.292 104.824 20.172C104.824 20.34 104.8 20.436 104.752 20.46C104.704 20.388 104.68 20.328 104.68 20.28C104.68 20.208 104.68 20.148 104.68 20.1C104.632 20.22 104.608 20.376 104.608 20.568C104.608 20.76 104.608 20.928 104.608 21.072C104.608 20.808 104.632 20.628 104.68 20.532C104.728 20.652 104.752 20.748 104.752 20.82C104.752 20.892 104.752 20.964 104.752 21.036C104.752 20.94 104.776 20.868 104.824 20.82C104.872 20.868 104.896 20.916 104.896 20.964C104.896 21.012 104.896 21.06 104.896 21.108C104.944 20.964 104.968 20.808 104.968 20.64C104.968 20.448 104.992 20.268 105.04 20.1ZM104.572 20.136H104.464L104.32 21.108H104.428L104.572 20.136ZM104.392 20.136H104.248L104.176 21.108H104.284L104.392 20.136ZM100.756 17.004L100.468 16.932V17.04L100.72 17.112L100.756 17.004ZM104.176 20.1C104.128 20.244 104.092 20.412 104.068 20.604C104.068 20.772 104.056 20.916 104.032 21.036C104.08 20.916 104.116 20.772 104.14 20.604C104.164 20.412 104.176 20.244 104.176 20.1ZM100.432 17.112V17.004L100.108 16.932V17.04L100.432 17.112ZM96.4358 19.56H96.1478C96.1718 19.632 96.1958 19.716 96.2198 19.812C96.2678 19.908 96.3278 19.98 96.3998 20.028C96.4478 19.956 96.4598 19.884 96.4358 19.812C96.4358 19.716 96.4358 19.632 96.4358 19.56ZM96.0398 20.028C96.0398 19.908 96.0278 19.812 96.0038 19.74C96.0038 19.668 96.0038 19.608 96.0038 19.56H95.7158C95.7158 19.632 95.7518 19.716 95.8238 19.812C95.8958 19.908 95.9678 19.98 96.0398 20.028ZM95.6798 20.028C95.6798 19.956 95.6678 19.884 95.6438 19.812C95.6438 19.716 95.6438 19.632 95.6438 19.56H95.2838C95.3558 19.656 95.4158 19.752 95.4638 19.848C95.5118 19.92 95.5838 19.98 95.6798 20.028ZM139.051 5.232C138.931 5.184 138.799 5.148 138.655 5.124C138.511 5.1 138.367 5.064 138.223 5.016C138.271 4.608 138.295 4.296 138.295 4.08C138.295 3.864 138.283 3.66 138.259 3.468L139.051 5.232ZM138.115 2.856L134.407 1.74H137.755C137.827 1.884 137.887 2.064 137.935 2.28C138.007 2.496 138.067 2.688 138.115 2.856ZM142.003 13.224H134.191C134.119 12.984 134.035 12.72 133.939 12.432C133.843 12.12 133.759 11.82 133.687 11.532H141.427C141.499 11.796 141.583 12.06 141.679 12.324C141.775 12.588 141.883 12.888 142.003 13.224ZM145.603 22.656H142.399L143.839 18.012L145.603 22.656ZM147.763 28.416H143.443C143.227 28.584 143.083 28.728 143.011 28.848C142.963 28.968 142.927 29.088 142.903 29.208C142.903 29.328 142.915 29.448 142.939 29.568C142.963 29.664 142.963 29.784 142.939 29.928H140.167L141.463 25.68H143.695V25.356H141.607C141.679 25.116 141.751 24.876 141.823 24.636C141.895 24.372 141.967 24.132 142.039 23.916H144.091C144.163 24.132 144.235 24.36 144.307 24.6C144.379 24.84 144.451 25.092 144.523 25.356H146.611L147.763 28.416ZM143.695 17.58L142.075 22.692H138.295C138.223 22.5 138.151 22.308 138.079 22.116C138.007 21.9 137.935 21.696 137.863 21.504H134.983V20.316H131.059C131.059 20.34 131.047 20.352 131.023 20.352C130.975 20.4 130.951 20.424 130.951 20.424C130.903 20.784 130.855 21.144 130.807 21.504C130.783 21.864 130.771 22.224 130.771 22.584C130.771 22.608 130.747 22.632 130.699 22.656C130.651 22.656 130.567 22.656 130.447 22.656C130.327 22.656 130.135 22.668 129.871 22.692C129.631 22.692 129.295 22.704 128.863 22.728H136.819C136.867 22.92 136.915 23.124 136.963 23.34C137.035 23.532 137.107 23.724 137.179 23.916H141.715L141.283 25.284H127.963L126.523 29.928H120.295C120.415 29.664 120.511 29.412 120.583 29.172C120.679 28.932 120.823 28.68 121.015 28.416C120.919 28.296 120.739 28.212 120.475 28.164C120.355 28.452 120.247 28.752 120.151 29.064C120.055 29.376 119.971 29.664 119.899 29.928H117.631L118.567 27.48C118.495 27.432 118.411 27.396 118.315 27.372C118.219 27.348 118.111 27.312 117.991 27.264C117.943 27.072 117.907 26.88 117.883 26.688C117.859 26.496 117.823 26.316 117.775 26.148L119.071 22.188H118.999C118.879 22.476 118.759 22.8 118.639 23.16C118.543 23.52 118.435 23.868 118.315 24.204C118.291 24.204 118.267 24.192 118.243 24.168C118.219 24.168 118.183 24.144 118.135 24.096L119.107 21.612C119.083 21.684 119.059 21.768 119.035 21.864C119.035 21.96 119.059 22.044 119.107 22.116C119.155 22.044 119.179 21.96 119.179 21.864C119.203 21.768 119.239 21.66 119.287 21.54C119.431 21.42 119.611 21.324 119.827 21.252C120.043 21.156 120.235 21.048 120.403 20.928C120.595 20.808 120.751 20.664 120.871 20.496C120.991 20.304 121.039 20.052 121.015 19.74C120.895 19.86 120.751 19.956 120.583 20.028C120.439 20.1 120.295 20.172 120.151 20.244C120.103 19.98 120.223 19.788 120.511 19.668C120.799 19.524 121.015 19.416 121.159 19.344C121.207 19.32 121.219 19.296 121.195 19.272C121.195 19.248 121.183 19.236 121.159 19.236C120.895 19.38 120.631 19.5 120.367 19.596C120.367 19.548 120.379 19.488 120.403 19.416C120.427 19.344 120.439 19.284 120.439 19.236C120.559 19.164 120.703 19.08 120.871 18.984C121.039 18.864 121.171 18.804 121.267 18.804C121.363 18.804 121.399 18.804 121.375 18.804C121.351 18.804 121.363 18.828 121.411 18.876C121.459 18.828 121.471 18.792 121.447 18.768C121.447 18.72 121.447 18.636 121.447 18.516C121.327 18.636 121.183 18.732 121.015 18.804C120.871 18.876 120.727 18.948 120.583 19.02C120.583 18.852 120.631 18.72 120.727 18.624C120.823 18.528 120.931 18.456 121.051 18.408C121.195 18.336 121.315 18.276 121.411 18.228C121.531 18.18 121.615 18.12 121.663 18.048C121.519 18.048 121.375 18.084 121.231 18.156C121.087 18.228 120.943 18.3 120.799 18.372C120.751 18.108 120.859 17.928 121.123 17.832C121.387 17.736 121.639 17.628 121.879 17.508C121.879 17.46 121.855 17.412 121.807 17.364C121.663 17.412 121.519 17.484 121.375 17.58C121.231 17.652 121.087 17.724 120.943 17.796C120.943 17.676 120.991 17.58 121.087 17.508C121.183 17.412 121.279 17.34 121.375 17.292C121.495 17.22 121.603 17.16 121.699 17.112C121.795 17.04 121.867 16.956 121.915 16.86C122.323 15.852 122.695 14.82 123.031 13.764C123.391 12.708 123.739 11.676 124.075 10.668C124.123 10.476 124.183 10.26 124.255 10.02C124.327 9.756 124.423 9.492 124.543 9.228C124.639 9.036 124.735 8.76 124.831 8.4C124.927 8.016 125.047 7.668 125.191 7.356C125.239 7.188 125.287 7.02 125.335 6.852C125.383 6.66 125.431 6.468 125.479 6.276C125.527 6.348 125.575 6.432 125.623 6.528C125.695 6.624 125.755 6.732 125.803 6.852C125.851 6.804 125.863 6.792 125.839 6.816C125.839 6.84 125.839 6.804 125.839 6.708C125.839 6.612 125.791 6.504 125.695 6.384C125.599 6.24 125.551 6.12 125.551 6.024C125.551 5.976 125.575 5.868 125.623 5.7C125.695 5.532 125.767 5.328 125.839 5.088C125.911 4.848 125.983 4.608 126.055 4.368C126.151 4.128 126.223 3.912 126.271 3.72C126.391 3.672 126.511 3.612 126.631 3.54C126.775 3.444 126.895 3.396 126.991 3.396C127.063 3.396 127.123 3.408 127.171 3.432C127.243 3.456 127.351 3.492 127.495 3.54C127.639 3.252 127.759 2.952 127.855 2.64C127.975 2.328 128.095 2.028 128.215 1.74H129.259L128.071 3.72C128.167 3.84 128.311 3.9 128.503 3.9C128.719 3.9 128.851 4.02 128.899 4.26C129.163 3.852 129.403 3.444 129.619 3.036C129.859 2.604 130.111 2.172 130.375 1.74C130.591 1.74 130.819 1.74 131.059 1.74C131.299 1.716 131.515 1.728 131.707 1.776C132.691 2.04 133.663 2.34 134.623 2.676C135.583 3.012 136.555 3.324 137.539 3.612C137.563 3.9 137.551 4.26 137.503 4.692C137.479 5.124 137.443 5.58 137.395 6.06C137.683 6.18 138.055 6.264 138.511 6.312C138.967 6.36 139.315 6.528 139.555 6.816C140.059 7.416 140.395 8.112 140.563 8.904C140.755 9.672 140.995 10.416 141.283 11.136L134.407 11.244C134.311 11.244 134.179 11.244 134.011 11.244C133.867 11.244 133.735 11.232 133.615 11.208C133.471 10.896 133.339 10.572 133.219 10.236C133.123 9.876 133.015 9.516 132.895 9.156C132.679 9.42 132.547 9.756 132.499 10.164C132.451 10.548 132.331 10.908 132.139 11.244H126.883C126.787 11.34 126.739 11.424 126.739 11.496H132.067C131.995 11.76 131.923 12.048 131.851 12.36C131.779 12.648 131.707 12.948 131.635 13.26H126.091C126.091 13.356 126.115 13.428 126.163 13.476H131.491L129.763 19.164H135.919L134.263 13.476H142.147L143.695 17.58ZM134.803 20.892C134.755 21.084 134.719 21.3 134.695 21.54C134.695 21.756 134.671 21.972 134.623 22.188C134.671 21.972 134.683 21.732 134.659 21.468C134.635 21.204 134.683 21.012 134.803 20.892ZM134.551 20.892L134.407 22.152H134.299L134.443 20.892H134.551ZM134.299 20.892C134.299 21.084 134.275 21.3 134.227 21.54C134.203 21.756 134.167 21.972 134.119 22.188C134.119 21.972 134.131 21.756 134.155 21.54C134.203 21.3 134.251 21.084 134.299 20.892ZM134.083 20.892C134.035 21.084 133.999 21.3 133.975 21.54C133.975 21.756 133.951 21.972 133.903 22.188C133.951 21.972 133.963 21.732 133.939 21.468C133.915 21.204 133.963 21.012 134.083 20.892ZM133.759 22.152H133.651V20.892H133.759V22.152ZM133.615 20.892L133.471 22.152H133.363L133.507 20.892H133.615ZM141.139 25.716L139.843 29.964H139.231L138.007 25.716H141.139ZM133.255 20.892C133.303 21.036 133.315 21.24 133.291 21.504C133.267 21.744 133.231 21.972 133.183 22.188C133.183 21.996 133.183 21.792 133.183 21.576C133.183 21.336 133.207 21.108 133.255 20.892ZM133.147 20.892C133.099 21.108 133.051 21.336 133.003 21.576C132.979 21.792 132.943 21.996 132.895 22.188V21.792C132.895 21.696 132.919 21.552 132.967 21.36C133.015 21.168 133.075 21.012 133.147 20.892ZM132.895 20.892L132.751 22.152H132.643L132.787 20.892H132.895ZM132.643 20.892C132.619 21.108 132.595 21.348 132.571 21.612C132.571 21.876 132.511 22.032 132.391 22.08C132.439 21.888 132.475 21.696 132.499 21.504C132.547 21.288 132.595 21.084 132.643 20.892ZM132.427 20.892C132.379 21.084 132.343 21.3 132.319 21.54C132.319 21.756 132.295 21.972 132.247 22.188C132.295 21.948 132.295 21.708 132.247 21.468C132.223 21.228 132.283 21.036 132.427 20.892ZM132.175 20.892L132.031 22.152H131.923L132.067 20.892H132.175ZM131.923 20.892C131.923 21.084 131.899 21.3 131.851 21.54C131.827 21.756 131.791 21.972 131.743 22.188C131.743 21.972 131.755 21.756 131.779 21.54C131.827 21.3 131.875 21.084 131.923 20.892ZM131.707 20.892C131.659 21.06 131.623 21.276 131.599 21.54C131.599 21.78 131.575 21.996 131.527 22.188C131.575 21.972 131.587 21.732 131.563 21.468C131.539 21.204 131.587 21.012 131.707 20.892ZM131.419 20.892C131.419 21.084 131.395 21.3 131.347 21.54C131.323 21.756 131.287 21.972 131.239 22.188C131.239 21.996 131.251 21.792 131.275 21.576C131.323 21.336 131.371 21.108 131.419 20.892ZM125.767 7.032V6.852H125.659V7.032H125.767ZM125.695 7.248V7.068H125.587V7.248H125.695ZM125.623 7.464V7.284H125.515V7.464H125.623ZM125.551 7.68V7.5H125.443V7.68H125.551ZM125.479 7.896V7.716H125.371V7.896H125.479ZM125.335 8.004C125.311 8.028 125.299 8.04 125.299 8.04C125.275 8.04 125.263 8.028 125.263 8.004C125.215 8.004 125.191 8.064 125.191 8.184C125.191 8.304 125.179 8.388 125.155 8.436C124.987 8.916 124.831 9.384 124.687 9.84C124.543 10.296 124.375 10.764 124.183 11.244C124.111 11.172 124.075 11.076 124.075 10.956C123.907 11.292 123.823 11.556 123.823 11.748C124.039 11.652 124.171 11.568 124.219 11.496C124.411 10.92 124.603 10.344 124.795 9.768C124.987 9.168 125.167 8.58 125.335 8.004ZM123.139 16.212C123.091 16.212 123.031 16.2 122.959 16.176C122.911 16.152 122.863 16.14 122.815 16.14L119.935 24.528C120.199 24.6 120.463 24.696 120.727 24.816C120.991 24.912 121.267 24.996 121.555 25.068L122.275 22.764C122.131 22.716 121.951 22.668 121.735 22.62C121.519 22.572 121.399 22.488 121.375 22.368L123.139 16.212ZM180.277 1.704L170.053 12.36L171.781 15.312H150.865V14.376C150.913 14.376 150.997 14.352 151.117 14.304C151.261 14.232 151.369 14.196 151.441 14.196L151.585 14.268C151.585 14.22 151.621 14.16 151.693 14.088C151.597 14.04 151.501 14.016 151.405 14.016C151.477 14.016 151.585 14.028 151.729 14.052C151.873 14.076 151.981 13.992 152.053 13.8V6.06C152.053 5.892 152.041 5.7 152.017 5.484C151.993 5.268 151.957 5.052 151.909 4.836C151.861 4.62 151.801 4.44 151.729 4.296C151.681 4.128 151.633 4.032 151.585 4.008C151.465 3.984 151.345 3.972 151.225 3.972C151.105 3.948 150.985 3.936 150.865 3.936C150.985 3.936 151.093 3.936 151.189 3.936C151.309 3.936 151.429 3.912 151.549 3.864C151.429 3.816 151.309 3.804 151.189 3.828C151.093 3.828 150.985 3.828 150.865 3.828V1.704H159.613V12.324C160.453 11.22 161.233 10.14 161.953 9.084C162.697 8.004 163.561 6.864 164.545 5.664C164.593 5.616 164.701 5.568 164.869 5.52C165.061 5.472 165.217 5.388 165.337 5.268C165.577 5.076 165.805 4.848 166.021 4.584C166.237 4.32 166.477 4.056 166.741 3.792L166.885 3.756C167.149 3.42 167.437 3.084 167.749 2.748C168.061 2.388 168.385 2.04 168.721 1.704H180.277ZM180.709 29.892H170.017L166.957 24.024H170.773C170.845 24.264 170.905 24.516 170.953 24.78C171.025 25.044 171.085 25.308 171.133 25.572H178.117L180.709 29.892ZM175.957 22.044H165.985L164.761 19.668C164.713 19.86 164.677 20.076 164.653 20.316C164.653 20.556 164.629 20.796 164.581 21.036H163.393V18.948C163.345 18.996 163.297 19.032 163.249 19.056C163.225 19.056 163.213 19.104 163.213 19.2V21.036C162.925 21.036 162.625 21.024 162.313 21C162.001 20.952 161.725 20.976 161.485 21.072C161.293 21.12 161.125 21.252 160.981 21.468C160.837 21.66 160.669 21.852 160.477 22.044H150.829V17.112C150.637 17.064 150.421 17.052 150.181 17.076C149.941 17.076 149.701 17.088 149.461 17.112V16.752C149.557 16.728 149.677 16.728 149.821 16.752C149.989 16.752 150.145 16.752 150.289 16.752C150.433 16.752 150.565 16.74 150.685 16.716C150.805 16.668 150.865 16.572 150.865 16.428H172.429L175.957 22.044ZM165.517 22.584H157.849V22.476H165.517V22.584ZM150.757 21.036H150.613V17.544H150.757V21.036ZM150.577 21.036H150.433V17.544H150.577V21.036ZM150.397 21.036H150.253V17.544H150.397V21.036ZM150.181 21.036H150.037V17.544H150.181V21.036ZM149.965 21.036H149.821V17.544H149.965V21.036ZM149.785 21.036H149.641V17.544H149.785V21.036ZM149.605 21.036H149.461V17.544H149.605V21.036ZM160.765 23.412H159.577V29.892H150.865V23.412H149.497V23.088C149.617 23.208 149.797 23.256 150.037 23.232C150.301 23.184 150.529 23.172 150.721 23.196C150.817 23.196 150.865 23.148 150.865 23.052H159.361C159.457 23.052 159.505 23.064 159.505 23.088C159.529 23.112 159.565 23.148 159.613 23.196C159.733 23.22 159.925 23.232 160.189 23.232C160.453 23.208 160.645 23.268 160.765 23.412ZM170.773 25.284C170.725 25.068 170.689 24.876 170.665 24.708C170.641 24.54 170.605 24.408 170.557 24.312H170.197C170.245 24.456 170.293 24.624 170.341 24.816C170.389 25.008 170.449 25.164 170.521 25.284H170.773ZM170.197 25.284C170.149 25.14 170.101 24.972 170.053 24.78C170.005 24.588 169.957 24.432 169.909 24.312H169.477C169.525 24.504 169.573 24.684 169.621 24.852C169.693 25.02 169.753 25.164 169.801 25.284H170.197ZM169.549 25.284C169.501 25.14 169.453 24.972 169.405 24.78C169.381 24.588 169.333 24.432 169.261 24.312H168.901V24.528C168.901 24.624 168.937 24.744 169.009 24.888C169.081 25.032 169.153 25.164 169.225 25.284H169.549ZM210.459 30.108H201.675V24.312H205.527C205.575 24.528 205.611 24.744 205.635 24.96C205.683 25.152 205.743 25.368 205.815 25.608H210.459V27.336H205.923V27.732H210.459V30.108ZM210.459 7.356H207.795V9.444H210.459V10.164H201.675V9.48H202.107V7.428C202.059 7.38 201.987 7.356 201.891 7.356C201.819 7.356 201.747 7.356 201.675 7.356V1.92H210.459V7.356ZM202.683 15.672L201.783 16.572H198.435C198.483 16.428 198.531 16.284 198.579 16.14C198.627 15.972 198.675 15.816 198.723 15.672H202.683ZM212.475 21.54C212.259 22.188 212.079 22.86 211.935 23.556H210.495C210.423 23.748 210.411 23.964 210.459 24.204H206.715C206.715 24.156 206.703 24.108 206.679 24.06C206.679 23.988 206.643 23.916 206.571 23.844H203.907V23.556H206.499H206.535V23.52C206.559 23.496 206.571 23.472 206.571 23.448C206.571 23.04 206.367 22.836 205.959 22.836H203.979C203.979 22.764 203.979 22.692 203.979 22.62C204.003 22.524 203.991 22.452 203.943 22.404C203.799 22.548 203.751 22.74 203.799 22.98C203.847 23.22 203.823 23.436 203.727 23.628V22.404C203.679 22.596 203.643 22.788 203.619 22.98C203.595 23.172 203.559 23.364 203.511 23.556C203.559 23.196 203.583 22.836 203.583 22.476C203.607 22.116 203.571 21.804 203.475 21.54H199.155C199.203 21.252 199.239 20.952 199.263 20.64C199.287 20.304 199.323 19.992 199.371 19.704H201.675V18.732H197.715L198.219 17.148H200.955C201.027 17.076 201.111 17.004 201.207 16.932C201.327 16.836 201.423 16.776 201.495 16.752C201.543 16.728 201.603 16.728 201.675 16.752C201.771 16.776 201.843 16.764 201.891 16.716C202.083 16.572 202.275 16.404 202.467 16.212C202.683 15.996 202.899 15.768 203.115 15.528H198.795C198.843 15.408 198.879 15.276 198.903 15.132C198.951 14.988 199.011 14.844 199.083 14.7H186.807L186.771 14.772V15.168C186.819 15.216 186.843 15.252 186.843 15.276C186.867 15.276 186.927 15.276 187.023 15.276L198.471 15.24C198.495 15.288 198.483 15.348 198.435 15.42C198.387 15.468 198.327 15.492 198.255 15.492L186.735 15.564C186.735 15.66 186.807 15.708 186.951 15.708L198.363 15.672C198.267 16.008 198.159 16.308 198.039 16.572L186.771 16.716H193.863C193.911 16.716 193.959 16.74 194.007 16.788C194.079 16.836 194.151 16.86 194.223 16.86H196.671C196.815 17.124 197.007 17.232 197.247 17.184C197.511 17.136 197.715 17.136 197.859 17.184C197.811 17.376 197.751 17.568 197.679 17.76C197.607 17.928 197.535 18.108 197.463 18.3H186.807C186.759 18.348 186.747 18.396 186.771 18.444C186.819 18.468 186.867 18.48 186.915 18.48C186.843 18.528 186.759 18.576 186.663 18.624C186.567 18.648 186.459 18.696 186.339 18.768C186.363 18.792 186.399 18.804 186.447 18.804C186.495 18.804 186.603 18.804 186.771 18.804C186.963 18.804 187.239 18.804 187.599 18.804C187.959 18.804 188.463 18.804 189.111 18.804C189.159 18.876 189.195 18.96 189.219 19.056C189.243 19.152 189.279 19.248 189.327 19.344H192.063V30.108H183.387V27.444L182.091 26.76C182.235 26.688 182.391 26.616 182.559 26.544C182.727 26.472 182.907 26.376 183.099 26.256C182.955 26.136 182.799 26.04 182.631 25.968C182.463 25.896 182.283 25.8 182.091 25.68L183.099 25.176C182.955 25.056 182.799 24.96 182.631 24.888C182.463 24.816 182.283 24.72 182.091 24.6C182.235 24.528 182.379 24.456 182.523 24.384C182.667 24.312 182.859 24.216 183.099 24.096C182.907 23.976 182.727 23.868 182.559 23.772C182.391 23.676 182.235 23.592 182.091 23.52C182.307 23.424 182.523 23.328 182.739 23.232C182.979 23.112 183.195 22.992 183.387 22.872V18.804H185.727C185.823 18.804 185.931 18.756 186.051 18.66C186.195 18.564 186.339 18.48 186.483 18.408C186.435 18.36 186.411 18.336 186.411 18.336C186.435 18.312 186.399 18.3 186.303 18.3H183.387V16.608H186.339C186.315 16.584 186.279 16.572 186.231 16.572C186.183 16.572 186.063 16.572 185.871 16.572C185.679 16.572 185.379 16.584 184.971 16.608C184.587 16.608 184.059 16.62 183.387 16.644V15.96L183.603 15.672C184.227 15.672 184.719 15.684 185.079 15.708C185.439 15.708 185.703 15.708 185.871 15.708C186.063 15.708 186.183 15.708 186.231 15.708C186.279 15.684 186.315 15.648 186.339 15.6L186.267 15.564C185.859 15.516 185.379 15.492 184.827 15.492C184.299 15.492 183.819 15.516 183.387 15.564V15.276H186.339V14.736H183.387V1.92H192.099V11.748H201.639V10.632H210.459V21.54H212.475ZM201.711 21.108H201.567V20.424H201.711V21.108ZM203.511 22.152L203.403 23.628H203.295L203.367 22.152H203.511ZM203.367 22.152L203.187 23.628H203.079L203.223 22.152H203.367ZM203.151 22.152L202.971 23.628H202.863L203.007 22.152H203.151ZM202.935 22.152L202.827 23.628H202.719L202.791 22.152H202.935ZM202.719 22.116C202.671 22.308 202.635 22.56 202.611 22.872C202.611 23.16 202.599 23.412 202.575 23.628C202.575 23.364 202.587 23.1 202.611 22.836C202.635 22.572 202.671 22.332 202.719 22.116ZM202.575 22.152L202.395 23.628H202.287L202.431 22.152H202.575ZM202.287 22.116C202.287 22.332 202.275 22.572 202.251 22.836C202.227 23.076 202.215 23.328 202.215 23.592C202.215 23.376 202.215 23.148 202.215 22.908C202.215 22.644 202.239 22.38 202.287 22.116ZM201.783 22.692H201.639V22.152H201.783V22.692ZM202.143 22.152L202.035 23.628H201.927L201.999 22.152H202.143ZM201.999 22.152L201.819 23.628H201.711L201.855 22.152H201.999ZM204.987 9.444V7.392H204.267V9.444H204.987ZM203.835 9.444V7.392H202.755V9.444H203.835ZM201.567 20.1C201.519 20.22 201.495 20.34 201.495 20.46C201.495 20.58 201.471 20.7 201.423 20.82C201.375 20.7 201.351 20.592 201.351 20.496C201.351 20.376 201.351 20.256 201.351 20.136C201.351 20.28 201.339 20.448 201.315 20.64C201.291 20.808 201.279 20.952 201.279 21.072C201.279 21 201.303 20.94 201.351 20.892C201.399 20.94 201.423 21.012 201.423 21.108C201.447 20.988 201.459 20.82 201.459 20.604C201.483 20.388 201.519 20.22 201.567 20.1ZM201.279 20.136H201.135L201.063 21.108H201.171L201.279 20.136ZM201.063 20.1C201.015 20.22 200.991 20.34 200.991 20.46C200.991 20.58 200.967 20.7 200.919 20.82C200.871 20.7 200.847 20.58 200.847 20.46C200.847 20.34 200.847 20.22 200.847 20.1C200.847 20.268 200.835 20.448 200.811 20.64C200.787 20.808 200.775 20.952 200.775 21.072C200.775 21 200.799 20.94 200.847 20.892C200.895 20.94 200.919 21.012 200.919 21.108C200.943 20.988 200.955 20.82 200.955 20.604C200.979 20.388 201.015 20.22 201.063 20.1ZM200.775 20.136H200.631L200.559 21.108H200.667L200.775 20.136ZM200.559 20.1C200.511 20.172 200.487 20.268 200.487 20.388C200.487 20.508 200.463 20.628 200.415 20.748C200.367 20.628 200.343 20.532 200.343 20.46C200.343 20.388 200.343 20.292 200.343 20.172C200.343 20.34 200.319 20.436 200.271 20.46C200.223 20.388 200.199 20.328 200.199 20.28C200.199 20.208 200.199 20.148 200.199 20.1C200.151 20.22 200.127 20.376 200.127 20.568C200.127 20.76 200.127 20.928 200.127 21.072C200.127 20.808 200.151 20.628 200.199 20.532C200.247 20.652 200.271 20.748 200.271 20.82C200.271 20.892 200.271 20.964 200.271 21.036C200.271 20.94 200.295 20.868 200.343 20.82C200.391 20.868 200.415 20.916 200.415 20.964C200.415 21.012 200.415 21.06 200.415 21.108C200.463 20.964 200.487 20.808 200.487 20.64C200.487 20.448 200.511 20.268 200.559 20.1ZM200.091 20.136H199.983L199.839 21.108H199.947L200.091 20.136ZM199.911 20.136H199.767L199.695 21.108H199.803L199.911 20.136ZM196.275 17.004L195.987 16.932V17.04L196.239 17.112L196.275 17.004ZM199.695 20.1C199.647 20.244 199.611 20.412 199.587 20.604C199.587 20.772 199.575 20.916 199.551 21.036C199.599 20.916 199.635 20.772 199.659 20.604C199.683 20.412 199.695 20.244 199.695 20.1ZM195.951 17.112V17.004L195.627 16.932V17.04L195.951 17.112ZM191.955 19.56H191.667C191.691 19.632 191.715 19.716 191.739 19.812C191.787 19.908 191.847 19.98 191.919 20.028C191.967 19.956 191.979 19.884 191.955 19.812C191.955 19.716 191.955 19.632 191.955 19.56ZM191.559 20.028C191.559 19.908 191.547 19.812 191.523 19.74C191.523 19.668 191.523 19.608 191.523 19.56H191.235C191.235 19.632 191.271 19.716 191.343 19.812C191.415 19.908 191.487 19.98 191.559 20.028ZM191.199 20.028C191.199 19.956 191.187 19.884 191.163 19.812C191.163 19.716 191.163 19.632 191.163 19.56H190.803C190.875 19.656 190.935 19.752 190.983 19.848C191.031 19.92 191.103 19.98 191.199 20.028ZM224.892 17.724L224.532 21.288H222.228C222.252 21.312 222.288 21.324 222.336 21.324C222.384 21.324 222.492 21.324 222.66 21.324C222.852 21.3 223.116 21.288 223.452 21.288C223.788 21.264 224.268 21.252 224.892 21.252V29.784H216.144V26.256C215.928 26.448 215.712 26.664 215.496 26.904C215.28 27.12 215.064 27.336 214.848 27.552C214.848 27.288 214.812 27 214.74 26.688C214.692 26.376 214.728 26.124 214.848 25.932C214.968 25.668 215.148 25.428 215.388 25.212C215.652 24.996 215.916 24.756 216.18 24.492L216.144 23.736L214.848 25.104C214.848 24.84 214.812 24.552 214.74 24.24C214.692 23.928 214.728 23.676 214.848 23.484C214.992 23.172 215.196 22.908 215.46 22.692C215.724 22.476 215.964 22.236 216.18 21.972L216.144 21.288L214.848 22.656C214.848 22.392 214.824 22.104 214.776 21.792C214.728 21.48 214.752 21.228 214.848 21.036C214.968 20.724 215.16 20.46 215.424 20.244C215.712 20.028 215.964 19.788 216.18 19.524L216.144 18.84L214.848 20.208C214.848 19.944 214.824 19.656 214.776 19.344C214.728 19.032 214.752 18.78 214.848 18.588C214.968 18.276 215.16 18.012 215.424 17.796C215.712 17.58 215.964 17.34 216.18 17.076L216.144 16.392L214.848 17.76C214.848 17.496 214.812 17.22 214.74 16.932C214.692 16.62 214.728 16.332 214.848 16.068C214.968 15.78 215.16 15.54 215.424 15.348C215.712 15.132 215.964 14.892 216.18 14.628L216.144 13.944C215.952 14.136 215.736 14.352 215.496 14.592C215.28 14.808 215.064 15.048 214.848 15.312C214.848 15.048 214.812 14.772 214.74 14.484C214.692 14.172 214.728 13.884 214.848 13.62C214.968 13.332 215.148 13.092 215.388 12.9C215.652 12.684 215.916 12.444 216.18 12.18L216.144 11.496C215.952 11.688 215.736 11.904 215.496 12.144C215.28 12.36 215.064 12.6 214.848 12.864C214.848 12.6 214.812 12.324 214.74 12.036C214.692 11.724 214.728 11.436 214.848 11.172C214.896 11.052 215.076 10.848 215.388 10.56C215.7 10.272 215.964 9.996 216.18 9.732C216.228 9.684 216.24 9.6 216.216 9.48C216.192 9.36 216.192 9.24 216.216 9.12C216.48 9.192 216.696 9.132 216.864 8.94C217.056 8.748 217.284 8.532 217.548 8.292L217.512 7.536L214.848 10.344C214.848 10.08 214.812 9.792 214.74 9.48C214.692 9.168 214.728 8.916 214.848 8.724C214.992 8.412 215.208 8.136 215.496 7.896C215.784 7.656 216.06 7.404 216.324 7.14C216.276 7.092 216.24 7.02 216.216 6.924C216.216 6.804 216.192 6.672 216.144 6.528L214.848 7.896C214.848 7.632 214.836 7.356 214.812 7.068C214.812 6.78 214.824 6.516 214.848 6.276C214.848 6.276 214.92 6.204 215.064 6.06C215.208 5.916 215.352 5.748 215.496 5.556C215.664 5.364 215.82 5.184 215.964 5.016C216.108 4.824 216.18 4.692 216.18 4.62V1.56H224.892V7.032H224.532C224.46 7.2 224.436 7.404 224.46 7.644C224.508 7.884 224.556 8.112 224.604 8.328C224.676 8.544 224.736 8.736 224.784 8.904C224.856 9.072 224.892 9.156 224.892 9.156V9.84H217.656L217.26 10.236H224.892V17.724ZM224.604 9.12C224.532 8.592 224.472 8.184 224.424 7.896C224.4 7.608 224.364 7.32 224.316 7.032H223.596L223.956 9.12H224.604ZM223.812 9.12L223.452 7.032H222.804C222.852 7.392 222.9 7.752 222.948 8.112C222.996 8.448 223.044 8.784 223.092 9.12H223.812ZM222.948 9.12L222.66 7.032H221.94L222.3 9.12H222.948ZM222.156 9.12L221.796 7.032H221.148C221.22 7.464 221.268 7.848 221.292 8.184C221.34 8.52 221.388 8.832 221.436 9.12H222.156ZM221.292 9.12C221.22 8.592 221.16 8.184 221.112 7.896C221.088 7.608 221.052 7.32 221.004 7.032H220.284L220.644 9.12H221.292ZM220.5 9.12L220.14 7.032H219.492C219.564 7.464 219.612 7.848 219.636 8.184C219.684 8.52 219.732 8.832 219.78 9.12H220.5ZM219.636 9.12C219.564 8.712 219.504 8.34 219.456 8.004C219.432 7.644 219.396 7.32 219.348 7.032H218.628L218.988 9.12H219.636ZM229.538 12.18C229.562 12.276 229.526 12.372 229.43 12.468C229.358 12.564 229.286 12.648 229.214 12.72V11.856C229.31 11.952 229.382 12 229.43 12C229.382 11.664 229.382 11.328 229.43 10.992C229.502 10.656 229.538 10.284 229.538 9.876V12.18ZM229.178 18.84C229.058 18.96 228.89 19.128 228.674 19.344C228.482 19.536 228.422 19.728 228.494 19.92C228.71 19.776 228.89 19.608 229.034 19.416C229.178 19.224 229.226 19.032 229.178 18.84ZM229.178 19.488C229.01 19.704 228.842 19.86 228.674 19.956C228.506 20.028 228.446 20.232 228.494 20.568C228.662 20.424 228.842 20.256 229.034 20.064C229.226 19.872 229.274 19.68 229.178 19.488ZM252.29 30.108H229.934V29.244C229.766 29.196 229.574 29.184 229.358 29.208C229.166 29.208 228.986 29.196 228.818 29.172C228.722 29.052 228.59 28.872 228.422 28.632C228.278 28.392 228.206 28.224 228.206 28.128V23.304C228.398 23.112 228.578 22.92 228.746 22.728C228.914 22.512 229.094 22.272 229.286 22.008L229.214 21.144C229.142 21.216 229.034 21.324 228.89 21.468C228.77 21.588 228.638 21.696 228.494 21.792V21.468C228.494 21.372 228.59 21.24 228.782 21.072C228.998 20.904 229.166 20.748 229.286 20.604V20.568C229.286 20.544 229.274 20.52 229.25 20.496C229.178 20.616 229.07 20.736 228.926 20.856C228.782 20.952 228.638 21.072 228.494 21.216C228.422 20.952 228.47 20.76 228.638 20.64C228.806 20.496 228.986 20.328 229.178 20.136C229.178 20.184 229.166 20.22 229.142 20.244C229.142 20.268 229.166 20.304 229.214 20.352V14.16V18.516C229.166 18.636 229.07 18.756 228.926 18.876C228.782 18.996 228.638 19.092 228.494 19.164V18.84C228.614 18.744 228.734 18.624 228.854 18.48C228.974 18.336 229.07 18.192 229.142 18.048L229.07 9.408L229.25 9.552H229.286C229.31 9.552 229.334 9.54 229.358 9.516C229.286 9.42 229.214 9.348 229.142 9.3C229.094 9.252 229.046 9.192 228.998 9.12C229.094 9.216 229.19 9.24 229.286 9.192L228.998 8.904L229.178 9.048H229.214C229.238 9.048 229.262 9.036 229.286 9.012L228.998 8.688L229.178 8.832H229.214C229.238 8.832 229.262 8.82 229.286 8.796L228.998 8.472L229.178 8.616H229.214C229.238 8.616 229.262 8.604 229.286 8.58L228.998 8.292V6.96C229.166 7.056 229.262 7.164 229.286 7.284C229.334 7.404 229.358 7.536 229.358 7.68C229.358 7.8 229.346 7.932 229.322 8.076C229.322 8.196 229.358 8.304 229.43 8.4C229.478 8.304 229.502 8.208 229.502 8.112C229.502 7.992 229.502 7.884 229.502 7.788C229.502 7.572 229.49 7.44 229.466 7.392C229.442 7.32 229.406 7.272 229.358 7.248C229.334 7.2 229.286 7.152 229.214 7.104C229.166 7.032 229.094 6.9 228.998 6.708C228.926 6.588 228.878 6.432 228.854 6.24C228.854 6.048 228.854 5.856 228.854 5.664C228.878 5.472 228.89 5.304 228.89 5.16C228.914 5.016 228.926 4.92 228.926 4.872C228.926 4.608 228.95 4.368 228.998 4.152C229.046 3.912 229.334 3.768 229.862 3.72C229.934 3.12 229.934 2.52 229.862 1.92H238.682V3.9H235.658C235.514 4.452 235.394 5.016 235.298 5.592C235.226 6.144 235.13 6.72 235.01 7.32H232.274V7.86H238.682V8.76C238.802 8.808 238.922 8.832 239.042 8.832C239.186 8.832 239.402 8.808 239.69 8.76V14.016L239.654 10.596C239.51 10.548 239.354 10.536 239.186 10.56C239.042 10.584 238.898 10.596 238.754 10.596V20.856L239.51 20.928V17.688C239.534 18.624 239.534 19.536 239.51 20.424C239.51 21.288 239.45 22.176 239.33 23.088C239.33 23.112 239.342 23.136 239.366 23.16C239.414 23.208 239.462 23.232 239.51 23.232H252.29V30.108ZM239.654 17.436H239.546V14.16H239.654V17.436ZM228.062 23.52L227.99 26.148H227.882L227.954 23.52H228.062ZM242.138 26.4C241.49 26.4 240.974 26.4 240.59 26.4C240.23 26.4 239.954 26.4 239.762 26.4C239.57 26.4 239.45 26.412 239.402 26.436C239.354 26.436 239.318 26.448 239.294 26.472C239.294 26.592 239.294 26.7 239.294 26.796C239.294 26.892 239.27 27 239.222 27.12H238.466C238.418 27 238.394 26.892 238.394 26.796C238.394 26.7 238.394 26.616 238.394 26.544C238.346 26.544 238.286 26.532 238.214 26.508C238.142 26.484 238.106 26.448 238.106 26.4H232.994C232.922 26.208 232.85 26.016 232.778 25.824C232.73 25.632 232.682 25.44 232.634 25.248H232.31V25.608C232.31 25.704 232.334 25.788 232.382 25.86C232.43 25.932 232.466 26.004 232.49 26.076C232.514 26.34 232.526 26.604 232.526 26.868C232.526 27.108 232.526 27.36 232.526 27.624H237.782C237.83 27.888 237.878 28.152 237.926 28.416C237.974 28.68 238.022 28.908 238.07 29.1H241.49C241.634 28.164 241.85 27.264 242.138 26.4ZM237.386 29.46V29.136H232.238L232.166 29.46H237.386Z"
              fill="#d9d9d9"
            />
          </g>
        </svg>