<svg  viewBox="0 0 80 80" fill="none" xmlns="http://www.w3.org/2000/svg">
<path d="M41.0833 39.925C41.2208 39.875 41.3667 39.8375 41.5125 39.7958C41.1429 38.9763 40.7553 38.165 40.35 37.3625C32.5167 39.6833 25.0167 39.7042 23.6792 39.6833C23.6667 39.7875 23.6667 39.8958 23.6667 40C23.6667 43.9375 25.0833 47.7208 27.6583 50.6917C28.5167 49.3083 33.0667 42.5208 41.0833 39.925ZM30.0958 52.9708C32.3621 54.7076 35.0447 55.8187 37.8753 56.1931C40.7059 56.5675 43.5851 56.192 46.225 55.1042C45.4596 50.9493 44.3131 46.8737 42.8 42.9292C33.9625 46.0542 30.625 51.9375 30.0958 52.9708V52.9708ZM50.6458 27.6125C48.7199 25.9582 46.4349 24.7756 43.9721 24.1586C41.5094 23.5417 38.9367 23.5073 36.4583 24.0583C38.6329 27.0127 40.6107 30.1069 42.3792 33.3208C47.725 31.2667 50.1417 28.3042 50.6458 27.6125V27.6125ZM38.7708 34.4333C36.9749 31.2842 35.0067 28.2365 32.875 25.3042C30.6743 26.3765 28.7413 27.9277 27.2179 29.844C25.6945 31.7603 24.6192 33.9933 24.0708 36.3792H24.1417C25.8333 36.3792 31.8458 36.2417 38.7708 34.4333ZM46.3083 42.0667C48.2458 47.4542 49.1375 51.9292 49.3917 53.3625C52.9427 50.8589 55.3541 47.0477 56.0958 42.7667C53.9381 42.1539 51.7056 41.844 49.4625 41.8458C48.3875 41.8458 47.325 41.9208 46.3083 42.0667V42.0667ZM40 0C17.9083 0 0 17.9083 0 40C0 62.0917 17.9083 80 40 80C62.0917 80 80 62.0917 80 40C80 17.9083 62.0917 0 40 0ZM40 59.5708C34.8101 59.5664 29.8339 57.5033 26.1633 53.8343C22.4926 50.1653 20.4275 45.1899 20.4208 40C20.4252 34.8086 22.4895 29.8312 26.1603 26.1603C29.8312 22.4895 34.8086 20.4252 40 20.4208C45.1903 20.4275 50.1661 22.4925 53.8358 26.163C57.5055 29.8335 59.5695 34.8097 59.575 40C59.5695 45.1895 57.5052 50.1649 53.8353 53.834C50.1653 57.5032 45.1895 59.5664 40 59.5708ZM43.8417 36.1417C44.2042 36.8917 44.5417 37.6292 44.85 38.3542L45.1458 39.0625C46.3 38.925 47.5333 38.8583 48.8208 38.8583C51.3391 38.8634 53.8513 39.1033 56.325 39.575C56.2299 36.0261 54.984 32.6042 52.775 29.825C52.1083 30.6833 49.3667 33.8375 43.8417 36.1417V36.1417Z" fill="#F7F7F7"/>
</svg>
