<svg width="81" height="80" viewBox="0 0 81 80" fill="none" xmlns="http://www.w3.org/2000/svg">
<path fill-rule="evenodd" clip-rule="evenodd" d="M40.6665 80C62.7579 80 80.6665 62.0914 80.6665 40C80.6665 17.9086 62.7579 -3.27136e-06 40.6665 -3.27136e-06C18.5752 -3.27136e-06 0.66655 17.9086 0.66655 40C0.66655 62.0914 18.5752 80 40.6665 80ZM33.1655 64.4804C33.1655 65.2878 32.603 66.2106 31.103 65.9414C34.2405 69.1539 42.443 73.6514 50.153 65.9414C48.653 66.249 48.0905 65.2878 48.0905 64.4804C48.0905 64.1333 48.0947 63.5326 48.1003 62.7328C48.1114 61.1408 48.128 58.7602 48.128 56.0218C48.128 53.1381 47.1905 51.2926 46.103 50.3314C52.778 49.5624 59.7905 46.9479 59.7905 35.1442C59.7905 31.7608 58.628 29.0309 56.7155 26.8778C57.0155 26.1088 58.0655 22.9561 56.4155 18.7267C56.4155 18.7267 53.903 17.8809 48.1655 21.8795C45.7655 21.1874 43.2155 20.8414 40.6655 20.8414C38.1155 20.8414 35.5655 21.1874 33.1655 21.8795C27.428 17.9193 24.9155 18.7267 24.9155 18.7267C23.2655 22.9561 24.3155 26.1088 24.6155 26.8778C22.703 29.0309 21.5405 31.7992 21.5405 35.1442C21.5405 46.9095 28.5155 49.5624 35.1905 50.3314C34.328 51.1004 33.5405 52.4461 33.278 54.4454C31.553 55.2528 27.2405 56.5601 24.5405 51.9078C23.978 50.985 22.2905 48.7166 19.928 48.755C17.4155 48.7935 18.9155 50.2161 19.9655 50.7928C21.2405 51.5233 22.703 54.2532 23.0405 55.1375C23.6405 56.8677 25.5905 60.1742 33.128 58.7516C33.128 60.4325 33.144 62.0479 33.1551 63.1706C33.161 63.7684 33.1655 64.2265 33.1655 64.4804Z" fill="#F7F7F7"/>
</svg>
