<svg width="81" height="80" viewBox="0 0 81 80" fill="none" xmlns="http://www.w3.org/2000/svg">
<path fill-rule="evenodd" clip-rule="evenodd" d="M40.3333 0C18.2419 0 0.333252 17.9086 0.333252 40C0.333252 62.0914 18.2419 80 40.3333 80C62.4246 80 80.3333 62.0914 80.3333 40C80.3333 17.9086 62.4246 0 40.3333 0ZM16.9999 26C16.9999 23.41 19.0766 21.3333 21.6666 21.3333H58.9999C60.2376 21.3333 61.4246 21.825 62.2998 22.7002C63.1749 23.5753 63.6666 24.7623 63.6666 26V54C63.6666 55.2377 63.1749 56.4247 62.2998 57.2998C61.4246 58.175 60.2376 58.6667 58.9999 58.6667H21.6666C20.4289 58.6667 19.2419 58.175 18.3668 57.2998C17.4916 56.4247 16.9999 55.2377 16.9999 54V26ZM58.9999 54H54.3333V33.5833L40.3333 42.3333L26.3333 33.5833V54H21.6666V26H24.4666L40.3333 35.9167L56.1999 26H58.9999V54Z" fill="#F7F7F7"/>
</svg>
