<svg width="80" height="80" viewBox="0 0 80 80" fill="none" xmlns="http://www.w3.org/2000/svg">
<path fill-rule="evenodd" clip-rule="evenodd" d="M40 0C17.9086 0 0 17.9086 0 40C0 62.0914 17.9086 80 40 80C62.0914 80 80 62.0914 80 40C80 17.9086 62.0914 0 40 0ZM40 18C34.024 18 33.276 18.024 30.93 18.132C28.59 18.24 26.988 18.612 25.588 19.154C24.1209 19.7069 22.7921 20.573 21.694 21.692C20.5742 22.7906 19.7074 24.1202 19.154 25.588C18.612 26.988 18.238 28.588 18.132 30.932C18.026 33.276 18 34.024 18 40C18 45.974 18.024 46.722 18.132 49.072C18.24 51.412 18.612 53.012 19.154 54.412C19.7066 55.8798 20.5728 57.2093 21.692 58.308C22.7916 59.4265 24.1218 60.2919 25.59 60.844C26.99 61.388 28.59 61.762 30.93 61.868C33.276 61.974 34.024 62 40 62C45.976 62 46.724 61.976 49.072 61.868C51.412 61.76 53.012 61.388 54.412 60.844C55.878 60.292 57.208 59.428 58.308 58.308C59.4266 57.2084 60.292 55.8782 60.844 54.41C61.388 53.01 61.762 51.41 61.868 49.07C61.974 46.724 62 45.976 62 40C62 34.026 61.976 33.278 61.868 30.928C61.76 28.588 61.388 26.988 60.844 25.588C60.292 24.12 59.428 22.792 58.308 21.694C57.208 20.574 55.878 19.708 54.412 19.154C53.012 18.612 51.412 18.238 49.068 18.132C46.724 18.026 45.976 18 40 18ZM48.89 22.092C46.57 21.986 45.874 21.964 40 21.964C34.126 21.964 33.43 21.986 31.11 22.092C28.964 22.19 27.8 22.548 27.024 22.85C25.998 23.25 25.264 23.724 24.494 24.494C23.7641 25.2041 23.2024 26.0686 22.85 27.024C22.548 27.8 22.19 28.964 22.092 31.11C21.986 33.43 21.964 34.126 21.964 40C21.964 45.874 21.986 46.57 22.092 48.89C22.19 51.036 22.548 52.2 22.85 52.976C23.202 53.93 23.764 54.796 24.494 55.506C25.204 56.236 26.07 56.798 27.024 57.15C27.8 57.452 28.964 57.81 31.11 57.908C33.43 58.014 34.124 58.036 40 58.036C45.876 58.036 46.57 58.014 48.89 57.908C51.036 57.81 52.2 57.452 52.976 57.15C54.002 56.75 54.736 56.276 55.506 55.506C56.236 54.796 56.798 53.93 57.15 52.976C57.452 52.2 57.81 51.036 57.908 48.89C58.014 46.57 58.036 45.874 58.036 40C58.036 34.126 58.014 33.43 57.908 31.11C57.81 28.964 57.452 27.8 57.15 27.024C56.75 25.998 56.276 25.264 55.506 24.494C54.7959 23.7641 53.9314 23.2024 52.976 22.85C52.2 22.548 51.036 22.19 48.89 22.092ZM32.004 32.004C33.054 30.9539 34.3006 30.121 35.6726 29.5527C37.0446 28.9844 38.515 28.6919 40 28.6919C41.485 28.6919 42.9554 28.9844 44.3274 29.5527C45.6994 30.121 46.946 30.9539 47.996 32.004C49.0461 33.054 49.879 34.3006 50.4473 35.6726C51.0156 37.0446 51.3081 38.515 51.3081 40C51.3081 41.485 51.0156 42.9554 50.4473 44.3274C49.879 45.6994 49.0461 46.946 47.996 47.996C45.8753 50.1167 42.9991 51.3081 40 51.3081C37.0009 51.3081 34.1247 50.1167 32.004 47.996C29.8833 45.8753 28.6919 42.9991 28.6919 40C28.6919 37.0009 29.8833 34.1247 32.004 32.004ZM42.1339 47.0314C40.5068 47.5234 38.7593 47.4353 37.19 46.782C36.1877 46.3664 35.2899 45.7337 34.5614 44.9294C33.833 44.1252 33.2919 43.1695 32.9771 42.131C32.6623 41.0926 32.5817 39.9973 32.741 38.9239C32.9004 37.8506 33.2957 36.8259 33.8986 35.9237C34.5015 35.0215 35.2969 34.2642 36.2276 33.7063C37.1583 33.1484 38.2011 32.8037 39.281 32.6972C40.3609 32.5907 41.4509 32.725 42.4727 33.0903C43.4944 33.4556 44.4225 34.043 45.19 34.81C46.394 36.0099 47.1441 37.5907 47.3121 39.2822C47.4801 40.9737 47.0557 42.6711 46.1112 44.0845C45.1668 45.4978 43.761 46.5395 42.1339 47.0314ZM54.4286 29.5079C54.2845 29.8354 54.0762 30.1305 53.816 30.376C53.3099 30.8534 52.6378 31.1147 51.9421 31.1046C51.2465 31.0945 50.5822 30.8136 50.0903 30.3217C49.5984 29.8298 49.3175 29.1655 49.3074 28.4699C49.2973 27.7742 49.5586 27.1021 50.036 26.596C50.2815 26.3358 50.5766 26.1275 50.9041 25.9834C51.2315 25.8393 51.5845 25.7624 51.9421 25.7572C52.2998 25.752 52.6549 25.8186 52.9864 25.953C53.3179 26.0875 53.619 26.2871 53.8719 26.5401C54.1249 26.793 54.3245 27.0941 54.459 27.4256C54.5934 27.7571 54.66 28.1122 54.6548 28.4699C54.6496 28.8275 54.5727 29.1805 54.4286 29.5079Z" fill="#F7F7F7"/>
</svg>
