<svg width="80" height="80" viewBox="0 0 80 80" fill="none" xmlns="http://www.w3.org/2000/svg">
<path d="M40 0C17.9083 0 0 17.9083 0 40C0 62.0917 17.9083 80 40 80C62.0917 80 80 62.0917 80 40C80 17.9083 62.0917 0 40 0ZM30.2083 56.5792H22.1083V30.5125H30.2083V56.5792ZM26.1083 27.3125C23.55 27.3125 21.8958 25.5 21.8958 23.2583C21.8958 20.9708 23.6 19.2125 26.2125 19.2125C28.825 19.2125 30.425 20.9708 30.475 23.2583C30.475 25.5 28.825 27.3125 26.1083 27.3125ZM59.7917 56.5792H51.6917V42.1333C51.6917 38.7708 50.5167 36.4875 47.5875 36.4875C45.35 36.4875 44.0208 38.0333 43.4333 39.5208C43.2167 40.05 43.1625 40.8 43.1625 41.5458V56.575H35.0583V38.825C35.0583 35.5708 34.9542 32.85 34.8458 30.5083H41.8833L42.2542 34.1292H42.4167C43.4833 32.4292 46.0958 29.9208 50.4667 29.9208C55.7958 29.9208 59.7917 33.4917 59.7917 41.1667V56.5792V56.5792Z" fill="#F7F7F7"/>
</svg>
