<svg width="333" height="348" viewBox="0 0 333 348" fill="none" xmlns="http://www.w3.org/2000/svg">
<circle cx="166.5" cy="174.5" r="127" fill="#F7F7F7" stroke="#F7F7F7"/>
<path d="M291.191 7H331.732V47.5414" stroke="#F7F7F7" stroke-width="2" stroke-linecap="round"/>
<path d="M291.191 342H331.732V301.459" stroke="#F7F7F7" stroke-width="2" stroke-linecap="round"/>
<path d="M41.5415 7H1.00011V47.5414" stroke="#F7F7F7" stroke-width="2" stroke-linecap="round"/>
<path d="M41.5415 342H1.00011V301.459" stroke="#F7F7F7" stroke-width="2" stroke-linecap="round"/>
<path d="M79.4279 337.004H81.1779V340.98H85.7279V337.004H87.4779V347H85.7279V342.492H81.1779V347H79.4279V337.004ZM98.2294 338.194C97.6974 338.194 97.2354 338.301 96.8434 338.516C96.4607 338.731 96.148 339.02 95.9054 339.384C95.6627 339.739 95.4807 340.145 95.3594 340.602C95.2474 341.059 95.1914 341.526 95.1914 342.002C95.1914 342.478 95.2474 342.945 95.3594 343.402C95.4807 343.859 95.6627 344.27 95.9054 344.634C96.148 344.989 96.4607 345.273 96.8434 345.488C97.2354 345.703 97.6974 345.81 98.2294 345.81C98.7614 345.81 99.2187 345.703 99.6014 345.488C99.9934 345.273 100.311 344.989 100.553 344.634C100.796 344.27 100.973 343.859 101.085 343.402C101.207 342.945 101.267 342.478 101.267 342.002C101.267 341.526 101.207 341.059 101.085 340.602C100.973 340.145 100.796 339.739 100.553 339.384C100.311 339.02 99.9934 338.731 99.6014 338.516C99.2187 338.301 98.7614 338.194 98.2294 338.194ZM98.2294 336.766C98.976 336.766 99.6434 336.906 100.231 337.186C100.829 337.466 101.333 337.844 101.743 338.32C102.154 338.796 102.467 339.351 102.681 339.986C102.905 340.621 103.017 341.293 103.017 342.002C103.017 342.721 102.905 343.397 102.681 344.032C102.467 344.667 102.154 345.222 101.743 345.698C101.333 346.174 100.829 346.552 100.231 346.832C99.6434 347.103 98.976 347.238 98.2294 347.238C97.4827 347.238 96.8107 347.103 96.2134 346.832C95.6254 346.552 95.126 346.174 94.7154 345.698C94.3047 345.222 93.9874 344.667 93.7634 344.032C93.5487 343.397 93.4414 342.721 93.4414 342.002C93.4414 341.293 93.5487 340.621 93.7634 339.986C93.9874 339.351 94.3047 338.796 94.7154 338.32C95.126 337.844 95.6254 337.466 96.2134 337.186C96.8107 336.906 97.4827 336.766 98.2294 336.766ZM107.876 337.004H109.696L112.202 344.914H112.23L114.792 337.004H116.57L113.154 347H111.208L107.876 337.004ZM121.969 337.004H129.165V338.516H123.719V341.134H128.759V342.562H123.719V345.488H129.263V347H121.969V337.004ZM135.187 337.004H139.961C141.062 337.004 141.888 337.242 142.439 337.718C142.99 338.194 143.265 338.857 143.265 339.706C143.265 340.182 143.195 340.579 143.055 340.896C142.915 341.204 142.752 341.456 142.565 341.652C142.378 341.839 142.192 341.974 142.005 342.058C141.828 342.142 141.697 342.198 141.613 342.226V342.254C141.762 342.273 141.921 342.319 142.089 342.394C142.266 342.469 142.43 342.59 142.579 342.758C142.728 342.917 142.85 343.127 142.943 343.388C143.046 343.649 143.097 343.976 143.097 344.368C143.097 344.956 143.139 345.493 143.223 345.978C143.316 346.454 143.456 346.795 143.643 347H141.767C141.636 346.785 141.557 346.547 141.529 346.286C141.51 346.025 141.501 345.773 141.501 345.53C141.501 345.073 141.473 344.681 141.417 344.354C141.361 344.018 141.258 343.743 141.109 343.528C140.96 343.304 140.754 343.141 140.493 343.038C140.241 342.935 139.914 342.884 139.513 342.884H136.937V347H135.187V337.004ZM136.937 341.554H139.807C140.367 341.554 140.792 341.423 141.081 341.162C141.37 340.891 141.515 340.49 141.515 339.958C141.515 339.641 141.468 339.384 141.375 339.188C141.282 338.983 141.151 338.824 140.983 338.712C140.824 338.6 140.638 338.525 140.423 338.488C140.218 338.451 140.003 338.432 139.779 338.432H136.937V341.554ZM161.997 338.194C161.465 338.194 161.003 338.301 160.611 338.516C160.228 338.731 159.916 339.02 159.673 339.384C159.43 339.739 159.248 340.145 159.127 340.602C159.015 341.059 158.959 341.526 158.959 342.002C158.959 342.478 159.015 342.945 159.127 343.402C159.248 343.859 159.43 344.27 159.673 344.634C159.916 344.989 160.228 345.273 160.611 345.488C161.003 345.703 161.465 345.81 161.997 345.81C162.529 345.81 162.986 345.703 163.369 345.488C163.761 345.273 164.078 344.989 164.321 344.634C164.564 344.27 164.741 343.859 164.853 343.402C164.974 342.945 165.035 342.478 165.035 342.002C165.035 341.526 164.974 341.059 164.853 340.602C164.741 340.145 164.564 339.739 164.321 339.384C164.078 339.02 163.761 338.731 163.369 338.516C162.986 338.301 162.529 338.194 161.997 338.194ZM161.997 336.766C162.744 336.766 163.411 336.906 163.999 337.186C164.596 337.466 165.1 337.844 165.511 338.32C165.922 338.796 166.234 339.351 166.449 339.986C166.673 340.621 166.785 341.293 166.785 342.002C166.785 342.721 166.673 343.397 166.449 344.032C166.234 344.667 165.922 345.222 165.511 345.698C165.1 346.174 164.596 346.552 163.999 346.832C163.411 347.103 162.744 347.238 161.997 347.238C161.25 347.238 160.578 347.103 159.981 346.832C159.393 346.552 158.894 346.174 158.483 345.698C158.072 345.222 157.755 344.667 157.531 344.032C157.316 343.397 157.209 342.721 157.209 342.002C157.209 341.293 157.316 340.621 157.531 339.986C157.755 339.351 158.072 338.796 158.483 338.32C158.894 337.844 159.393 337.466 159.981 337.186C160.578 336.906 161.25 336.766 161.997 336.766ZM172.778 337.004H177.552C178.653 337.004 179.479 337.242 180.03 337.718C180.58 338.194 180.856 338.857 180.856 339.706C180.856 340.182 180.786 340.579 180.646 340.896C180.506 341.204 180.342 341.456 180.156 341.652C179.969 341.839 179.782 341.974 179.596 342.058C179.418 342.142 179.288 342.198 179.204 342.226V342.254C179.353 342.273 179.512 342.319 179.68 342.394C179.857 342.469 180.02 342.59 180.17 342.758C180.319 342.917 180.44 343.127 180.534 343.388C180.636 343.649 180.688 343.976 180.688 344.368C180.688 344.956 180.73 345.493 180.814 345.978C180.907 346.454 181.047 346.795 181.234 347H179.358C179.227 346.785 179.148 346.547 179.12 346.286C179.101 346.025 179.092 345.773 179.092 345.53C179.092 345.073 179.064 344.681 179.008 344.354C178.952 344.018 178.849 343.743 178.7 343.528C178.55 343.304 178.345 343.141 178.084 343.038C177.832 342.935 177.505 342.884 177.104 342.884H174.528V347H172.778V337.004ZM174.528 341.554H177.398C177.958 341.554 178.382 341.423 178.672 341.162C178.961 340.891 179.106 340.49 179.106 339.958C179.106 339.641 179.059 339.384 178.966 339.188C178.872 338.983 178.742 338.824 178.574 338.712C178.415 338.6 178.228 338.525 178.014 338.488C177.808 338.451 177.594 338.432 177.37 338.432H174.528V341.554ZM202.08 340.182C202.005 339.893 201.902 339.627 201.772 339.384C201.641 339.141 201.473 338.931 201.268 338.754C201.062 338.577 200.82 338.441 200.54 338.348C200.269 338.245 199.952 338.194 199.588 338.194C199.056 338.194 198.594 338.301 198.202 338.516C197.819 338.731 197.506 339.02 197.264 339.384C197.021 339.739 196.839 340.145 196.718 340.602C196.606 341.059 196.55 341.526 196.55 342.002C196.55 342.478 196.606 342.945 196.718 343.402C196.839 343.859 197.021 344.27 197.264 344.634C197.506 344.989 197.819 345.273 198.202 345.488C198.594 345.703 199.056 345.81 199.588 345.81C199.98 345.81 200.325 345.745 200.624 345.614C200.922 345.474 201.179 345.287 201.394 345.054C201.608 344.811 201.776 344.531 201.898 344.214C202.019 343.897 202.098 343.556 202.136 343.192H203.844C203.806 343.789 203.676 344.335 203.452 344.83C203.237 345.325 202.943 345.754 202.57 346.118C202.196 346.473 201.758 346.748 201.254 346.944C200.75 347.14 200.194 347.238 199.588 347.238C198.841 347.238 198.169 347.103 197.572 346.832C196.984 346.552 196.484 346.174 196.074 345.698C195.663 345.222 195.346 344.667 195.122 344.032C194.907 343.397 194.8 342.721 194.8 342.002C194.8 341.293 194.907 340.621 195.122 339.986C195.346 339.351 195.663 338.796 196.074 338.32C196.484 337.844 196.984 337.466 197.572 337.186C198.169 336.906 198.841 336.766 199.588 336.766C200.148 336.766 200.675 336.845 201.17 337.004C201.664 337.153 202.098 337.377 202.472 337.676C202.854 337.965 203.162 338.32 203.396 338.74C203.629 339.16 203.774 339.641 203.83 340.182H202.08ZM209.835 337.004H211.585V345.488H216.667V347H209.835V337.004ZM222.274 337.004H224.024V347H222.274V337.004ZM237.319 340.182C237.244 339.893 237.141 339.627 237.011 339.384C236.88 339.141 236.712 338.931 236.507 338.754C236.301 338.577 236.059 338.441 235.779 338.348C235.508 338.245 235.191 338.194 234.827 338.194C234.295 338.194 233.833 338.301 233.441 338.516C233.058 338.731 232.745 339.02 232.503 339.384C232.26 339.739 232.078 340.145 231.957 340.602C231.845 341.059 231.789 341.526 231.789 342.002C231.789 342.478 231.845 342.945 231.957 343.402C232.078 343.859 232.26 344.27 232.503 344.634C232.745 344.989 233.058 345.273 233.441 345.488C233.833 345.703 234.295 345.81 234.827 345.81C235.219 345.81 235.564 345.745 235.863 345.614C236.161 345.474 236.418 345.287 236.633 345.054C236.847 344.811 237.015 344.531 237.137 344.214C237.258 343.897 237.337 343.556 237.375 343.192H239.083C239.045 343.789 238.915 344.335 238.691 344.83C238.476 345.325 238.182 345.754 237.809 346.118C237.435 346.473 236.997 346.748 236.493 346.944C235.989 347.14 235.433 347.238 234.827 347.238C234.08 347.238 233.408 347.103 232.811 346.832C232.223 346.552 231.723 346.174 231.313 345.698C230.902 345.222 230.585 344.667 230.361 344.032C230.146 343.397 230.039 342.721 230.039 342.002C230.039 341.293 230.146 340.621 230.361 339.986C230.585 339.351 230.902 338.796 231.313 338.32C231.723 337.844 232.223 337.466 232.811 337.186C233.408 336.906 234.08 336.766 234.827 336.766C235.387 336.766 235.914 336.845 236.409 337.004C236.903 337.153 237.337 337.377 237.711 337.676C238.093 337.965 238.401 338.32 238.635 338.74C238.868 339.16 239.013 339.641 239.069 340.182H237.319ZM245.074 337.004H246.824V341.554L251.276 337.004H253.432L249.442 340.994L253.712 347H251.528L248.252 342.226L246.824 343.64V347H245.074V337.004Z" fill="#F7F7F7"/>
<path d="M95.2595 1.004H99.4035C100.169 1.004 100.832 1.13467 101.392 1.396C101.952 1.65733 102.409 2.01667 102.764 2.474C103.118 2.922 103.38 3.44933 103.548 4.056C103.725 4.66267 103.814 5.31133 103.814 6.002C103.814 6.69267 103.725 7.34133 103.548 7.948C103.38 8.55467 103.118 9.08667 102.764 9.544C102.409 9.992 101.952 10.3467 101.392 10.608C100.832 10.8693 100.169 11 99.4035 11H95.2595V1.004ZM97.0095 9.572H98.7315C99.4128 9.572 99.9682 9.48333 100.398 9.306C100.836 9.11933 101.177 8.86733 101.42 8.55C101.672 8.22333 101.84 7.84533 101.924 7.416C102.017 6.97733 102.064 6.506 102.064 6.002C102.064 5.498 102.017 5.03133 101.924 4.602C101.84 4.16333 101.672 3.78533 101.42 3.468C101.177 3.14133 100.836 2.88933 100.398 2.712C99.9682 2.52533 99.4128 2.432 98.7315 2.432H97.0095V9.572ZM109.763 1.004H111.513V11H109.763V1.004ZM126.782 11H125.662L125.396 9.824C124.929 10.356 124.462 10.7247 123.996 10.93C123.529 11.1353 122.992 11.238 122.386 11.238C121.639 11.238 120.967 11.1027 120.37 10.832C119.782 10.552 119.282 10.174 118.872 9.698C118.461 9.222 118.144 8.66667 117.92 8.032C117.705 7.39733 117.598 6.72067 117.598 6.002C117.598 5.29267 117.705 4.62067 117.92 3.986C118.144 3.35133 118.461 2.796 118.872 2.32C119.282 1.844 119.782 1.466 120.37 1.186C120.967 0.906 121.639 0.766 122.386 0.766C122.927 0.766 123.44 0.840666 123.926 0.99C124.42 1.13 124.859 1.34467 125.242 1.634C125.624 1.914 125.942 2.26867 126.194 2.698C126.446 3.12733 126.604 3.622 126.67 4.182H124.962C124.915 3.85533 124.812 3.57067 124.654 3.328C124.504 3.076 124.313 2.866 124.08 2.698C123.846 2.53 123.585 2.404 123.296 2.32C123.006 2.236 122.703 2.194 122.386 2.194C121.854 2.194 121.392 2.30133 121 2.516C120.617 2.73067 120.304 3.02 120.062 3.384C119.819 3.73867 119.637 4.14467 119.516 4.602C119.404 5.05933 119.348 5.526 119.348 6.002C119.348 6.478 119.404 6.94467 119.516 7.402C119.637 7.85933 119.819 8.27 120.062 8.634C120.304 8.98867 120.617 9.27333 121 9.488C121.392 9.70267 121.854 9.81 122.386 9.81C122.834 9.81933 123.23 9.76333 123.576 9.642C123.921 9.51133 124.21 9.32933 124.444 9.096C124.686 8.85333 124.868 8.55933 124.99 8.214C125.111 7.86867 125.176 7.486 125.186 7.066H122.526V5.736H126.782V11ZM133.083 1.004H134.833V11H133.083V1.004ZM140.427 1.004H148.519V2.516H145.341V11H143.591V2.516H140.427V1.004ZM155.467 1.004H157.329L161.179 11H159.303L158.365 8.354H154.375L153.437 11H151.631L155.467 1.004ZM154.851 7.024H157.903L156.405 2.726H156.363L154.851 7.024ZM166.531 1.004H168.281V9.488H173.363V11H166.531V1.004ZM194.014 4.182C193.939 3.89267 193.837 3.62667 193.706 3.384C193.575 3.14133 193.407 2.93133 193.202 2.754C192.997 2.57667 192.754 2.44133 192.474 2.348C192.203 2.24533 191.886 2.194 191.522 2.194C190.99 2.194 190.528 2.30133 190.136 2.516C189.753 2.73067 189.441 3.02 189.198 3.384C188.955 3.73867 188.773 4.14467 188.652 4.602C188.54 5.05933 188.484 5.526 188.484 6.002C188.484 6.478 188.54 6.94467 188.652 7.402C188.773 7.85933 188.955 8.27 189.198 8.634C189.441 8.98867 189.753 9.27333 190.136 9.488C190.528 9.70267 190.99 9.81 191.522 9.81C191.914 9.81 192.259 9.74467 192.558 9.614C192.857 9.474 193.113 9.28733 193.328 9.054C193.543 8.81133 193.711 8.53133 193.832 8.214C193.953 7.89667 194.033 7.556 194.07 7.192H195.778C195.741 7.78933 195.61 8.33533 195.386 8.83C195.171 9.32467 194.877 9.754 194.504 10.118C194.131 10.4727 193.692 10.748 193.188 10.944C192.684 11.14 192.129 11.238 191.522 11.238C190.775 11.238 190.103 11.1027 189.506 10.832C188.918 10.552 188.419 10.174 188.008 9.698C187.597 9.222 187.28 8.66667 187.056 8.032C186.841 7.39733 186.734 6.72067 186.734 6.002C186.734 5.29267 186.841 4.62067 187.056 3.986C187.28 3.35133 187.597 2.796 188.008 2.32C188.419 1.844 188.918 1.466 189.506 1.186C190.103 0.906 190.775 0.766 191.522 0.766C192.082 0.766 192.609 0.845333 193.104 1.004C193.599 1.15333 194.033 1.37733 194.406 1.676C194.789 1.96533 195.097 2.32 195.33 2.74C195.563 3.16 195.708 3.64067 195.764 4.182H194.014ZM204.444 1.004H206.306L210.156 11H208.28L207.342 8.354H203.352L202.414 11H200.608L204.444 1.004ZM203.828 7.024H206.88L205.382 2.726H205.34L203.828 7.024ZM215.508 1.004H220.282C221.383 1.004 222.209 1.242 222.76 1.718C223.31 2.194 223.586 2.85667 223.586 3.706C223.586 4.182 223.516 4.57867 223.376 4.896C223.236 5.204 223.072 5.456 222.886 5.652C222.699 5.83867 222.512 5.974 222.326 6.058C222.148 6.142 222.018 6.198 221.934 6.226V6.254C222.083 6.27267 222.242 6.31933 222.41 6.394C222.587 6.46867 222.75 6.59 222.9 6.758C223.049 6.91667 223.17 7.12667 223.264 7.388C223.366 7.64933 223.418 7.976 223.418 8.368C223.418 8.956 223.46 9.49267 223.544 9.978C223.637 10.454 223.777 10.7947 223.964 11H222.088C221.957 10.7853 221.878 10.5473 221.85 10.286C221.831 10.0247 221.822 9.77267 221.822 9.53C221.822 9.07267 221.794 8.68067 221.738 8.354C221.682 8.018 221.579 7.74267 221.43 7.528C221.28 7.304 221.075 7.14067 220.814 7.038C220.562 6.93533 220.235 6.884 219.834 6.884H217.258V11H215.508V1.004ZM217.258 5.554H220.128C220.688 5.554 221.112 5.42333 221.402 5.162C221.691 4.89133 221.836 4.49 221.836 3.958C221.836 3.64067 221.789 3.384 221.696 3.188C221.602 2.98267 221.472 2.824 221.304 2.712C221.145 2.6 220.958 2.52533 220.744 2.488C220.538 2.45067 220.324 2.432 220.1 2.432H217.258V5.554ZM229.765 1.004H233.909C234.674 1.004 235.337 1.13467 235.897 1.396C236.457 1.65733 236.914 2.01667 237.269 2.474C237.624 2.922 237.885 3.44933 238.053 4.056C238.23 4.66267 238.319 5.31133 238.319 6.002C238.319 6.69267 238.23 7.34133 238.053 7.948C237.885 8.55467 237.624 9.08667 237.269 9.544C236.914 9.992 236.457 10.3467 235.897 10.608C235.337 10.8693 234.674 11 233.909 11H229.765V1.004ZM231.515 9.572H233.237C233.918 9.572 234.474 9.48333 234.903 9.306C235.342 9.11933 235.682 8.86733 235.925 8.55C236.177 8.22333 236.345 7.84533 236.429 7.416C236.522 6.97733 236.569 6.506 236.569 6.002C236.569 5.498 236.522 5.03133 236.429 4.602C236.345 4.16333 236.177 3.78533 235.925 3.468C235.682 3.14133 235.342 2.88933 234.903 2.712C234.474 2.52533 233.918 2.432 233.237 2.432H231.515V9.572Z" fill="#F7F7F7"/>
<path d="M143.88 102.32H137.56C137.56 102.32 139.537 98.1895 137.808 96.0001C137.808 96.0001 143.88 95.8918 143.88 102.32Z" fill="black"/>
<path d="M153.361 96C155.106 96 156.521 97.4148 156.521 99.16C156.521 100.905 155.106 102.32 153.361 102.32C151.615 102.32 150.201 100.905 150.201 99.16C150.201 97.4148 151.615 96 153.361 96Z" fill="black"/>
<path d="M166 96C167.745 96 169.16 97.4148 169.16 99.16C169.16 100.905 167.745 102.32 166 102.32C164.255 102.32 162.84 100.905 162.84 99.16C162.84 97.4148 164.255 96 166 96Z" fill="black"/>
<path d="M181.8 102.32H175.48C175.48 102.32 177.457 98.1895 175.728 96.0001C175.728 96.0001 181.8 95.8918 181.8 102.32Z" fill="black"/>
<path d="M143.88 102.32H137.56V108.64H143.88V102.32Z" fill="black"/>
<path d="M150.199 108.64H143.88V102.333V102.32H145.428C148.064 102.32 150.199 105.149 150.199 108.64Z" fill="black"/>
<path d="M162.84 108.64H156.521C156.521 108.64 158.498 104.509 156.769 102.32C156.769 102.32 162.84 102.212 162.84 108.64Z" fill="black"/>
<path d="M181.8 102.32H175.48V108.64H181.8V102.32Z" fill="black"/>
<path d="M194.44 108.64H188.12C188.12 108.64 190.097 104.509 188.368 102.32C188.368 102.32 194.44 102.212 194.44 108.64Z" fill="black"/>
<path d="M137.56 108.639H143.88V114.946V114.959L142.331 114.959C139.696 114.959 137.56 112.13 137.56 108.639Z" fill="black"/>
<path d="M150.2 108.64H143.88V114.96H150.2V108.64Z" fill="black"/>
<path d="M156.52 108.64H162.84C162.84 108.64 160.862 112.771 162.591 114.96C162.591 114.96 156.52 115.068 156.52 108.64Z" fill="black"/>
<path d="M175.48 108.639V114.959H169.173H169.16V113.41C169.16 110.774 171.989 108.639 175.48 108.639Z" fill="black"/>
<path d="M181.8 108.64H175.48V114.96H181.8V108.64Z" fill="black"/>
<path d="M188.12 108.64H181.8V114.96H188.12V108.64Z" fill="black"/>
<path d="M194.44 108.64H188.12V114.96H194.44V108.64Z" fill="black"/>
<path d="M143.88 114.96H150.2C150.2 114.96 148.222 119.091 149.951 121.28C149.951 121.28 143.88 121.388 143.88 114.96Z" fill="black"/>
<path d="M175.48 114.96H169.16V121.28H175.48V114.96Z" fill="black"/>
<path d="M194.44 114.96H188.12V121.28H194.44V114.96Z" fill="black"/>
<path d="M140.72 121.28C142.465 121.28 143.88 122.695 143.88 124.44C143.88 126.186 142.465 127.6 140.72 127.6C138.975 127.6 137.56 126.186 137.56 124.44C137.56 122.695 138.975 121.28 140.72 121.28Z" fill="black"/>
<path d="M169.159 121.28V127.6C169.159 127.6 165.028 125.623 162.839 127.352C162.839 127.352 162.731 121.28 169.159 121.28Z" fill="black"/>
<path d="M175.48 121.28H169.16V127.6H175.48V121.28Z" fill="black"/>
<path d="M175.48 127.6V121.28C175.48 121.28 179.611 123.258 181.8 121.529C181.8 121.529 181.908 127.6 175.48 127.6Z" fill="black"/>
<path d="M194.44 121.28H188.12V127.6H194.44V121.28Z" fill="black"/>
<path d="M150.2 127.6V133.92C150.2 133.92 146.069 131.942 143.88 133.671C143.88 133.671 143.771 127.6 150.2 127.6Z" fill="black"/>
<path d="M156.52 133.92H150.201V127.613V127.6H151.749C154.385 127.6 156.52 130.429 156.52 133.92Z" fill="black"/>
<path d="M194.44 127.6H188.12V133.92H194.44V127.6Z" fill="black"/>
<path d="M140.72 133.92C142.465 133.92 143.88 135.335 143.88 137.08C143.88 138.825 142.465 140.24 140.72 140.24C138.975 140.24 137.56 138.825 137.56 137.08C137.56 135.335 138.975 133.92 140.72 133.92Z" fill="black"/>
<path d="M156.521 133.92H150.201V140.24H156.521V133.92Z" fill="black"/>
<path d="M169.16 140.24H162.84C162.84 140.24 164.817 136.109 163.088 133.92C163.088 133.92 169.16 133.812 169.16 140.24Z" fill="black"/>
<path d="M181.8 140.24H175.48C175.48 140.24 177.457 136.109 175.728 133.92C175.728 133.92 181.8 133.812 181.8 140.24Z" fill="black"/>
<path d="M188.12 133.92H194.44C194.44 133.92 192.462 138.051 194.191 140.24C194.191 140.24 188.12 140.348 188.12 133.92Z" fill="black"/>
<path d="M150.199 140.239V146.559H143.893H143.88V145.01C143.88 142.375 146.709 140.239 150.199 140.239Z" fill="black"/>
<path d="M156.521 140.24H150.201V146.56H156.521V140.24Z" fill="black"/>
<path d="M162.84 140.24H156.521V146.56H162.84V140.24Z" fill="black"/>
<path d="M169.16 140.24H162.84V146.56H169.16V140.24Z" fill="black"/>
<path d="M175.48 140.24H169.16V146.56H175.48V140.24Z" fill="black"/>
<path d="M181.8 140.24H175.48V146.56H181.8V140.24Z" fill="black"/>
<path d="M90.1605 146.56C91.9058 146.56 93.3205 147.974 93.3205 149.72C93.3205 151.465 91.9058 152.88 90.1605 152.88C88.4153 152.88 87.0005 151.465 87.0005 149.72C87.0005 147.974 88.4153 146.56 90.1605 146.56Z" fill="black"/>
<path d="M112.279 146.559V152.879H105.973H105.96V151.33C105.96 148.694 108.789 146.559 112.279 146.559Z" fill="black"/>
<path d="M118.6 146.56H112.28V152.88H118.6V146.56Z" fill="black"/>
<path d="M124.921 146.56H118.601V152.88H124.921V146.56Z" fill="black"/>
<path d="M131.24 146.56H124.92V152.88H131.24V146.56Z" fill="black"/>
<path d="M137.56 146.56H131.24V152.88H137.56V146.56Z" fill="black"/>
<path d="M143.88 146.56H137.56V152.88H143.88V146.56Z" fill="black"/>
<path d="M150.2 146.56H143.88V152.88H150.2V146.56Z" fill="black"/>
<path d="M156.521 146.56H150.201V152.88H156.521V146.56Z" fill="black"/>
<path d="M181.8 146.56H175.48V152.88H181.8V146.56Z" fill="black"/>
<path d="M194.44 146.56V152.88C194.44 152.88 190.309 150.902 188.12 152.631C188.12 152.631 188.011 146.56 194.44 146.56Z" fill="black"/>
<path d="M200.76 152.879H194.44V146.572V146.559H195.989C198.625 146.559 200.76 149.389 200.76 152.879Z" fill="black"/>
<path d="M219.72 152.88H213.4C213.4 152.88 215.377 148.749 213.648 146.56C213.648 146.56 219.72 146.451 219.72 152.88Z" fill="black"/>
<path d="M232.36 146.559V152.879H226.053H226.04V151.33C226.04 148.694 228.869 146.559 232.36 146.559Z" fill="black"/>
<path d="M238.68 146.56H232.36V152.88H238.68V146.56Z" fill="black"/>
<path d="M238.68 152.88V146.56C238.68 146.56 242.81 148.537 245 146.808C245 146.808 245.108 152.88 238.68 152.88Z" fill="black"/>
<path d="M99.6403 159.2H93.3203C93.3203 159.2 95.2976 155.069 93.5686 152.88C93.5686 152.88 99.6403 152.772 99.6403 159.2Z" fill="black"/>
<path d="M105.96 152.88H112.28C112.28 152.88 110.302 157.011 112.031 159.2C112.031 159.2 105.96 159.308 105.96 152.88Z" fill="black"/>
<path d="M143.88 152.88H150.2V159.186V159.199L148.651 159.2C146.016 159.2 143.88 156.37 143.88 152.88Z" fill="black"/>
<path d="M156.521 152.88H150.201V159.2H156.521V152.88Z" fill="black"/>
<path d="M162.84 152.88H156.521V159.2H162.84V152.88Z" fill="black"/>
<path d="M169.16 152.88H162.84V159.2H169.16V152.88Z" fill="black"/>
<path d="M175.48 152.88H169.16V159.2H175.48V152.88Z" fill="black"/>
<path d="M181.8 152.88H175.48V159.2H181.8V152.88Z" fill="black"/>
<path d="M188.12 159.2H181.8V152.893V152.88H183.349C185.985 152.88 188.12 155.709 188.12 159.2Z" fill="black"/>
<path d="M194.439 152.88H200.759C200.759 152.88 198.782 157.011 200.511 159.2C200.511 159.2 194.439 159.308 194.439 152.88Z" fill="black"/>
<path d="M213.4 152.88V159.2H207.093H207.08V157.651C207.08 155.015 209.909 152.88 213.4 152.88Z" fill="black"/>
<path d="M219.72 152.88H213.4V159.2H219.72V152.88Z" fill="black"/>
<path d="M226.04 152.88H219.72V159.2H226.04V152.88Z" fill="black"/>
<path d="M232.36 152.88H226.04V159.2H232.36V152.88Z" fill="black"/>
<path d="M232.36 159.2V152.88H238.667H238.68V154.428C238.68 157.065 235.85 159.2 232.36 159.2Z" fill="black"/>
<path d="M93.3203 159.2H99.6403V165.506V165.519L98.0914 165.52C95.456 165.52 93.3203 162.69 93.3203 159.2Z" fill="black"/>
<path d="M105.96 165.52H99.6401V159.213V159.2H101.189C103.824 159.2 105.96 162.029 105.96 165.52Z" fill="black"/>
<path d="M115.44 159.2C117.186 159.2 118.6 160.614 118.6 162.36C118.6 164.105 117.186 165.52 115.44 165.52C113.695 165.52 112.28 164.105 112.28 162.36C112.28 160.614 113.695 159.2 115.44 159.2Z" fill="black"/>
<path d="M131.24 159.2V165.52C131.24 165.52 127.109 163.542 124.92 165.271C124.92 165.271 124.811 159.2 131.24 159.2Z" fill="black"/>
<path d="M137.56 165.52H131.24V159.213V159.2H132.789C135.425 159.2 137.56 162.029 137.56 165.52Z" fill="black"/>
<path d="M162.84 159.2H169.16C169.16 159.2 167.182 163.331 168.911 165.52C168.911 165.52 162.84 165.628 162.84 159.2Z" fill="black"/>
<path d="M181.8 159.2H175.48V165.52H181.8V159.2Z" fill="black"/>
<path d="M188.12 159.2H181.8V165.52H188.12V159.2Z" fill="black"/>
<path d="M194.44 165.52H188.12V159.213V159.2H189.669C192.304 159.2 194.44 162.029 194.44 165.52Z" fill="black"/>
<path d="M207.079 159.2V165.52C207.079 165.52 202.948 163.542 200.759 165.271C200.759 165.271 200.651 159.2 207.079 159.2Z" fill="black"/>
<path d="M213.4 159.2H207.08V165.52H213.4V159.2Z" fill="black"/>
<path d="M226.04 159.2H219.72V165.52H226.04V159.2Z" fill="black"/>
<path d="M245 165.52H238.68C238.68 165.52 240.657 161.389 238.928 159.2C238.928 159.2 245 159.091 245 165.52Z" fill="black"/>
<path d="M99.6396 165.52H105.96C105.96 165.52 103.982 169.651 105.711 171.84C105.711 171.84 99.6396 171.948 99.6396 165.52Z" fill="black"/>
<path d="M121.761 165.52C123.506 165.52 124.921 166.935 124.921 168.68C124.921 170.425 123.506 171.84 121.761 171.84C120.015 171.84 118.601 170.425 118.601 168.68C118.601 166.935 120.015 165.52 121.761 165.52Z" fill="black"/>
<path d="M137.56 165.52H131.24V171.84H137.56V165.52Z" fill="black"/>
<path d="M137.56 171.84V165.52C137.56 165.52 141.691 167.497 143.88 165.768C143.88 165.768 143.988 171.84 137.56 171.84Z" fill="black"/>
<path d="M156.52 165.519V171.839H150.214H150.201V170.29C150.201 167.654 153.03 165.519 156.52 165.519Z" fill="black"/>
<path d="M162.84 171.839H156.521V165.532V165.519H158.069C160.705 165.519 162.84 168.349 162.84 171.839Z" fill="black"/>
<path d="M175.48 165.519H181.8V171.825V171.839L180.251 171.839C177.616 171.839 175.48 169.009 175.48 165.519Z" fill="black"/>
<path d="M188.12 165.52H181.8V171.84H188.12V165.52Z" fill="black"/>
<path d="M194.44 165.52H188.12V171.84H194.44V165.52Z" fill="black"/>
<path d="M207.08 165.52H213.4C213.4 165.52 211.422 169.651 213.151 171.84C213.151 171.84 207.08 171.948 207.08 165.52Z" fill="black"/>
<path d="M219.72 165.519H226.04V171.825V171.839L224.491 171.839C221.856 171.839 219.72 169.009 219.72 165.519Z" fill="black"/>
<path d="M232.36 165.52H226.04V171.84H232.36V165.52Z" fill="black"/>
<path d="M238.68 165.52H232.36V171.84H238.68V165.52Z" fill="black"/>
<path d="M245 165.52H238.68V171.84H245V165.52Z" fill="black"/>
<path d="M112.28 178.16H105.96C105.96 178.16 107.937 174.029 106.208 171.84C106.208 171.84 112.28 171.732 112.28 178.16Z" fill="black"/>
<path d="M131.24 171.84V178.16C131.24 178.16 127.109 176.182 124.92 177.911C124.92 177.911 124.811 171.84 131.24 171.84Z" fill="black"/>
<path d="M131.24 178.16V171.84H137.547H137.56V173.388C137.56 176.025 134.731 178.16 131.24 178.16Z" fill="black"/>
<path d="M150.201 171.839H156.521V178.146V178.159L154.972 178.159C152.336 178.159 150.201 175.33 150.201 171.839Z" fill="black"/>
<path d="M162.84 171.84H156.521V178.16H162.84V171.84Z" fill="black"/>
<path d="M162.84 178.16V171.84C162.84 171.84 166.97 173.817 169.16 172.088C169.16 172.088 169.268 178.16 162.84 178.16Z" fill="black"/>
<path d="M188.12 171.84H181.8V178.16H188.12V171.84Z" fill="black"/>
<path d="M194.44 171.84H188.12V178.16H194.44V171.84Z" fill="black"/>
<path d="M203.92 171.84C205.666 171.84 207.08 173.255 207.08 175C207.08 176.745 205.666 178.16 203.92 178.16C202.175 178.16 200.76 176.745 200.76 175C200.76 173.255 202.175 171.84 203.92 171.84Z" fill="black"/>
<path d="M238.68 171.84H245C245 171.84 243.022 175.971 244.751 178.16C244.751 178.16 238.68 178.268 238.68 171.84Z" fill="black"/>
<path d="M93.32 178.159V184.479H87.0136H87.0005V182.93C87.0005 180.294 89.8296 178.159 93.32 178.159Z" fill="black"/>
<path d="M99.6398 184.479H93.3203V178.172V178.159H94.8687C97.5046 178.159 99.6398 180.989 99.6398 184.479Z" fill="black"/>
<path d="M105.96 178.16H112.28C112.28 178.16 110.302 182.291 112.031 184.48C112.031 184.48 105.96 184.588 105.96 178.16Z" fill="black"/>
<path d="M181.8 178.159V184.479H175.493H175.48V182.93C175.48 180.294 178.309 178.159 181.8 178.159Z" fill="black"/>
<path d="M188.12 178.16H181.8V184.48H188.12V178.16Z" fill="black"/>
<path d="M194.44 178.16H188.12V184.48H194.44V178.16Z" fill="black"/>
<path d="M200.76 184.479H194.44V178.172V178.159H195.989C198.625 178.159 200.76 180.989 200.76 184.479Z" fill="black"/>
<path d="M219.72 184.48H213.4C213.4 184.48 215.377 180.349 213.648 178.16C213.648 178.16 219.72 178.051 219.72 184.48Z" fill="black"/>
<path d="M238.68 184.48H232.36C232.36 184.48 234.337 180.349 232.608 178.16C232.608 178.16 238.68 178.051 238.68 184.48Z" fill="black"/>
<path d="M93.3205 184.479H87.0005V190.799H93.3205V184.479Z" fill="black"/>
<path d="M93.3203 190.799V184.479H99.6272H99.6403V186.028C99.6403 188.664 96.8107 190.799 93.3203 190.799Z" fill="black"/>
<path d="M124.92 184.479V190.799C124.92 190.799 120.789 188.822 118.6 190.551C118.6 190.551 118.491 184.479 124.92 184.479Z" fill="black"/>
<path d="M131.24 184.479H124.92V190.799H131.24V184.479Z" fill="black"/>
<path d="M137.56 184.479H131.24V190.799H137.56V184.479Z" fill="black"/>
<path d="M143.88 190.799H137.56V184.493V184.479H139.108C141.744 184.479 143.88 187.309 143.88 190.799Z" fill="black"/>
<path d="M162.84 184.479V190.799H156.534H156.521V189.251C156.521 186.615 159.35 184.479 162.84 184.479Z" fill="black"/>
<path d="M169.16 184.479H162.84V190.799H169.16V184.479Z" fill="black"/>
<path d="M175.48 184.479H169.16V190.799H175.48V184.479Z" fill="black"/>
<path d="M181.8 184.479H175.48V190.799H181.8V184.479Z" fill="black"/>
<path d="M181.8 190.799V184.479H188.107H188.12V186.028C188.12 188.664 185.291 190.799 181.8 190.799Z" fill="black"/>
<path d="M200.76 184.479H194.44V190.799H200.76V184.479Z" fill="black"/>
<path d="M200.76 190.799V184.479C200.76 184.479 204.891 186.457 207.08 184.728C207.08 184.728 207.189 190.799 200.76 190.799Z" fill="black"/>
<path d="M213.4 184.479H219.72V190.786V190.799L218.171 190.799C215.536 190.799 213.4 187.97 213.4 184.479Z" fill="black"/>
<path d="M226.04 184.479H219.72V190.799H226.04V184.479Z" fill="black"/>
<path d="M232.36 184.479H226.04V190.799H232.36V184.479Z" fill="black"/>
<path d="M238.68 184.479H232.36V190.799H238.68V184.479Z" fill="black"/>
<path d="M244.999 190.799H238.68V184.493V184.479H240.228C242.864 184.479 244.999 187.309 244.999 190.799Z" fill="black"/>
<path d="M93.3205 190.8H87.0005V197.12H93.3205V190.8Z" fill="black"/>
<path d="M118.6 197.12H112.28C112.28 197.12 114.258 192.989 112.529 190.8C112.529 190.8 118.6 190.692 118.6 197.12Z" fill="black"/>
<path d="M143.88 190.8H137.56V197.12H143.88V190.8Z" fill="black"/>
<path d="M156.52 190.799V197.119H150.214H150.201V195.57C150.201 192.935 153.03 190.799 156.52 190.799Z" fill="black"/>
<path d="M156.521 197.12V190.8H162.827H162.84V192.348C162.84 194.985 160.011 197.12 156.521 197.12Z" fill="black"/>
<path d="M181.8 190.8H175.48V197.12H181.8V190.8Z" fill="black"/>
<path d="M200.76 190.8H194.44V197.12H200.76V190.8Z" fill="black"/>
<path d="M213.4 197.12H207.08C207.08 197.12 209.057 192.989 207.328 190.8C207.328 190.8 213.4 190.692 213.4 197.12Z" fill="black"/>
<path d="M219.72 190.799H226.04V197.106V197.119L224.491 197.119C221.856 197.119 219.72 194.29 219.72 190.799Z" fill="black"/>
<path d="M232.36 190.8H226.04V197.12H232.36V190.8Z" fill="black"/>
<path d="M238.68 190.8H245C245 190.8 243.022 194.931 244.751 197.12C244.751 197.12 238.68 197.228 238.68 190.8Z" fill="black"/>
<path d="M87 197.12H93.32C93.32 197.12 91.3423 201.251 93.0712 203.44C93.0712 203.44 87 203.548 87 197.12Z" fill="black"/>
<path d="M105.96 197.12V203.44C105.96 203.44 101.829 201.462 99.6398 203.191C99.6398 203.191 99.531 197.12 105.96 197.12Z" fill="black"/>
<path d="M112.28 197.12H105.96V203.44H112.28V197.12Z" fill="black"/>
<path d="M112.28 203.44V197.12H118.587H118.6V198.668C118.6 201.304 115.771 203.44 112.28 203.44Z" fill="black"/>
<path d="M128.08 197.12C129.826 197.12 131.24 198.534 131.24 200.28C131.24 202.025 129.826 203.44 128.08 203.44C126.335 203.44 124.92 202.025 124.92 200.28C124.92 198.534 126.335 197.12 128.08 197.12Z" fill="black"/>
<path d="M143.88 197.12H137.56V203.44H143.88V197.12Z" fill="black"/>
<path d="M156.521 197.12H150.201V203.44H156.521V197.12Z" fill="black"/>
<path d="M169.159 197.119V203.439H162.853H162.84V201.89C162.84 199.254 165.669 197.119 169.159 197.119Z" fill="black"/>
<path d="M175.48 197.12H169.16V203.44H175.48V197.12Z" fill="black"/>
<path d="M181.8 197.12H175.48V203.44H181.8V197.12Z" fill="black"/>
<path d="M188.12 197.12H181.8V203.44H188.12V197.12Z" fill="black"/>
<path d="M194.44 197.12H188.12V203.44H194.44V197.12Z" fill="black"/>
<path d="M200.76 197.12H194.44V203.44H200.76V197.12Z" fill="black"/>
<path d="M207.08 197.12H200.76V203.44H207.08V197.12Z" fill="black"/>
<path d="M213.4 197.12H207.08V203.44H213.4V197.12Z" fill="black"/>
<path d="M219.719 203.439H213.4V197.132V197.119H214.948C217.584 197.119 219.719 199.949 219.719 203.439Z" fill="black"/>
<path d="M232.36 197.12H226.04V203.44H232.36V197.12Z" fill="black"/>
<path d="M238.679 203.439H232.36V197.132V197.119H233.908C236.544 197.119 238.679 199.949 238.679 203.439Z" fill="black"/>
<path d="M143.88 203.439H137.56V209.759H143.88V203.439Z" fill="black"/>
<path d="M156.521 203.439H150.201V209.759H156.521V203.439Z" fill="black"/>
<path d="M162.84 203.439H156.521V209.759H162.84V203.439Z" fill="black"/>
<path d="M169.16 203.439H162.84V209.759H169.16V203.439Z" fill="black"/>
<path d="M169.16 209.759V203.439H175.467H175.48V204.988C175.48 207.624 172.651 209.759 169.16 209.759Z" fill="black"/>
<path d="M194.44 203.439H188.12V209.759H194.44V203.439Z" fill="black"/>
<path d="M219.72 203.439H213.4V209.759H219.72V203.439Z" fill="black"/>
<path d="M226.04 203.439H232.36V209.746V209.759L230.811 209.759C228.176 209.759 226.04 206.93 226.04 203.439Z" fill="black"/>
<path d="M232.36 209.759V203.439H238.667H238.68V204.988C238.68 207.624 235.85 209.759 232.36 209.759Z" fill="black"/>
<path d="M143.88 209.759H137.56V216.079H143.88V209.759Z" fill="black"/>
<path d="M150.2 209.759H143.88V216.079H150.2V209.759Z" fill="black"/>
<path d="M156.521 209.759H150.201V216.079H156.521V209.759Z" fill="black"/>
<path d="M162.84 209.759H156.521V216.079H162.84V209.759Z" fill="black"/>
<path d="M194.44 209.759H188.12V216.079H194.44V209.759Z" fill="black"/>
<path d="M203.92 209.759C205.666 209.759 207.08 211.174 207.08 212.919C207.08 214.665 205.666 216.079 203.92 216.079C202.175 216.079 200.76 214.665 200.76 212.919C200.76 211.174 202.175 209.759 203.92 209.759Z" fill="black"/>
<path d="M219.72 209.759H213.4V216.079H219.72V209.759Z" fill="black"/>
<path d="M245 216.079H238.68C238.68 216.079 240.657 211.949 238.928 209.759C238.928 209.759 245 209.651 245 216.079Z" fill="black"/>
<path d="M143.88 216.08H137.56V222.4H143.88V216.08Z" fill="black"/>
<path d="M162.84 216.08H156.521V222.4H162.84V216.08Z" fill="black"/>
<path d="M175.479 216.08V222.4C175.479 222.4 171.348 220.422 169.159 222.151C169.159 222.151 169.051 216.08 175.479 216.08Z" fill="black"/>
<path d="M181.8 216.08H175.48V222.4H181.8V216.08Z" fill="black"/>
<path d="M188.12 216.08H181.8V222.4H188.12V216.08Z" fill="black"/>
<path d="M194.44 216.08H188.12V222.4H194.44V216.08Z" fill="black"/>
<path d="M219.72 216.08H213.4V222.4H219.72V216.08Z" fill="black"/>
<path d="M238.679 216.08V222.4C238.679 222.4 234.548 220.422 232.359 222.151C232.359 222.151 232.251 216.08 238.679 216.08Z" fill="black"/>
<path d="M238.68 222.4V216.08H244.987H245V217.628C245 220.264 242.17 222.4 238.68 222.4Z" fill="black"/>
<path d="M143.88 222.399H137.56V228.719H143.88V222.399Z" fill="black"/>
<path d="M150.199 228.719H143.88V222.413V222.399H145.428C148.064 222.399 150.199 225.229 150.199 228.719Z" fill="black"/>
<path d="M162.84 222.399H156.521V228.719H162.84V222.399Z" fill="black"/>
<path d="M169.159 228.719H162.84V222.413V222.399H164.388C167.024 222.399 169.159 225.229 169.159 228.719Z" fill="black"/>
<path d="M181.8 222.399H175.48V228.719H181.8V222.399Z" fill="black"/>
<path d="M188.12 222.399H181.8V228.719H188.12V222.399Z" fill="black"/>
<path d="M194.44 222.399H188.12V228.719H194.44V222.399Z" fill="black"/>
<path d="M200.76 222.399H194.44V228.719H200.76V222.399Z" fill="black"/>
<path d="M207.08 222.399H200.76V228.719H207.08V222.399Z" fill="black"/>
<path d="M213.4 222.399H207.08V228.719H213.4V222.399Z" fill="black"/>
<path d="M213.4 228.719V222.399H219.707H219.72V223.948C219.72 226.584 216.89 228.719 213.4 228.719Z" fill="black"/>
<path d="M137.56 228.719H143.88V235.026V235.039L142.331 235.039C139.696 235.039 137.56 232.21 137.56 228.719Z" fill="black"/>
<path d="M150.2 228.72H143.88V235.04H150.2V228.72Z" fill="black"/>
<path d="M156.521 228.72H150.201V235.04H156.521V228.72Z" fill="black"/>
<path d="M162.84 228.72H156.521V235.04H162.84V228.72Z" fill="black"/>
<path d="M169.16 228.72H162.84V235.04H169.16V228.72Z" fill="black"/>
<path d="M175.48 228.72H169.16V235.04H175.48V228.72Z" fill="black"/>
<path d="M175.48 235.04V228.72H181.787H181.8V230.268C181.8 232.904 178.97 235.04 175.48 235.04Z" fill="black"/>
<path d="M188.12 228.72H194.44C194.44 228.72 192.462 232.851 194.191 235.04C194.191 235.04 188.12 235.148 188.12 228.72Z" fill="black"/>
<path d="M200.759 228.72H207.079C207.079 228.72 205.102 232.851 206.831 235.04C206.831 235.04 200.759 235.148 200.759 228.72Z" fill="black"/>
<path d="M238.679 228.719V235.039H232.373H232.36V233.49C232.36 230.854 235.189 228.719 238.679 228.719Z" fill="black"/>
<path d="M244.999 235.039H238.68V228.732V228.719H240.228C242.864 228.719 244.999 231.549 244.999 235.039Z" fill="black"/>
<path d="M162.84 235.04H156.521V241.36H162.84V235.04Z" fill="black"/>
<path d="M197.6 235.04C199.346 235.04 200.76 236.454 200.76 238.2C200.76 239.945 199.346 241.36 197.6 241.36C195.855 241.36 194.44 239.945 194.44 238.2C194.44 236.454 195.855 235.04 197.6 235.04Z" fill="black"/>
<path d="M219.719 235.039V241.359H213.413H213.4V239.81C213.4 237.174 216.229 235.039 219.719 235.039Z" fill="black"/>
<path d="M226.04 235.04H219.72V241.36H226.04V235.04Z" fill="black"/>
<path d="M232.36 235.04H226.04V241.36H232.36V235.04Z" fill="black"/>
<path d="M238.68 235.04H232.36V241.36H238.68V235.04Z" fill="black"/>
<path d="M245 235.04H238.68V241.36H245V235.04Z" fill="black"/>
<path d="M162.84 241.36H156.521V247.68H162.84V241.36Z" fill="black"/>
<path d="M181.8 241.36V247.68C181.8 247.68 177.669 245.702 175.48 247.431C175.48 247.431 175.371 241.36 181.8 241.36Z" fill="black"/>
<path d="M181.8 247.68V241.36C181.8 241.36 185.931 243.337 188.12 241.608C188.12 241.608 188.229 247.68 181.8 247.68Z" fill="black"/>
<path d="M213.4 241.36V247.68C213.4 247.68 209.269 245.702 207.08 247.431C207.08 247.431 206.971 241.36 213.4 241.36Z" fill="black"/>
<path d="M213.4 247.68V241.36H219.707H219.72V242.908C219.72 245.545 216.89 247.68 213.4 247.68Z" fill="black"/>
<path d="M226.04 241.359H232.36V247.665V247.678L230.811 247.679C228.176 247.679 226.04 244.849 226.04 241.359Z" fill="black"/>
<path d="M238.68 241.36H232.36V247.68H238.68V241.36Z" fill="black"/>
<path d="M245 241.36H238.68V247.68H245V241.36Z" fill="black"/>
<path d="M140.72 247.68C142.465 247.68 143.88 249.094 143.88 250.84C143.88 252.585 142.465 254 140.72 254C138.975 254 137.56 252.585 137.56 250.84C137.56 249.094 138.975 247.68 140.72 247.68Z" fill="black"/>
<path d="M156.52 247.68V254C156.52 254 152.389 252.022 150.2 253.751C150.2 253.751 150.091 247.68 156.52 247.68Z" fill="black"/>
<path d="M162.84 247.68H156.521V254H162.84V247.68Z" fill="black"/>
<path d="M162.84 254V247.68C162.84 247.68 166.97 249.657 169.16 247.928C169.16 247.928 169.268 254 162.84 254Z" fill="black"/>
<path d="M194.44 247.68V254C194.44 254 190.309 252.022 188.12 253.751C188.12 253.751 188.011 247.68 194.44 247.68Z" fill="black"/>
<path d="M194.44 254V247.68C194.44 247.68 198.571 249.657 200.76 247.928C200.76 247.928 200.869 254 194.44 254Z" fill="black"/>
<path d="M222.88 247.68C224.625 247.68 226.04 249.094 226.04 250.84C226.04 252.585 224.625 254 222.88 254C221.135 254 219.72 252.585 219.72 250.84C219.72 249.094 221.135 247.68 222.88 247.68Z" fill="black"/>
<path d="M238.68 247.68H245C245 247.68 243.022 251.811 244.751 254C244.751 254 238.68 254.108 238.68 247.68Z" fill="black"/>
<path d="M109.12 96.4336C97.1439 96.4336 87.4341 106.143 87.4341 118.12C87.4341 130.096 97.1439 139.806 109.12 139.806C121.097 139.806 130.806 130.096 130.806 118.12C130.806 106.143 121.097 96.4336 109.12 96.4336ZM109.12 133.3C100.75 133.3 93.9399 126.49 93.9399 118.12C93.9399 109.749 100.75 102.939 109.12 102.939C117.491 102.939 124.301 109.749 124.301 118.12C124.301 126.49 117.491 133.3 109.12 133.3Z" fill="black"/>
<path d="M222.88 96.4336C210.904 96.4336 201.194 106.143 201.194 118.12C201.194 130.096 210.904 139.806 222.88 139.806C234.856 139.806 244.566 130.096 244.566 118.12C244.566 106.143 234.856 96.4336 222.88 96.4336ZM222.88 133.3C214.51 133.3 207.7 126.49 207.7 118.12C207.7 109.749 214.51 102.939 222.88 102.939C231.25 102.939 238.06 109.749 238.06 118.12C238.06 126.49 231.25 133.3 222.88 133.3Z" fill="black"/>
<path d="M109.12 210.193C97.1439 210.193 87.4341 219.903 87.4341 231.88C87.4341 243.856 97.1439 253.566 109.12 253.566C121.097 253.566 130.806 243.856 130.806 231.88C130.806 219.903 121.097 210.193 109.12 210.193ZM109.12 247.06C100.75 247.06 93.9399 240.25 93.9399 231.88C93.9399 223.509 100.75 216.699 109.12 216.699C117.491 216.699 124.301 223.509 124.301 231.88C124.301 240.25 117.491 247.06 109.12 247.06Z" fill="black"/>
<path d="M108.934 127.228C114.067 127.228 118.228 123.067 118.228 117.934C118.228 112.801 114.067 108.64 108.934 108.64C103.801 108.64 99.6401 112.801 99.6401 117.934C99.6401 123.067 103.801 127.228 108.934 127.228Z" fill="black"/>
<path d="M222.694 127.228C227.827 127.228 231.988 123.067 231.988 117.934C231.988 112.801 227.827 108.64 222.694 108.64C217.561 108.64 213.4 112.801 213.4 117.934C213.4 123.067 217.561 127.228 222.694 127.228Z" fill="black"/>
<path d="M108.934 240.988C114.067 240.988 118.228 236.826 118.228 231.694C118.228 226.561 114.067 222.399 108.934 222.399C103.801 222.399 99.6401 226.561 99.6401 231.694C99.6401 236.826 103.801 240.988 108.934 240.988Z" fill="black"/>
</svg>
