<svg className="cursor-pointer" width="333" height="348" viewBox="0 0 333 348" fill="none" xmlns="http://www.w3.org/2000/svg">
<circle cx="166.5" cy="174.5" r="127" fill="#F7F7F7" stroke="#F7F7F7"/>
<path d="M291.191 7H331.733V47.5414" stroke="#F7F7F7" stroke-width="2" stroke-linecap="round"/>
<path d="M291.191 342H331.733V301.459" stroke="#F7F7F7" stroke-width="2" stroke-linecap="round"/>
<path d="M41.5415 7H1.00011V47.5414" stroke="#F7F7F7" stroke-width="2" stroke-linecap="round"/>
<path d="M41.5415 342H1.00011V301.459" stroke="#F7F7F7" stroke-width="2" stroke-linecap="round"/>
<path d="M116.512 338.194C115.98 338.194 115.518 338.301 115.126 338.516C114.743 338.731 114.431 339.02 114.188 339.384C113.945 339.739 113.763 340.145 113.642 340.602C113.53 341.059 113.474 341.526 113.474 342.002C113.474 342.478 113.53 342.945 113.642 343.402C113.763 343.859 113.945 344.27 114.188 344.634C114.431 344.989 114.743 345.273 115.126 345.488C115.518 345.703 115.98 345.81 116.512 345.81C117.044 345.81 117.501 345.703 117.884 345.488C118.276 345.273 118.593 344.989 118.836 344.634C119.079 344.27 119.256 343.859 119.368 343.402C119.489 342.945 119.55 342.478 119.55 342.002C119.55 341.526 119.489 341.059 119.368 340.602C119.256 340.145 119.079 339.739 118.836 339.384C118.593 339.02 118.276 338.731 117.884 338.516C117.501 338.301 117.044 338.194 116.512 338.194ZM116.512 336.766C117.259 336.766 117.926 336.906 118.514 337.186C119.111 337.466 119.615 337.844 120.026 338.32C120.437 338.796 120.749 339.351 120.964 339.986C121.188 340.621 121.3 341.293 121.3 342.002C121.3 342.721 121.188 343.397 120.964 344.032C120.749 344.667 120.437 345.222 120.026 345.698C119.615 346.174 119.111 346.552 118.514 346.832C117.926 347.103 117.259 347.238 116.512 347.238C115.765 347.238 115.093 347.103 114.496 346.832C113.908 346.552 113.409 346.174 112.998 345.698C112.587 345.222 112.27 344.667 112.046 344.032C111.831 343.397 111.724 342.721 111.724 342.002C111.724 341.293 111.831 340.621 112.046 339.986C112.27 339.351 112.587 338.796 112.998 338.32C113.409 337.844 113.908 337.466 114.496 337.186C115.093 336.906 115.765 336.766 116.512 336.766ZM127.293 337.004H131.703C132.412 337.004 132.991 337.107 133.439 337.312C133.887 337.517 134.232 337.774 134.475 338.082C134.717 338.39 134.881 338.726 134.965 339.09C135.058 339.454 135.105 339.79 135.105 340.098C135.105 340.406 135.058 340.742 134.965 341.106C134.881 341.461 134.717 341.792 134.475 342.1C134.232 342.408 133.887 342.665 133.439 342.87C132.991 343.066 132.412 343.164 131.703 343.164H129.043V347H127.293V337.004ZM129.043 341.736H131.605C131.801 341.736 132.001 341.708 132.207 341.652C132.412 341.596 132.599 341.507 132.767 341.386C132.944 341.255 133.084 341.087 133.187 340.882C133.299 340.667 133.355 340.401 133.355 340.084C133.355 339.757 133.308 339.487 133.215 339.272C133.121 339.057 132.995 338.889 132.837 338.768C132.678 338.637 132.496 338.549 132.291 338.502C132.085 338.455 131.866 338.432 131.633 338.432H129.043V341.736ZM141.031 337.004H148.227V338.516H142.781V341.134H147.821V342.562H142.781V345.488H148.325V347H141.031V337.004ZM154.179 337.004H156.027L160.591 344.368H160.619V337.004H162.285V347H160.437L155.887 339.65H155.845V347H154.179V337.004ZM177.049 337.004H178.799V345.488H183.881V347H177.049V337.004ZM189.488 337.004H191.238V347H189.488V337.004ZM197.715 337.004H199.563L204.127 344.368H204.155V337.004H205.821V347H203.973L199.423 339.65H199.381V347H197.715V337.004ZM212.288 337.004H214.038V341.554L218.49 337.004H220.646L216.656 340.994L220.926 347H218.742L215.466 342.226L214.038 343.64V347H212.288V337.004Z" fill="#F7F7F7"/>
<path d="M95.2595 1.004H99.4035C100.169 1.004 100.832 1.13467 101.392 1.396C101.952 1.65733 102.409 2.01667 102.764 2.474C103.118 2.922 103.38 3.44933 103.548 4.056C103.725 4.66267 103.814 5.31133 103.814 6.002C103.814 6.69267 103.725 7.34133 103.548 7.948C103.38 8.55467 103.118 9.08667 102.764 9.544C102.409 9.992 101.952 10.3467 101.392 10.608C100.832 10.8693 100.169 11 99.4035 11H95.2595V1.004ZM97.0095 9.572H98.7315C99.4128 9.572 99.9682 9.48333 100.398 9.306C100.836 9.11933 101.177 8.86733 101.42 8.55C101.672 8.22333 101.84 7.84533 101.924 7.416C102.017 6.97733 102.064 6.506 102.064 6.002C102.064 5.498 102.017 5.03133 101.924 4.602C101.84 4.16333 101.672 3.78533 101.42 3.468C101.177 3.14133 100.836 2.88933 100.398 2.712C99.9682 2.52533 99.4128 2.432 98.7315 2.432H97.0095V9.572ZM109.763 1.004H111.513V11H109.763V1.004ZM126.782 11H125.662L125.396 9.824C124.929 10.356 124.462 10.7247 123.996 10.93C123.529 11.1353 122.992 11.238 122.386 11.238C121.639 11.238 120.967 11.1027 120.37 10.832C119.782 10.552 119.282 10.174 118.872 9.698C118.461 9.222 118.144 8.66667 117.92 8.032C117.705 7.39733 117.598 6.72067 117.598 6.002C117.598 5.29267 117.705 4.62067 117.92 3.986C118.144 3.35133 118.461 2.796 118.872 2.32C119.282 1.844 119.782 1.466 120.37 1.186C120.967 0.906 121.639 0.766 122.386 0.766C122.927 0.766 123.44 0.840666 123.926 0.99C124.42 1.13 124.859 1.34467 125.242 1.634C125.624 1.914 125.942 2.26867 126.194 2.698C126.446 3.12733 126.604 3.622 126.67 4.182H124.962C124.915 3.85533 124.812 3.57067 124.654 3.328C124.504 3.076 124.313 2.866 124.08 2.698C123.846 2.53 123.585 2.404 123.296 2.32C123.006 2.236 122.703 2.194 122.386 2.194C121.854 2.194 121.392 2.30133 121 2.516C120.617 2.73067 120.304 3.02 120.062 3.384C119.819 3.73867 119.637 4.14467 119.516 4.602C119.404 5.05933 119.348 5.526 119.348 6.002C119.348 6.478 119.404 6.94467 119.516 7.402C119.637 7.85933 119.819 8.27 120.062 8.634C120.304 8.98867 120.617 9.27333 121 9.488C121.392 9.70267 121.854 9.81 122.386 9.81C122.834 9.81933 123.23 9.76333 123.576 9.642C123.921 9.51133 124.21 9.32933 124.444 9.096C124.686 8.85333 124.868 8.55933 124.99 8.214C125.111 7.86867 125.176 7.486 125.186 7.066H122.526V5.736H126.782V11ZM133.083 1.004H134.833V11H133.083V1.004ZM140.427 1.004H148.519V2.516H145.341V11H143.591V2.516H140.427V1.004ZM155.467 1.004H157.329L161.179 11H159.303L158.365 8.354H154.375L153.437 11H151.631L155.467 1.004ZM154.851 7.024H157.903L156.405 2.726H156.363L154.851 7.024ZM166.531 1.004H168.281V9.488H173.363V11H166.531V1.004ZM194.014 4.182C193.939 3.89267 193.837 3.62667 193.706 3.384C193.575 3.14133 193.407 2.93133 193.202 2.754C192.997 2.57667 192.754 2.44133 192.474 2.348C192.203 2.24533 191.886 2.194 191.522 2.194C190.99 2.194 190.528 2.30133 190.136 2.516C189.753 2.73067 189.441 3.02 189.198 3.384C188.955 3.73867 188.773 4.14467 188.652 4.602C188.54 5.05933 188.484 5.526 188.484 6.002C188.484 6.478 188.54 6.94467 188.652 7.402C188.773 7.85933 188.955 8.27 189.198 8.634C189.441 8.98867 189.753 9.27333 190.136 9.488C190.528 9.70267 190.99 9.81 191.522 9.81C191.914 9.81 192.259 9.74467 192.558 9.614C192.857 9.474 193.113 9.28733 193.328 9.054C193.543 8.81133 193.711 8.53133 193.832 8.214C193.953 7.89667 194.033 7.556 194.07 7.192H195.778C195.741 7.78933 195.61 8.33533 195.386 8.83C195.171 9.32467 194.877 9.754 194.504 10.118C194.131 10.4727 193.692 10.748 193.188 10.944C192.684 11.14 192.129 11.238 191.522 11.238C190.775 11.238 190.103 11.1027 189.506 10.832C188.918 10.552 188.419 10.174 188.008 9.698C187.597 9.222 187.28 8.66667 187.056 8.032C186.841 7.39733 186.734 6.72067 186.734 6.002C186.734 5.29267 186.841 4.62067 187.056 3.986C187.28 3.35133 187.597 2.796 188.008 2.32C188.419 1.844 188.918 1.466 189.506 1.186C190.103 0.906 190.775 0.766 191.522 0.766C192.082 0.766 192.609 0.845333 193.104 1.004C193.599 1.15333 194.033 1.37733 194.406 1.676C194.789 1.96533 195.097 2.32 195.33 2.74C195.563 3.16 195.708 3.64067 195.764 4.182H194.014ZM204.444 1.004H206.306L210.156 11H208.28L207.342 8.354H203.352L202.414 11H200.608L204.444 1.004ZM203.828 7.024H206.88L205.382 2.726H205.34L203.828 7.024ZM215.508 1.004H220.282C221.383 1.004 222.209 1.242 222.76 1.718C223.31 2.194 223.586 2.85667 223.586 3.706C223.586 4.182 223.516 4.57867 223.376 4.896C223.236 5.204 223.072 5.456 222.886 5.652C222.699 5.83867 222.512 5.974 222.326 6.058C222.148 6.142 222.018 6.198 221.934 6.226V6.254C222.083 6.27267 222.242 6.31933 222.41 6.394C222.587 6.46867 222.75 6.59 222.9 6.758C223.049 6.91667 223.17 7.12667 223.264 7.388C223.366 7.64933 223.418 7.976 223.418 8.368C223.418 8.956 223.46 9.49267 223.544 9.978C223.637 10.454 223.777 10.7947 223.964 11H222.088C221.957 10.7853 221.878 10.5473 221.85 10.286C221.831 10.0247 221.822 9.77267 221.822 9.53C221.822 9.07267 221.794 8.68067 221.738 8.354C221.682 8.018 221.579 7.74267 221.43 7.528C221.28 7.304 221.075 7.14067 220.814 7.038C220.562 6.93533 220.235 6.884 219.834 6.884H217.258V11H215.508V1.004ZM217.258 5.554H220.128C220.688 5.554 221.112 5.42333 221.402 5.162C221.691 4.89133 221.836 4.49 221.836 3.958C221.836 3.64067 221.789 3.384 221.696 3.188C221.602 2.98267 221.472 2.824 221.304 2.712C221.145 2.6 220.958 2.52533 220.744 2.488C220.538 2.45067 220.324 2.432 220.1 2.432H217.258V5.554ZM229.765 1.004H233.909C234.674 1.004 235.337 1.13467 235.897 1.396C236.457 1.65733 236.914 2.01667 237.269 2.474C237.624 2.922 237.885 3.44933 238.053 4.056C238.23 4.66267 238.319 5.31133 238.319 6.002C238.319 6.69267 238.23 7.34133 238.053 7.948C237.885 8.55467 237.624 9.08667 237.269 9.544C236.914 9.992 236.457 10.3467 235.897 10.608C235.337 10.8693 234.674 11 233.909 11H229.765V1.004ZM231.515 9.572H233.237C233.918 9.572 234.474 9.48333 234.903 9.306C235.342 9.11933 235.682 8.86733 235.925 8.55C236.177 8.22333 236.345 7.84533 236.429 7.416C236.522 6.97733 236.569 6.506 236.569 6.002C236.569 5.498 236.522 5.03133 236.429 4.602C236.345 4.16333 236.177 3.78533 235.925 3.468C235.682 3.14133 235.342 2.88933 234.903 2.712C234.474 2.52533 233.918 2.432 233.237 2.432H231.515V9.572Z" fill="#F7F7F7"/>
<path d="M157.924 94.0005V99.5523C157.924 99.5523 154.358 97.815 152.468 99.3338C152.468 99.3338 152.374 94.0005 157.924 94.0005Z" fill="black"/>
<path d="M163.38 94.0005H157.924V99.5523H163.38V94.0005Z" fill="black"/>
<path d="M168.836 94.0005H163.38V99.5523H168.836V94.0005Z" fill="black"/>
<path d="M174.291 99.5518H168.836V94.0115V94H170.172C172.448 94 174.291 96.4856 174.291 99.5518Z" fill="black"/>
<path d="M185.202 94.0005V99.5523C185.202 99.5523 181.636 97.815 179.747 99.3338C179.747 99.3338 179.653 94.0005 185.202 94.0005Z" fill="black"/>
<path d="M185.203 99.5523V94.0005C185.203 94.0005 188.769 95.7374 190.659 94.2186C190.659 94.2186 190.752 99.5523 185.203 99.5523Z" fill="black"/>
<path d="M136.101 99.5518V105.104H130.657H130.646V103.743C130.646 101.427 133.088 99.5518 136.101 99.5518Z" fill="black"/>
<path d="M141.557 105.104H136.102V99.5633V99.5518H137.438C139.714 99.5518 141.557 102.037 141.557 105.104Z" fill="black"/>
<path d="M149.741 99.5522C151.247 99.5522 152.469 100.795 152.469 102.328C152.469 103.861 151.247 105.104 149.741 105.104C148.234 105.104 147.013 103.861 147.013 102.328C147.013 100.795 148.234 99.5522 149.741 99.5522Z" fill="black"/>
<path d="M168.835 99.5522H174.291C174.291 99.5522 172.584 103.181 174.076 105.104C174.076 105.104 168.835 105.199 168.835 99.5522Z" fill="black"/>
<path d="M198.842 99.5522C200.349 99.5522 201.57 100.795 201.57 102.328C201.57 103.861 200.349 105.104 198.842 105.104C197.336 105.104 196.114 103.861 196.114 102.328C196.114 100.795 197.336 99.5522 198.842 99.5522Z" fill="black"/>
<path d="M136.102 105.104H130.646V110.656H136.102V105.104Z" fill="black"/>
<path d="M141.558 105.104H136.102V110.656H141.558V105.104Z" fill="black"/>
<path d="M141.557 110.656V105.104C141.557 105.104 145.123 106.841 147.013 105.322C147.013 105.322 147.107 110.656 141.557 110.656Z" fill="black"/>
<path d="M157.924 110.656H152.469C152.469 110.656 154.176 107.027 152.683 105.104C152.683 105.104 157.924 105.009 157.924 110.656Z" fill="black"/>
<path d="M168.836 110.656H163.38C163.38 110.656 165.087 107.027 163.594 105.104C163.594 105.104 168.836 105.009 168.836 110.656Z" fill="black"/>
<path d="M177.019 105.104C178.526 105.104 179.747 106.347 179.747 107.88C179.747 109.413 178.526 110.656 177.019 110.656C175.513 110.656 174.292 109.413 174.292 107.88C174.292 106.347 175.513 105.104 177.019 105.104Z" fill="black"/>
<path d="M193.387 105.104C194.893 105.104 196.114 106.347 196.114 107.88C196.114 109.413 194.893 110.656 193.387 110.656C191.88 110.656 190.659 109.413 190.659 107.88C190.659 106.347 191.88 105.104 193.387 105.104Z" fill="black"/>
<path d="M130.646 110.656H136.102V116.196V116.207L134.765 116.208C132.49 116.208 130.646 113.722 130.646 110.656Z" fill="black"/>
<path d="M141.558 110.656H136.102V116.208H141.558V110.656Z" fill="black"/>
<path d="M152.468 110.656V116.208C152.468 116.208 148.902 114.47 147.013 115.989C147.013 115.989 146.919 110.656 152.468 110.656Z" fill="black"/>
<path d="M152.469 116.208V110.656H157.913H157.924V112.016C157.924 114.332 155.482 116.208 152.469 116.208Z" fill="black"/>
<path d="M168.836 110.656H163.38V116.208H168.836V110.656Z" fill="black"/>
<path d="M174.291 116.208H168.836V110.667V110.656H170.172C172.448 110.656 174.291 113.141 174.291 116.208Z" fill="black"/>
<path d="M185.203 116.208H179.747C179.747 116.208 181.454 112.579 179.962 110.656C179.962 110.656 185.203 110.561 185.203 116.208Z" fill="black"/>
<path d="M201.57 116.208H196.114C196.114 116.208 197.821 112.579 196.329 110.656C196.329 110.656 201.57 110.561 201.57 116.208Z" fill="black"/>
<path d="M136.101 116.208H141.557C141.557 116.208 139.85 119.836 141.342 121.759C141.342 121.759 136.101 121.854 136.101 116.208Z" fill="black"/>
<path d="M163.38 116.207V121.759H157.936H157.924V120.398C157.924 118.083 160.367 116.207 163.38 116.207Z" fill="black"/>
<path d="M168.836 116.208H163.38V121.759H168.836V116.208Z" fill="black"/>
<path d="M168.836 121.759V116.208H174.28H174.291V117.568C174.291 119.884 171.849 121.759 168.836 121.759Z" fill="black"/>
<path d="M179.747 116.207H185.203V121.747V121.758L183.866 121.759C181.591 121.759 179.747 119.273 179.747 116.207Z" fill="black"/>
<path d="M190.659 116.208H185.203V121.759H190.659V116.208Z" fill="black"/>
<path d="M196.114 116.208H190.659V121.759H196.114V116.208Z" fill="black"/>
<path d="M196.114 121.759V116.208H201.559H201.57V117.568C201.57 119.884 199.127 121.759 196.114 121.759Z" fill="black"/>
<path d="M149.741 121.759C151.247 121.759 152.469 123.002 152.469 124.535C152.469 126.068 151.247 127.311 149.741 127.311C148.234 127.311 147.013 126.068 147.013 124.535C147.013 123.002 148.234 121.759 149.741 121.759Z" fill="black"/>
<path d="M157.924 121.759H163.38V127.299V127.311L162.043 127.311C159.768 127.311 157.924 124.825 157.924 121.759Z" fill="black"/>
<path d="M168.836 121.759H163.38V127.311H168.836V121.759Z" fill="black"/>
<path d="M179.747 127.311H174.292C174.292 127.311 175.998 123.683 174.506 121.759C174.506 121.759 179.747 121.664 179.747 127.311Z" fill="black"/>
<path d="M136.102 132.863H130.646C130.646 132.863 132.353 129.235 130.86 127.312C130.86 127.312 136.102 127.216 136.102 132.863Z" fill="black"/>
<path d="M144.285 127.312C145.792 127.312 147.013 128.554 147.013 130.087C147.013 131.621 145.792 132.863 144.285 132.863C142.779 132.863 141.557 131.621 141.557 130.087C141.557 128.554 142.779 127.312 144.285 127.312Z" fill="black"/>
<path d="M155.197 127.312C156.703 127.312 157.924 128.554 157.924 130.087C157.924 131.621 156.703 132.863 155.197 132.863C153.69 132.863 152.469 131.621 152.469 130.087C152.469 128.554 153.69 127.312 155.197 127.312Z" fill="black"/>
<path d="M163.38 127.312H168.835C168.835 127.312 167.128 130.94 168.621 132.863C168.621 132.863 163.38 132.958 163.38 127.312Z" fill="black"/>
<path d="M174.291 127.312H179.747C179.747 127.312 178.04 130.94 179.532 132.863C179.532 132.863 174.291 132.958 174.291 127.312Z" fill="black"/>
<path d="M190.659 132.863H185.203C185.203 132.863 186.91 129.235 185.417 127.312C185.417 127.312 190.659 127.216 190.659 132.863Z" fill="black"/>
<path d="M198.842 127.312C200.349 127.312 201.57 128.554 201.57 130.087C201.57 131.621 200.349 132.863 198.842 132.863C197.336 132.863 196.114 131.621 196.114 130.087C196.114 128.554 197.336 127.312 198.842 127.312Z" fill="black"/>
<path d="M136.102 132.863H130.646V138.415H136.102V132.863Z" fill="black"/>
<path d="M136.102 138.415V132.863C136.102 132.863 139.667 134.6 141.558 133.081C141.558 133.081 141.651 138.415 136.102 138.415Z" fill="black"/>
<path d="M160.652 132.863C162.159 132.863 163.38 134.106 163.38 135.639C163.38 137.172 162.159 138.415 160.652 138.415C159.146 138.415 157.924 137.172 157.924 135.639C157.924 134.106 159.146 132.863 160.652 132.863Z" fill="black"/>
<path d="M190.659 132.863H185.203V138.415H190.659V132.863Z" fill="black"/>
<path d="M190.659 138.415V132.863C190.659 132.863 194.224 134.6 196.114 133.081C196.114 133.081 196.208 138.415 190.659 138.415Z" fill="black"/>
<path d="M92.4562 143.967H87.0005C87.0005 143.967 88.7073 140.338 87.2148 138.415C87.2148 138.415 92.4562 138.32 92.4562 143.967Z" fill="black"/>
<path d="M122.462 138.415C123.969 138.415 125.19 139.658 125.19 141.191C125.19 142.724 123.969 143.967 122.462 143.967C120.956 143.967 119.735 142.724 119.735 141.191C119.735 139.658 120.956 138.415 122.462 138.415Z" fill="black"/>
<path d="M130.646 138.415H136.101C136.101 138.415 134.394 142.044 135.886 143.967C135.886 143.967 130.646 144.062 130.646 138.415Z" fill="black"/>
<path d="M152.469 143.967H147.013C147.013 143.967 148.72 140.338 147.227 138.415C147.227 138.415 152.469 138.32 152.469 143.967Z" fill="black"/>
<path d="M168.835 138.415V143.966H163.391H163.38V142.606C163.38 140.29 165.822 138.415 168.835 138.415Z" fill="black"/>
<path d="M168.836 143.967V138.415C168.836 138.415 172.401 140.152 174.291 138.633C174.291 138.633 174.385 143.967 168.836 143.967Z" fill="black"/>
<path d="M185.203 138.415V143.966H179.759H179.747V142.606C179.747 140.29 182.19 138.415 185.203 138.415Z" fill="black"/>
<path d="M190.659 138.415H185.203V143.967H190.659V138.415Z" fill="black"/>
<path d="M201.57 138.415V143.967C201.57 143.967 198.003 142.23 196.114 143.748C196.114 143.748 196.02 138.415 201.57 138.415Z" fill="black"/>
<path d="M207.026 138.415H201.57V143.967H207.026V138.415Z" fill="black"/>
<path d="M207.026 143.967V138.415C207.026 138.415 210.591 140.152 212.481 138.633C212.481 138.633 212.575 143.967 207.026 143.967Z" fill="black"/>
<path d="M228.848 138.415V143.967C228.848 143.967 225.282 142.23 223.392 143.748C223.392 143.748 223.299 138.415 228.848 138.415Z" fill="black"/>
<path d="M234.304 138.415H228.848V143.967H234.304V138.415Z" fill="black"/>
<path d="M239.76 143.966H234.304V138.426V138.415H235.641C237.916 138.415 239.76 140.9 239.76 143.966Z" fill="black"/>
<path d="M92.4562 143.967H87.0005V149.519H92.4562V143.967Z" fill="black"/>
<path d="M97.912 143.967H92.4563V149.519H97.912V143.967Z" fill="black"/>
<path d="M97.9119 149.519V143.967C97.9119 143.967 101.478 145.704 103.368 144.185C103.368 144.185 103.461 149.519 97.9119 149.519Z" fill="black"/>
<path d="M130.646 149.519H125.19C125.19 149.519 126.897 145.89 125.405 143.967C125.405 143.967 130.646 143.872 130.646 149.519Z" fill="black"/>
<path d="M141.557 143.967V149.519C141.557 149.519 137.991 147.781 136.101 149.3C136.101 149.3 136.007 143.967 141.557 143.967Z" fill="black"/>
<path d="M147.013 143.967H141.557V149.519H147.013V143.967Z" fill="black"/>
<path d="M152.469 143.967H147.013V149.519H152.469V143.967Z" fill="black"/>
<path d="M152.469 149.519V143.967C152.469 143.967 156.034 145.704 157.924 144.185C157.924 144.185 158.018 149.519 152.469 149.519Z" fill="black"/>
<path d="M163.38 143.967H168.835C168.835 143.967 167.128 147.596 168.621 149.519C168.621 149.519 163.38 149.614 163.38 143.967Z" fill="black"/>
<path d="M185.203 143.967H179.747V149.519H185.203V143.967Z" fill="black"/>
<path d="M190.659 143.967H185.203V149.519H190.659V143.967Z" fill="black"/>
<path d="M190.659 149.519V143.967C190.659 143.967 194.224 145.704 196.114 144.185C196.114 144.185 196.208 149.519 190.659 149.519Z" fill="black"/>
<path d="M217.937 143.967V149.519C217.937 149.519 214.371 147.781 212.481 149.3C212.481 149.3 212.387 143.967 217.937 143.967Z" fill="black"/>
<path d="M223.392 149.518H217.937V143.978V143.966H219.274C221.549 143.966 223.392 146.452 223.392 149.518Z" fill="black"/>
<path d="M228.848 143.966H234.304V149.506V149.518L232.967 149.518C230.692 149.518 228.848 147.032 228.848 143.966Z" fill="black"/>
<path d="M234.304 149.519V143.967H239.749H239.76V145.327C239.76 147.643 237.317 149.519 234.304 149.519Z" fill="black"/>
<path d="M92.4562 149.518H87.0005V155.07H92.4562V149.518Z" fill="black"/>
<path d="M108.823 149.518V155.07C108.823 155.07 105.257 153.333 103.367 154.851C103.367 154.851 103.273 149.518 108.823 149.518Z" fill="black"/>
<path d="M114.279 155.07H108.823V149.53V149.518H110.16C112.435 149.518 114.279 152.004 114.279 155.07Z" fill="black"/>
<path d="M125.19 149.518V155.07C125.19 155.07 121.624 153.333 119.734 154.851C119.734 154.851 119.64 149.518 125.19 149.518Z" fill="black"/>
<path d="M125.19 155.07V149.518H130.635H130.646V150.878C130.646 153.194 128.203 155.07 125.19 155.07Z" fill="black"/>
<path d="M141.557 149.518H147.013C147.013 149.518 145.306 153.147 146.798 155.07C146.798 155.07 141.557 155.165 141.557 149.518Z" fill="black"/>
<path d="M179.747 149.518H185.203C185.203 149.518 183.495 153.147 184.988 155.07C184.988 155.07 179.747 155.165 179.747 149.518Z" fill="black"/>
<path d="M201.57 149.518V155.07H196.126H196.114V153.709C196.114 151.394 198.556 149.518 201.57 149.518Z" fill="black"/>
<path d="M207.025 155.07H201.57V149.53V149.518H202.907C205.182 149.518 207.025 152.004 207.025 155.07Z" fill="black"/>
<path d="M217.937 149.518H223.392C223.392 149.518 221.685 153.147 223.178 155.07C223.178 155.07 217.937 155.165 217.937 149.518Z" fill="black"/>
<path d="M92.4562 155.07H87.0005V160.622H92.4562V155.07Z" fill="black"/>
<path d="M103.368 160.622H97.9119C97.9119 160.622 99.6187 156.994 98.1262 155.07C98.1262 155.07 103.368 154.975 103.368 160.622Z" fill="black"/>
<path d="M108.823 155.07H114.278C114.278 155.07 112.571 158.699 114.064 160.622C114.064 160.622 108.823 160.717 108.823 155.07Z" fill="black"/>
<path d="M136.101 155.07V160.622C136.101 160.622 132.535 158.885 130.646 160.404C130.646 160.404 130.552 155.07 136.101 155.07Z" fill="black"/>
<path d="M136.102 160.622V155.07C136.102 155.07 139.667 156.807 141.558 155.288C141.558 155.288 141.651 160.622 136.102 160.622Z" fill="black"/>
<path d="M152.468 155.07V160.622H147.024H147.013V159.261C147.013 156.946 149.455 155.07 152.468 155.07Z" fill="black"/>
<path d="M152.469 160.622V155.07C152.469 155.07 156.034 156.807 157.924 155.288C157.924 155.288 158.018 160.622 152.469 160.622Z" fill="black"/>
<path d="M168.835 155.07V160.622H163.391H163.38V159.261C163.38 156.946 165.822 155.07 168.835 155.07Z" fill="black"/>
<path d="M174.291 155.07H168.836V160.622H174.291V155.07Z" fill="black"/>
<path d="M174.292 160.622V155.07C174.292 155.07 177.857 156.807 179.747 155.288C179.747 155.288 179.841 160.622 174.292 160.622Z" fill="black"/>
<path d="M187.931 155.07C189.437 155.07 190.659 156.313 190.659 157.846C190.659 159.379 189.437 160.622 187.931 160.622C186.424 160.622 185.203 159.379 185.203 157.846C185.203 156.313 186.424 155.07 187.931 155.07Z" fill="black"/>
<path d="M201.57 155.07H196.114V160.622H201.57V155.07Z" fill="black"/>
<path d="M201.57 160.622V155.07H207.014H207.026V156.431C207.026 158.746 204.583 160.622 201.57 160.622Z" fill="black"/>
<path d="M226.12 155.07C227.627 155.07 228.848 156.313 228.848 157.846C228.848 159.379 227.627 160.622 226.12 160.622C224.614 160.622 223.393 159.379 223.393 157.846C223.393 156.313 224.614 155.07 226.12 155.07Z" fill="black"/>
<path d="M92.4562 160.622H87.0005V166.174H92.4562V160.622Z" fill="black"/>
<path d="M97.9119 160.622H103.368V166.161V166.173L102.031 166.173C99.7555 166.173 97.9119 163.688 97.9119 160.622Z" fill="black"/>
<path d="M108.823 166.173H103.367V160.633V160.622H104.704C106.979 160.622 108.823 163.107 108.823 166.173Z" fill="black"/>
<path d="M119.734 160.622V166.173H114.29H114.279V164.813C114.279 162.497 116.721 160.622 119.734 160.622Z" fill="black"/>
<path d="M125.19 160.622H119.735V166.174H125.19V160.622Z" fill="black"/>
<path d="M125.19 166.174V160.622C125.19 160.622 128.756 162.359 130.646 160.84C130.646 160.84 130.739 166.174 125.19 166.174Z" fill="black"/>
<path d="M147.013 160.622V166.173H141.569H141.557V164.813C141.557 162.497 144 160.622 147.013 160.622Z" fill="black"/>
<path d="M147.013 166.174V160.622H152.457H152.469V161.982C152.469 164.298 150.026 166.174 147.013 166.174Z" fill="black"/>
<path d="M163.38 160.622V166.173H157.936H157.924V164.813C157.924 162.497 160.367 160.622 163.38 160.622Z" fill="black"/>
<path d="M168.836 160.622H163.38V166.174H168.836V160.622Z" fill="black"/>
<path d="M196.114 160.622V166.173H190.67H190.659V164.813C190.659 162.497 193.101 160.622 196.114 160.622Z" fill="black"/>
<path d="M201.57 160.622H196.114V166.174H201.57V160.622Z" fill="black"/>
<path d="M212.481 160.622V166.173H207.037H207.026V164.813C207.026 162.497 209.468 160.622 212.481 160.622Z" fill="black"/>
<path d="M217.937 166.173H212.481V160.633V160.622H213.818C216.094 160.622 217.937 163.107 217.937 166.173Z" fill="black"/>
<path d="M245.215 166.174H239.76C239.76 166.174 241.467 162.545 239.974 160.622C239.974 160.622 245.215 160.527 245.215 166.174Z" fill="black"/>
<path d="M87.0005 166.173H92.4562V171.713V171.725L91.1191 171.725C88.8441 171.725 87.0005 169.24 87.0005 166.173Z" fill="black"/>
<path d="M97.9116 171.725H92.4563V166.185V166.173H93.7929C96.0684 166.173 97.9116 168.659 97.9116 171.725Z" fill="black"/>
<path d="M108.823 166.174H103.367V171.726H108.823V166.174Z" fill="black"/>
<path d="M114.279 166.174H108.823V171.726H114.279V166.174Z" fill="black"/>
<path d="M114.279 171.726V166.174H119.723H119.735V167.534C119.735 169.85 117.292 171.726 114.279 171.726Z" fill="black"/>
<path d="M141.557 166.173V171.725H136.113H136.102V170.365C136.102 168.049 138.544 166.173 141.557 166.173Z" fill="black"/>
<path d="M147.013 166.174H141.557V171.726H147.013V166.174Z" fill="black"/>
<path d="M157.924 166.173V171.725H152.48H152.469V170.365C152.469 168.049 154.911 166.173 157.924 166.173Z" fill="black"/>
<path d="M163.38 166.174H157.924V171.726H163.38V166.174Z" fill="black"/>
<path d="M168.836 166.174H163.38V171.726H168.836V166.174Z" fill="black"/>
<path d="M190.658 166.173V171.725H185.214H185.203V170.365C185.203 168.049 187.645 166.173 190.658 166.173Z" fill="black"/>
<path d="M196.114 166.174H190.659V171.726H196.114V166.174Z" fill="black"/>
<path d="M196.114 171.726V166.174H201.559H201.57V167.534C201.57 169.85 199.127 171.726 196.114 171.726Z" fill="black"/>
<path d="M212.481 166.174H207.026V171.726H212.481V166.174Z" fill="black"/>
<path d="M217.937 166.174H212.481V171.726H217.937V166.174Z" fill="black"/>
<path d="M217.937 171.726V166.174C217.937 166.174 221.503 167.911 223.393 166.392C223.393 166.392 223.486 171.726 217.937 171.726Z" fill="black"/>
<path d="M239.759 166.174V171.726C239.759 171.726 236.193 169.988 234.304 171.507C234.304 171.507 234.21 166.174 239.759 166.174Z" fill="black"/>
<path d="M239.76 171.726V166.174H245.204H245.215V167.534C245.215 169.85 242.773 171.726 239.76 171.726Z" fill="black"/>
<path d="M92.4558 171.726H97.9115C97.9115 171.726 96.2043 175.354 97.6968 177.277C97.6968 177.277 92.4558 177.373 92.4558 171.726Z" fill="black"/>
<path d="M103.367 171.726H108.823C108.823 171.726 107.115 175.354 108.608 177.277C108.608 177.277 103.367 177.373 103.367 171.726Z" fill="black"/>
<path d="M122.462 171.726C123.969 171.726 125.19 172.968 125.19 174.501C125.19 176.035 123.969 177.277 122.462 177.277C120.956 177.277 119.735 176.035 119.735 174.501C119.735 172.968 120.956 171.726 122.462 171.726Z" fill="black"/>
<path d="M141.558 171.726H136.102V177.277H141.558V171.726Z" fill="black"/>
<path d="M141.557 177.277V171.726H147.002H147.013V173.086C147.013 175.402 144.57 177.277 141.557 177.277Z" fill="black"/>
<path d="M157.924 171.726H152.469V177.277H157.924V171.726Z" fill="black"/>
<path d="M163.38 171.726H157.924V177.277H163.38V171.726Z" fill="black"/>
<path d="M168.836 171.726H163.38V177.277H168.836V171.726Z" fill="black"/>
<path d="M174.291 171.726H168.836V177.277H174.291V171.726Z" fill="black"/>
<path d="M179.747 177.277H174.292V171.737V171.726H175.628C177.904 171.726 179.747 174.211 179.747 177.277Z" fill="black"/>
<path d="M185.203 171.726H190.658C190.658 171.726 188.951 175.354 190.444 177.277C190.444 177.277 185.203 177.373 185.203 171.726Z" fill="black"/>
<path d="M207.025 171.726V177.277H201.581H201.57V175.917C201.57 173.601 204.012 171.726 207.025 171.726Z" fill="black"/>
<path d="M212.481 171.726H207.026V177.277H212.481V171.726Z" fill="black"/>
<path d="M212.481 177.277V171.726H217.926H217.937V173.086C217.937 175.402 215.495 177.277 212.481 177.277Z" fill="black"/>
<path d="M228.848 171.726V177.277C228.848 177.277 225.282 175.54 223.392 177.059C223.392 177.059 223.299 171.726 228.848 171.726Z" fill="black"/>
<path d="M234.304 177.277H228.848V171.737V171.726H230.185C232.46 171.726 234.304 174.211 234.304 177.277Z" fill="black"/>
<path d="M92.4562 182.829H87.0005C87.0005 182.829 88.7073 179.201 87.2148 177.277C87.2148 177.277 92.4562 177.182 92.4562 182.829Z" fill="black"/>
<path d="M100.64 177.277C102.146 177.277 103.368 178.52 103.368 180.053C103.368 181.586 102.146 182.829 100.64 182.829C99.1332 182.829 97.9119 181.586 97.9119 180.053C97.9119 178.52 99.1332 177.277 100.64 177.277Z" fill="black"/>
<path d="M114.279 182.829H108.823C108.823 182.829 110.53 179.201 109.038 177.277C109.038 177.277 114.279 177.182 114.279 182.829Z" fill="black"/>
<path d="M136.101 177.277V182.829H130.657H130.646V181.468C130.646 179.153 133.088 177.277 136.101 177.277Z" fill="black"/>
<path d="M136.102 182.829V177.277H141.546H141.558V178.638C141.558 180.953 139.115 182.829 136.102 182.829Z" fill="black"/>
<path d="M152.469 177.277H157.924V182.817V182.828L156.587 182.829C154.312 182.829 152.469 180.343 152.469 177.277Z" fill="black"/>
<path d="M163.38 177.277H157.924V182.829H163.38V177.277Z" fill="black"/>
<path d="M168.836 177.277H163.38V182.829H168.836V177.277Z" fill="black"/>
<path d="M174.291 177.277H179.747C179.747 177.277 178.04 180.906 179.532 182.829C179.532 182.829 174.291 182.924 174.291 177.277Z" fill="black"/>
<path d="M193.387 177.277C194.893 177.277 196.114 178.52 196.114 180.053C196.114 181.586 194.893 182.829 193.387 182.829C191.88 182.829 190.659 181.586 190.659 180.053C190.659 178.52 191.88 177.277 193.387 177.277Z" fill="black"/>
<path d="M201.57 177.277H207.025C207.025 177.277 205.318 180.906 206.811 182.829C206.811 182.829 201.57 182.924 201.57 177.277Z" fill="black"/>
<path d="M220.665 177.277C222.171 177.277 223.393 178.52 223.393 180.053C223.393 181.586 222.171 182.829 220.665 182.829C219.158 182.829 217.937 181.586 217.937 180.053C217.937 178.52 219.158 177.277 220.665 177.277Z" fill="black"/>
<path d="M234.304 177.277H228.848V182.829H234.304V177.277Z" fill="black"/>
<path d="M242.488 177.277C243.994 177.277 245.215 178.52 245.215 180.053C245.215 181.586 243.994 182.829 242.488 182.829C240.981 182.829 239.76 181.586 239.76 180.053C239.76 178.52 240.981 177.277 242.488 177.277Z" fill="black"/>
<path d="M92.4562 182.829H87.0005V188.381H92.4562V182.829Z" fill="black"/>
<path d="M108.823 182.829V188.381C108.823 188.381 105.257 186.644 103.367 188.162C103.367 188.162 103.273 182.829 108.823 182.829Z" fill="black"/>
<path d="M114.279 182.829H108.823V188.381H114.279V182.829Z" fill="black"/>
<path d="M122.462 182.829C123.969 182.829 125.19 184.072 125.19 185.605C125.19 187.138 123.969 188.381 122.462 188.381C120.956 188.381 119.735 187.138 119.735 185.605C119.735 184.072 120.956 182.829 122.462 182.829Z" fill="black"/>
<path d="M136.102 182.829H130.646V188.381H136.102V182.829Z" fill="black"/>
<path d="M152.469 188.381H147.013C147.013 188.381 148.72 184.753 147.227 182.829C147.227 182.829 152.469 182.734 152.469 188.381Z" fill="black"/>
<path d="M163.38 182.829H168.836V188.369V188.38L167.499 188.38C165.224 188.38 163.38 185.895 163.38 182.829Z" fill="black"/>
<path d="M168.836 188.381V182.829C168.836 182.829 172.401 184.566 174.291 183.047C174.291 183.047 174.385 188.381 168.836 188.381Z" fill="black"/>
<path d="M182.475 182.829C183.982 182.829 185.203 184.072 185.203 185.605C185.203 187.138 183.982 188.381 182.475 188.381C180.969 188.381 179.747 187.138 179.747 185.605C179.747 184.072 180.969 182.829 182.475 182.829Z" fill="black"/>
<path d="M201.57 188.381H196.114C196.114 188.381 197.821 184.753 196.329 182.829C196.329 182.829 201.57 182.734 201.57 188.381Z" fill="black"/>
<path d="M228.848 182.829V188.381C228.848 188.381 225.282 186.644 223.392 188.162C223.392 188.162 223.299 182.829 228.848 182.829Z" fill="black"/>
<path d="M234.304 182.829H228.848V188.381H234.304V182.829Z" fill="black"/>
<path d="M92.4562 188.381H87.0005V193.933H92.4562V188.381Z" fill="black"/>
<path d="M97.9116 193.933H92.4563V188.392V188.381H93.7929C96.0684 188.381 97.9116 190.866 97.9116 193.933Z" fill="black"/>
<path d="M114.279 188.381H108.823V193.933H114.279V188.381Z" fill="black"/>
<path d="M114.279 193.933V188.381C114.279 188.381 117.844 190.118 119.735 188.599C119.735 188.599 119.828 193.933 114.279 193.933Z" fill="black"/>
<path d="M130.646 188.381H136.101C136.101 188.381 134.394 192.01 135.886 193.933C135.886 193.933 130.646 194.028 130.646 188.381Z" fill="black"/>
<path d="M147.013 188.381V193.933C147.013 193.933 143.447 192.196 141.557 193.715C141.557 193.715 141.463 188.381 147.013 188.381Z" fill="black"/>
<path d="M152.469 188.381H147.013V193.933H152.469V188.381Z" fill="black"/>
<path d="M152.469 193.933V188.381C152.469 188.381 156.034 190.118 157.924 188.599C157.924 188.599 158.018 193.933 152.469 193.933Z" fill="black"/>
<path d="M179.747 193.933H174.292C174.292 193.933 175.998 190.305 174.506 188.381C174.506 188.381 179.747 188.286 179.747 193.933Z" fill="black"/>
<path d="M196.114 188.381V193.933H190.67H190.659V192.572C190.659 190.257 193.101 188.381 196.114 188.381Z" fill="black"/>
<path d="M201.57 188.381H196.114V193.933H201.57V188.381Z" fill="black"/>
<path d="M212.481 188.381V193.933C212.481 193.933 208.915 192.196 207.025 193.715C207.025 193.715 206.931 188.381 212.481 188.381Z" fill="black"/>
<path d="M217.937 188.381H212.481V193.933H217.937V188.381Z" fill="black"/>
<path d="M223.392 193.933H217.937V188.392V188.381H219.274C221.549 188.381 223.392 190.866 223.392 193.933Z" fill="black"/>
<path d="M228.848 188.381H234.304V193.921V193.932L232.967 193.933C230.692 193.933 228.848 191.447 228.848 188.381Z" fill="black"/>
<path d="M239.76 188.381H234.304V193.933H239.76V188.381Z" fill="black"/>
<path d="M245.215 193.933H239.76V188.392V188.381H241.096C243.372 188.381 245.215 190.866 245.215 193.933Z" fill="black"/>
<path d="M92.4562 193.933H87.0005V199.485H92.4562V193.933Z" fill="black"/>
<path d="M92.4563 199.485V193.933H97.9007H97.912V195.293C97.912 197.609 95.4694 199.485 92.4563 199.485Z" fill="black"/>
<path d="M114.279 193.933H108.823V199.485H114.279V193.933Z" fill="black"/>
<path d="M122.462 193.933C123.969 193.933 125.19 195.176 125.19 196.709C125.19 198.242 123.969 199.485 122.462 199.485C120.956 199.485 119.735 198.242 119.735 196.709C119.735 195.176 120.956 193.933 122.462 193.933Z" fill="black"/>
<path d="M141.558 199.485H136.102C136.102 199.485 137.809 195.857 136.316 193.933C136.316 193.933 141.558 193.838 141.558 199.485Z" fill="black"/>
<path d="M163.38 193.933V199.485C163.38 199.485 159.814 197.748 157.924 199.266C157.924 199.266 157.83 193.933 163.38 193.933Z" fill="black"/>
<path d="M168.835 199.484H163.38V193.944V193.932H164.717C166.992 193.932 168.835 196.418 168.835 199.484Z" fill="black"/>
<path d="M179.747 193.933H174.292V199.485H179.747V193.933Z" fill="black"/>
<path d="M185.203 193.933H179.747V199.485H185.203V193.933Z" fill="black"/>
<path d="M190.659 193.933H185.203V199.485H190.659V193.933Z" fill="black"/>
<path d="M196.114 193.933H190.659V199.485H196.114V193.933Z" fill="black"/>
<path d="M201.57 193.933H196.114V199.485H201.57V193.933Z" fill="black"/>
<path d="M201.57 199.485V193.933C201.57 193.933 205.136 195.67 207.026 194.151C207.026 194.151 207.119 199.485 201.57 199.485Z" fill="black"/>
<path d="M223.393 193.933H217.937V199.485H223.393V193.933Z" fill="black"/>
<path d="M223.393 199.485V193.933C223.393 193.933 226.958 195.67 228.848 194.151C228.848 194.151 228.942 199.485 223.393 199.485Z" fill="black"/>
<path d="M239.76 193.933H245.215C245.215 193.933 243.508 197.562 245 199.485C245 199.485 239.76 199.58 239.76 193.933Z" fill="black"/>
<path d="M92.4562 199.484H87.0005V205.036H92.4562V199.484Z" fill="black"/>
<path d="M103.367 199.484V205.036C103.367 205.036 99.8011 203.299 97.9115 204.818C97.9115 204.818 97.8176 199.484 103.367 199.484Z" fill="black"/>
<path d="M108.823 199.484H103.367V205.036H108.823V199.484Z" fill="black"/>
<path d="M114.279 199.484H108.823V205.036H114.279V199.484Z" fill="black"/>
<path d="M119.734 205.036H114.279V199.496V199.484H115.615C117.891 199.484 119.734 201.97 119.734 205.036Z" fill="black"/>
<path d="M136.101 199.484V205.036H130.657H130.646V203.676C130.646 201.36 133.088 199.484 136.101 199.484Z" fill="black"/>
<path d="M141.558 199.484H136.102V205.036H141.558V199.484Z" fill="black"/>
<path d="M152.468 199.484V205.036C152.468 205.036 148.902 203.299 147.013 204.818C147.013 204.818 146.919 199.484 152.468 199.484Z" fill="black"/>
<path d="M152.469 205.036V199.484C152.469 199.484 156.034 201.221 157.924 199.702C157.924 199.702 158.018 205.036 152.469 205.036Z" fill="black"/>
<path d="M163.38 199.484H168.836V205.024V205.036L167.499 205.036C165.224 205.036 163.38 202.551 163.38 199.484Z" fill="black"/>
<path d="M174.291 199.484H168.836V205.036H174.291V199.484Z" fill="black"/>
<path d="M179.747 199.484H174.292V205.036H179.747V199.484Z" fill="black"/>
<path d="M185.203 199.484H190.659V205.024V205.036L189.322 205.036C187.047 205.036 185.203 202.551 185.203 199.484Z" fill="black"/>
<path d="M196.114 199.484H190.659V205.036H196.114V199.484Z" fill="black"/>
<path d="M201.57 199.484H196.114V205.036H201.57V199.484Z" fill="black"/>
<path d="M217.937 199.484V205.036H212.493H212.481V203.676C212.481 201.36 214.924 199.484 217.937 199.484Z" fill="black"/>
<path d="M223.393 199.484H217.937V205.036H223.393V199.484Z" fill="black"/>
<path d="M87 205.036H92.4557C92.4557 205.036 90.7485 208.665 92.241 210.588C92.241 210.588 87 210.683 87 205.036Z" fill="black"/>
<path d="M108.823 205.036H114.279V210.576V210.588L112.942 210.588C110.667 210.588 108.823 208.102 108.823 205.036Z" fill="black"/>
<path d="M119.735 205.036H114.279V210.588H119.735V205.036Z" fill="black"/>
<path d="M119.735 210.588V205.036C119.735 205.036 123.3 206.773 125.19 205.254C125.19 205.254 125.284 210.588 119.735 210.588Z" fill="black"/>
<path d="M136.102 205.036H130.646V210.588H136.102V205.036Z" fill="black"/>
<path d="M141.558 205.036H136.102V210.588H141.558V205.036Z" fill="black"/>
<path d="M147.013 210.588H141.557V205.048V205.036H142.894C145.169 205.036 147.013 207.522 147.013 210.588Z" fill="black"/>
<path d="M179.747 205.036H174.292V210.588H179.747V205.036Z" fill="black"/>
<path d="M179.747 210.588V205.036C179.747 205.036 183.313 206.773 185.203 205.254C185.203 205.254 185.297 210.588 179.747 210.588Z" fill="black"/>
<path d="M190.659 205.036H196.114V210.576V210.588L194.777 210.588C192.502 210.588 190.659 208.102 190.659 205.036Z" fill="black"/>
<path d="M201.57 205.036H196.114V210.588H201.57V205.036Z" fill="black"/>
<path d="M207.026 205.036H201.57V210.588H207.026V205.036Z" fill="black"/>
<path d="M212.481 205.036H207.026V210.588H212.481V205.036Z" fill="black"/>
<path d="M217.937 205.036H212.481V210.588H217.937V205.036Z" fill="black"/>
<path d="M223.393 205.036H217.937V210.588H223.393V205.036Z" fill="black"/>
<path d="M234.304 205.036V210.588C234.304 210.588 230.738 208.851 228.848 210.369C228.848 210.369 228.754 205.036 234.304 205.036Z" fill="black"/>
<path d="M239.76 205.036H234.304V210.588H239.76V205.036Z" fill="black"/>
<path d="M239.76 210.588V205.036C239.76 205.036 243.325 206.773 245.215 205.254C245.215 205.254 245.309 210.588 239.76 210.588Z" fill="black"/>
<path d="M130.646 210.588H136.101C136.101 210.588 134.394 214.217 135.886 216.14C135.886 216.14 130.646 216.235 130.646 210.588Z" fill="black"/>
<path d="M141.557 210.588H147.013C147.013 210.588 145.306 214.217 146.798 216.14C146.798 216.14 141.557 216.235 141.557 210.588Z" fill="black"/>
<path d="M157.924 210.588V216.14C157.924 216.14 154.358 214.402 152.468 215.921C152.468 215.921 152.374 210.588 157.924 210.588Z" fill="black"/>
<path d="M163.38 216.14H157.924V210.599V210.588H159.261C161.536 210.588 163.38 213.074 163.38 216.14Z" fill="black"/>
<path d="M179.747 210.588H174.292V216.14H179.747V210.588Z" fill="black"/>
<path d="M201.57 210.588H196.114V216.14H201.57V210.588Z" fill="black"/>
<path d="M223.393 210.588H217.937V216.14H223.393V210.588Z" fill="black"/>
<path d="M228.848 216.14H223.393V210.599V210.588H224.729C227.005 210.588 228.848 213.074 228.848 216.14Z" fill="black"/>
<path d="M141.558 221.692H136.102C136.102 221.692 137.809 218.064 136.316 216.14C136.316 216.14 141.558 216.045 141.558 221.692Z" fill="black"/>
<path d="M152.469 221.692H147.013C147.013 221.692 148.72 218.064 147.227 216.14C147.227 216.14 152.469 216.045 152.469 221.692Z" fill="black"/>
<path d="M163.38 216.14H157.924V221.692H163.38V216.14Z" fill="black"/>
<path d="M168.836 216.14H163.38V221.692H168.836V216.14Z" fill="black"/>
<path d="M174.291 216.14H168.836V221.692H174.291V216.14Z" fill="black"/>
<path d="M174.292 221.692V216.14H179.736H179.747V217.5C179.747 219.816 177.305 221.692 174.292 221.692Z" fill="black"/>
<path d="M190.658 216.14V221.691H185.214H185.203V220.331C185.203 218.015 187.645 216.14 190.658 216.14Z" fill="black"/>
<path d="M196.114 216.14H190.659V221.692H196.114V216.14Z" fill="black"/>
<path d="M201.57 216.14H196.114V221.692H201.57V216.14Z" fill="black"/>
<path d="M209.753 216.14C211.26 216.14 212.481 217.383 212.481 218.916C212.481 220.449 211.26 221.692 209.753 221.692C208.247 221.692 207.026 220.449 207.026 218.916C207.026 217.383 208.247 216.14 209.753 216.14Z" fill="black"/>
<path d="M223.393 216.14H217.937V221.692H223.393V216.14Z" fill="black"/>
<path d="M228.848 216.14H223.393V221.692H228.848V216.14Z" fill="black"/>
<path d="M228.848 221.692V216.14C228.848 216.14 232.414 217.877 234.304 216.358C234.304 216.358 234.398 221.692 228.848 221.692Z" fill="black"/>
<path d="M141.558 221.692H136.102V227.244H141.558V221.692Z" fill="black"/>
<path d="M147.013 221.692H141.557V227.244H147.013V221.692Z" fill="black"/>
<path d="M147.013 227.244V221.692H152.457H152.469V223.052C152.469 225.368 150.026 227.244 147.013 227.244Z" fill="black"/>
<path d="M163.38 221.692H157.924V227.244H163.38V221.692Z" fill="black"/>
<path d="M190.659 221.692H185.203V227.244H190.659V221.692Z" fill="black"/>
<path d="M201.57 221.692H196.114V227.244H201.57V221.692Z" fill="black"/>
<path d="M223.393 221.692H217.937V227.244H223.393V221.692Z" fill="black"/>
<path d="M237.032 221.692C238.539 221.692 239.76 222.935 239.76 224.468C239.76 226.001 238.539 227.244 237.032 227.244C235.526 227.244 234.304 226.001 234.304 224.468C234.304 222.935 235.526 221.692 237.032 221.692Z" fill="black"/>
<path d="M136.101 227.244H141.557C141.557 227.244 139.85 230.873 141.342 232.795C141.342 232.795 136.101 232.891 136.101 227.244Z" fill="black"/>
<path d="M163.38 227.244H157.924V232.795H163.38V227.244Z" fill="black"/>
<path d="M174.291 227.244V232.795C174.291 232.795 170.725 231.058 168.836 232.577C168.836 232.577 168.742 227.244 174.291 227.244Z" fill="black"/>
<path d="M179.747 232.795H174.292V227.255V227.243H175.628C177.904 227.243 179.747 229.729 179.747 232.795Z" fill="black"/>
<path d="M190.659 227.244H185.203V232.795H190.659V227.244Z" fill="black"/>
<path d="M196.114 227.244H190.659V232.795H196.114V227.244Z" fill="black"/>
<path d="M201.57 227.244H196.114V232.795H201.57V227.244Z" fill="black"/>
<path d="M207.026 227.244H201.57V232.795H207.026V227.244Z" fill="black"/>
<path d="M212.481 227.244H207.026V232.795H212.481V227.244Z" fill="black"/>
<path d="M217.937 227.244H212.481V232.795H217.937V227.244Z" fill="black"/>
<path d="M223.393 227.244H217.937V232.795H223.393V227.244Z" fill="black"/>
<path d="M228.848 232.795H223.393V227.255V227.243H224.729C227.005 227.243 228.848 229.729 228.848 232.795Z" fill="black"/>
<path d="M147.013 232.795V238.347C147.013 238.347 143.447 236.61 141.557 238.129C141.557 238.129 141.463 232.795 147.013 232.795Z" fill="black"/>
<path d="M152.469 232.795H147.013V238.347H152.469V232.795Z" fill="black"/>
<path d="M157.924 232.795H152.469V238.347H157.924V232.795Z" fill="black"/>
<path d="M163.38 232.795H157.924V238.347H163.38V232.795Z" fill="black"/>
<path d="M174.292 232.795H179.747V238.335V238.346L178.41 238.347C176.135 238.347 174.292 235.861 174.292 232.795Z" fill="black"/>
<path d="M185.203 232.795H179.747V238.347H185.203V232.795Z" fill="black"/>
<path d="M185.203 238.347V232.795H190.647H190.659V234.156C190.659 236.471 188.216 238.347 185.203 238.347Z" fill="black"/>
<path d="M207.026 232.795H201.57V238.347H207.026V232.795Z" fill="black"/>
<path d="M228.848 232.795H223.393V238.347H228.848V232.795Z" fill="black"/>
<path d="M234.304 232.795H228.848V238.347H234.304V232.795Z" fill="black"/>
<path d="M239.76 238.347H234.304V232.806V232.795H235.641C237.916 232.795 239.76 235.281 239.76 238.347Z" fill="black"/>
<path d="M147.013 238.347H152.468C152.468 238.347 150.761 241.976 152.254 243.899C152.254 243.899 147.013 243.994 147.013 238.347Z" fill="black"/>
<path d="M157.924 238.347H163.38C163.38 238.347 161.673 241.976 163.165 243.899C163.165 243.899 157.924 243.994 157.924 238.347Z" fill="black"/>
<path d="M179.747 238.347H185.203C185.203 238.347 183.495 241.976 184.988 243.899C184.988 243.899 179.747 243.994 179.747 238.347Z" fill="black"/>
<path d="M196.114 238.347V243.899C196.114 243.899 192.548 242.162 190.658 243.68C190.658 243.68 190.564 238.347 196.114 238.347Z" fill="black"/>
<path d="M201.57 238.347H196.114V243.899H201.57V238.347Z" fill="black"/>
<path d="M207.026 238.347H201.57V243.899H207.026V238.347Z" fill="black"/>
<path d="M212.481 238.347H207.026V243.899H212.481V238.347Z" fill="black"/>
<path d="M217.937 238.347H212.481V243.899H217.937V238.347Z" fill="black"/>
<path d="M223.393 238.347H217.937V243.899H223.393V238.347Z" fill="black"/>
<path d="M228.848 238.347H223.393V243.899H228.848V238.347Z" fill="black"/>
<path d="M234.304 238.347H228.848V243.899H234.304V238.347Z" fill="black"/>
<path d="M234.304 243.899V238.347H239.749H239.76V239.707C239.76 242.023 237.317 243.899 234.304 243.899Z" fill="black"/>
<path d="M147.013 249.451H141.557C141.557 249.451 143.264 245.823 141.772 243.9C141.772 243.9 147.013 243.804 147.013 249.451Z" fill="black"/>
<path d="M168.835 243.899V249.451C168.835 249.451 165.269 247.714 163.38 249.233C163.38 249.233 163.286 243.899 168.835 243.899Z" fill="black"/>
<path d="M168.836 249.451V243.899C168.836 243.899 172.401 245.636 174.291 244.118C174.291 244.118 174.385 249.451 168.836 249.451Z" fill="black"/>
<path d="M223.393 243.899H217.937V249.451H223.393V243.899Z" fill="black"/>
<path d="M228.848 243.899H223.393V249.451H228.848V243.899Z" fill="black"/>
<path d="M234.304 243.899H228.848V249.451H234.304V243.899Z" fill="black"/>
<path d="M242.488 243.899C243.994 243.899 245.215 245.142 245.215 246.675C245.215 248.208 243.994 249.451 242.488 249.451C240.981 249.451 239.76 248.208 239.76 246.675C239.76 245.142 240.981 243.899 242.488 243.899Z" fill="black"/>
<path d="M136.101 249.451V255.002C136.101 255.002 132.535 253.265 130.646 254.784C130.646 254.784 130.552 249.451 136.101 249.451Z" fill="black"/>
<path d="M141.558 249.451H136.102V255.002H141.558V249.451Z" fill="black"/>
<path d="M141.557 255.002V249.451H147.002H147.013V250.811C147.013 253.127 144.57 255.002 141.557 255.002Z" fill="black"/>
<path d="M160.652 249.451C162.159 249.451 163.38 250.694 163.38 252.227C163.38 253.76 162.159 255.002 160.652 255.002C159.146 255.002 157.924 253.76 157.924 252.227C157.924 250.694 159.146 249.451 160.652 249.451Z" fill="black"/>
<path d="M190.658 249.451V255.002C190.658 255.002 187.092 253.265 185.202 254.784C185.202 254.784 185.109 249.451 190.658 249.451Z" fill="black"/>
<path d="M190.659 255.002V249.451C190.659 249.451 194.224 251.188 196.114 249.669C196.114 249.669 196.208 255.002 190.659 255.002Z" fill="black"/>
<path d="M217.937 249.451V255.002C217.937 255.002 214.371 253.265 212.481 254.784C212.481 254.784 212.387 249.451 217.937 249.451Z" fill="black"/>
<path d="M223.393 249.451H217.937V255.002H223.393V249.451Z" fill="black"/>
<path d="M228.848 249.451H223.393V255.002H228.848V249.451Z" fill="black"/>
<path d="M228.848 255.002V249.451H234.293H234.304V250.811C234.304 253.127 231.861 255.002 228.848 255.002Z" fill="black"/>
<path d="M106.095 94.3813C95.7567 94.3813 87.3748 102.911 87.3748 113.432C87.3748 123.952 95.7567 132.482 106.095 132.482C116.434 132.482 124.816 123.952 124.816 113.432C124.816 102.911 116.434 94.3813 106.095 94.3813ZM106.095 126.767C98.8695 126.767 92.9909 120.785 92.9909 113.432C92.9909 106.079 98.8695 100.096 106.095 100.096C113.321 100.096 119.2 106.079 119.2 113.432C119.2 120.785 113.321 126.767 106.095 126.767Z" fill="black"/>
<path d="M226.121 94.3813C215.782 94.3813 207.4 102.911 207.4 113.432C207.4 123.952 215.782 132.482 226.121 132.482C236.459 132.482 244.841 123.952 244.841 113.432C244.841 102.911 236.459 94.3813 226.121 94.3813ZM226.121 126.767C218.895 126.767 213.016 120.785 213.016 113.432C213.016 106.079 218.895 100.096 226.121 100.096C233.346 100.096 239.225 106.079 239.225 113.432C239.225 120.785 233.346 126.767 226.121 126.767Z" fill="black"/>
<path d="M106.095 216.521C95.7567 216.521 87.3748 225.051 87.3748 235.571C87.3748 246.092 95.7567 254.622 106.095 254.622C116.434 254.622 124.816 246.092 124.816 235.571C124.816 225.051 116.434 216.521 106.095 216.521ZM106.095 248.907C98.8695 248.907 92.9909 242.924 92.9909 235.571C92.9909 228.218 98.8695 222.236 106.095 222.236C113.321 222.236 119.2 228.218 119.2 235.571C119.2 242.924 113.321 248.907 106.095 248.907Z" fill="black"/>
<path d="M105.935 121.433C110.366 121.433 113.958 117.778 113.958 113.268C113.958 108.759 110.366 105.104 105.935 105.104C101.504 105.104 97.9119 108.759 97.9119 113.268C97.9119 117.778 101.504 121.433 105.935 121.433Z" fill="black"/>
<path d="M225.96 121.433C230.391 121.433 233.983 117.778 233.983 113.268C233.983 108.759 230.391 105.104 225.96 105.104C221.529 105.104 217.937 108.759 217.937 113.268C217.937 117.778 221.529 121.433 225.96 121.433Z" fill="black"/>
<path d="M105.935 243.572C110.366 243.572 113.958 239.917 113.958 235.408C113.958 230.899 110.366 227.244 105.935 227.244C101.504 227.244 97.9119 230.899 97.9119 235.408C97.9119 239.917 101.504 243.572 105.935 243.572Z" fill="black"/>
</svg>
