<svg width="81" height="80" viewBox="0 0 81 80" fill="none" xmlns="http://www.w3.org/2000/svg">
<path d="M40.3333 0C18.2416 0 0.333252 17.9083 0.333252 40C0.333252 62.0917 18.2416 80 40.3333 80C62.4249 80 80.3333 62.0917 80.3333 40C80.3333 17.9083 62.4249 0 40.3333 0ZM52.6833 55.9875C52.0666 55.9875 51.6416 55.7542 51.1874 55.4792C46.9666 52.925 41.7374 51.5833 36.0708 51.5833C33.1791 51.5833 30.0583 51.925 26.7958 52.5917L26.3999 52.6917C25.9833 52.7917 25.5624 52.9 25.2374 52.9C24.9297 52.9045 24.6243 52.8473 24.339 52.732C24.0537 52.6167 23.7943 52.4455 23.5761 52.2285C23.358 52.0115 23.1854 51.7531 23.0685 51.4684C22.9517 51.1837 22.8929 50.8785 22.8958 50.5708C22.8958 49.2458 23.6458 48.3083 24.8916 48.0708C28.5618 47.2102 32.3177 46.7685 36.0874 46.7542C42.6708 46.7542 48.5624 48.275 53.5916 51.2958C54.4583 51.8 54.9999 52.3792 54.9999 53.6667C54.9999 54.2815 54.756 54.8712 54.3216 55.3063C53.8873 55.7414 53.2981 55.9864 52.6833 55.9875V55.9875ZM55.9249 46.8917C55.1874 46.8917 54.7083 46.6125 54.2791 46.3625C46.6749 41.8458 35.3332 40.35 26.0082 42.8333C25.8663 42.8754 25.7246 42.9185 25.5833 42.9625C25.2333 43.075 24.8999 43.1833 24.4416 43.1833C23.7019 43.18 22.9938 42.8833 22.4727 42.3583C21.9516 41.8333 21.6602 41.123 21.6624 40.3833C21.6624 38.8958 22.4374 37.8542 23.8458 37.4583C27.6905 36.3441 31.6763 35.7925 35.6791 35.8208C43.5374 35.8208 51.1541 37.7917 57.1208 41.3625C58.2083 41.9792 58.6999 42.8333 58.6999 44.1042C58.6999 45.6458 57.4541 46.8917 55.9249 46.8917V46.8917ZM59.6041 36.525C58.9822 36.5269 58.373 36.3489 57.8499 36.0125C52.6874 32.9125 44.6374 31.0708 36.2916 31.0708C31.9458 31.0708 27.9999 31.55 24.5541 32.4792C24.4377 32.5086 24.3224 32.542 24.2083 32.5792C23.7887 32.7216 23.3509 32.803 22.9083 32.8208C22.4762 32.8225 22.0481 32.7381 21.649 32.5724C21.25 32.4067 20.888 32.1631 20.5842 31.8558C20.2804 31.5485 20.0409 31.1837 19.8798 30.7828C19.7187 30.3819 19.6391 29.9529 19.6458 29.5208C19.6458 27.9125 20.5499 26.6833 22.0583 26.2375C26.2166 25.0083 31.0083 24.3917 36.2874 24.3917C45.7916 24.3917 54.8416 26.5 61.1083 30.1875C62.2916 30.8542 62.8708 31.8708 62.8708 33.2792C62.8736 33.708 62.7908 34.133 62.6274 34.5294C62.464 34.9259 62.2231 35.2857 61.9189 35.588C61.6148 35.8902 61.2534 36.1288 60.8559 36.2896C60.4584 36.4505 60.0328 36.5306 59.6041 36.525V36.525Z" fill="#F7F7F7"/>
</svg>
