<svg width="80" height="80" viewBox="0 0 80 80" fill="none" xmlns="http://www.w3.org/2000/svg">
<path d="M40.6667 0C18.5751 0 0.666748 17.9083 0.666748 40C0.666748 62.0917 18.5751 80 40.6667 80C62.7584 80 80.6667 62.0917 80.6667 40C80.6667 17.9083 62.7584 0 40.6667 0ZM56.9376 32.7667C56.9542 33.1083 56.9584 33.45 56.9584 33.7833C56.9584 44.2 49.0376 56.2042 34.5459 56.2042C30.2638 56.2113 26.0708 54.9814 22.4709 52.6625C23.0834 52.7375 23.7126 52.7667 24.3501 52.7667C28.0417 52.7667 31.4376 51.5125 34.1334 49.3958C32.4906 49.3636 30.8987 48.8196 29.5797 47.8397C28.2607 46.8597 27.2803 45.4927 26.7751 43.9292C27.9549 44.1535 29.1703 44.1065 30.3292 43.7917C28.5461 43.4311 26.9426 42.4649 25.7905 41.0569C24.6385 39.649 24.0089 37.8859 24.0084 36.0667V35.9708C25.0709 36.5583 26.2876 36.9167 27.5792 36.9583C25.9076 35.8455 24.7242 34.1361 24.2711 32.1797C23.818 30.2233 24.1295 28.1677 25.1417 26.4333C27.1207 28.8667 29.5887 30.8573 32.3858 32.2763C35.1829 33.6953 38.2468 34.5111 41.3792 34.6708C40.981 32.9805 41.1524 31.2059 41.8668 29.6229C42.5812 28.04 43.7985 26.7375 45.3295 25.9178C46.8606 25.0981 48.6195 24.8072 50.333 25.0903C52.0464 25.3734 53.6183 26.2147 54.8042 27.4833C56.5675 27.1345 58.2583 26.4877 59.8042 25.5708C59.2166 27.3964 57.9862 28.9466 56.3417 29.9333C57.9036 29.7452 59.4287 29.3253 60.8667 28.6875C59.8104 30.2704 58.4798 31.6518 56.9376 32.7667V32.7667Z" fill="#F7F7F7"/>
</svg>
